solid lbox_mini_compartments
facet normal -1.5763605214000318e-16 1.1761480146135525e-31 1.0
  outer loop
    vertex 83.5000000000001 46.50000000000002 50.99999999999997
    vertex 5.000000000000002 48.900000000000006 50.99999999999995
    vertex 5.000000000000002 46.50000000000002 50.99999999999995
  endloop
endfacet
facet normal -1.5763605214000318e-16 1.1761480146135525e-31 1.0
  outer loop
    vertex 5.000000000000002 48.900000000000006 50.99999999999995
    vertex 83.5000000000001 46.50000000000002 50.99999999999997
    vertex 83.5000000000001 48.900000000000006 50.99999999999997
  endloop
endfacet
facet normal 0.0 1.0 0.0
  outer loop
    vertex 24.497001647949233 81.89800109863282 0.9999999999999981
    vertex 66.50300002098083 81.89800109863282 0.0
    vertex 24.497001647949233 81.89800109863282 0.0
  endloop
endfacet
facet normal 0.0 1.0 0.0
  outer loop
    vertex 66.50300002098083 81.89800109863282 0.0
    vertex 24.497001647949233 81.89800109863282 0.9999999999999981
    vertex 66.50300002098083 81.89800109863282 0.9999999999999981
  endloop
endfacet
facet normal 1.0 0.0 0.0
  outer loop
    vertex 24.497001647949233 85.9 0.0
    vertex 24.497001647949233 81.89800109863282 0.9999999999999981
    vertex 24.497001647949233 81.89800109863282 0.0
  endloop
endfacet
facet normal 1.0 0.0 0.0
  outer loop
    vertex 24.497001647949233 81.89800109863282 0.9999999999999981
    vertex 24.497001647949233 85.9 0.0
    vertex 24.497001647949233 85.9 0.9999999999999981
  endloop
endfacet
facet normal 0.0 0.0 1.0
  outer loop
    vertex 83.5000000000001 51.9 0.9999999999999981
    vertex 5.000000000000002 77.89800109863288 0.9999999999999981
    vertex 5.000000000000002 51.9 0.9999999999999981
  endloop
endfacet
facet normal 0.0 0.0 1.0
  outer loop
    vertex 5.000000000000002 77.89800109863288 0.9999999999999981
    vertex 83.5000000000001 51.9 0.9999999999999981
    vertex 9.501998901367248 77.89800109863288 0.9999999999999981
  endloop
endfacet
facet normal 0.0 0.0 1.0
  outer loop
    vertex 9.501998901367248 77.89800109863288 0.9999999999999981
    vertex 83.5000000000001 51.9 0.9999999999999981
    vertex 9.501998901367248 85.9 0.9999999999999981
  endloop
endfacet
facet normal 0.0 0.0 1.0
  outer loop
    vertex 9.501998901367248 85.9 0.9999999999999981
    vertex 83.5000000000001 51.9 0.9999999999999981
    vertex 24.497001647949233 81.89800109863282 0.9999999999999981
  endloop
endfacet
facet normal 0.0 0.0 1.0
  outer loop
    vertex 24.497001647949233 81.89800109863282 0.9999999999999981
    vertex 83.5000000000001 51.9 0.9999999999999981
    vertex 66.50300002098083 81.89800109863282 0.9999999999999981
  endloop
endfacet
facet normal 0.0 0.0 1.0
  outer loop
    vertex 66.50300002098083 81.89800109863282 0.9999999999999981
    vertex 83.5000000000001 51.9 0.9999999999999981
    vertex 66.50300002098083 85.9 0.9999999999999981
  endloop
endfacet
facet normal 0.0 0.0 1.0
  outer loop
    vertex 66.50300002098083 85.9 0.9999999999999981
    vertex 83.5000000000001 51.9 0.9999999999999981
    vertex 83.5000000000001 85.9 0.9999999999999981
  endloop
endfacet
facet normal 0.0 0.0 1.0
  outer loop
    vertex 24.497001647949233 85.9 0.9999999999999981
    vertex 9.501998901367248 85.9 0.9999999999999981
    vertex 24.497001647949233 81.89800109863282 0.9999999999999981
  endloop
endfacet
facet normal 0.0 1.0 0.0
  outer loop
    vertex 9.501998901367248 85.9 0.9999999999999981
    vertex 24.497001647949233 85.9 0.0
    vertex 9.501998901367248 85.9 0.0
  endloop
endfacet
facet normal 0.0 1.0 0.0
  outer loop
    vertex 24.497001647949233 85.9 0.0
    vertex 9.501998901367248 85.9 0.9999999999999981
    vertex 24.497001647949233 85.9 0.9999999999999981
  endloop
endfacet
facet normal 0.0 1.0 0.0
  outer loop
    vertex 5.000000000000002 48.900000000000006 50.99999999999995
    vertex 83.5000000000001 48.900000000000006 4.0000000000000036
    vertex 5.000000000000002 48.900000000000006 4.0000000000000036
  endloop
endfacet
facet normal 0.0 1.0 0.0
  outer loop
    vertex 83.5000000000001 48.900000000000006 4.0000000000000036
    vertex 5.000000000000002 48.900000000000006 50.99999999999995
    vertex 83.5000000000001 48.900000000000006 50.99999999999997
  endloop
endfacet
facet normal -1.0 0.0 0.0
  outer loop
    vertex 66.50300002098083 85.9 0.9999999999999981
    vertex 66.50300002098083 81.89800109863282 0.0
    vertex 66.50300002098083 81.89800109863282 0.9999999999999981
  endloop
endfacet
facet normal -1.0 0.0 0.0
  outer loop
    vertex 66.50300002098083 81.89800109863282 0.0
    vertex 66.50300002098083 85.9 0.9999999999999981
    vertex 66.50300002098083 85.9 0.0
  endloop
endfacet
facet normal 0.0 1.0 0.0
  outer loop
    vertex 66.50300002098083 85.9 0.9999999999999981
    vertex 83.5000000000001 85.9 0.0
    vertex 66.50300002098083 85.9 0.0
  endloop
endfacet
facet normal 0.0 1.0 0.0
  outer loop
    vertex 83.5000000000001 85.9 0.0
    vertex 66.50300002098083 85.9 0.9999999999999981
    vertex 83.5000000000001 85.9 0.9999999999999981
  endloop
endfacet
facet normal -1.0 0.0 0.0
  outer loop
    vertex 9.501998901367248 85.9 0.9999999999999981
    vertex 9.501998901367248 77.89800109863288 0.0
    vertex 9.501998901367248 77.89800109863288 0.9999999999999981
  endloop
endfacet
facet normal -1.0 0.0 0.0
  outer loop
    vertex 9.501998901367248 77.89800109863288 0.0
    vertex 9.501998901367248 85.9 0.9999999999999981
    vertex 9.501998901367248 85.9 0.0
  endloop
endfacet
facet normal 0.0 1.0 0.0
  outer loop
    vertex 5.000000000000002 77.89800109863288 0.9999999999999981
    vertex 9.501998901367248 77.89800109863288 0.0
    vertex 5.000000000000002 77.89800109863288 0.0
  endloop
endfacet
facet normal 0.0 1.0 0.0
  outer loop
    vertex 9.501998901367248 77.89800109863288 0.0
    vertex 5.000000000000002 77.89800109863288 0.9999999999999981
    vertex 9.501998901367248 77.89800109863288 0.9999999999999981
  endloop
endfacet
facet normal 1.916600733988746e-20 0.9914448613738105 0.1305261922200523
  outer loop
    vertex 5.000000000000002 48.900000000000006 4.0000000000000036
    vertex 83.5000000000001 49.0022225211328 3.223542864692445
    vertex 5.000000000000047 49.0022225211328 3.223542864692445
  endloop
endfacet
facet normal 1.916600733988746e-20 0.9914448613738105 0.1305261922200523
  outer loop
    vertex 83.5000000000001 49.0022225211328 3.223542864692445
    vertex 5.000000000000002 48.900000000000006 4.0000000000000036
    vertex 83.5000000000001 48.900000000000006 4.0000000000000036
  endloop
endfacet
facet normal 0.0 0.9238795325112871 0.3826834323650892
  outer loop
    vertex 5.000000000000047 49.0022225211328 3.223542864692445
    vertex 83.5000000000001 49.30192378864669 2.5000000000000093
    vertex 5.000000000000047 49.30192378864669 2.5000000000000093
  endloop
endfacet
facet normal 0.0 0.9238795325112871 0.3826834323650892
  outer loop
    vertex 83.5000000000001 49.30192378864669 2.5000000000000093
    vertex 5.000000000000047 49.0022225211328 3.223542864692445
    vertex 83.5000000000001 49.0022225211328 3.223542864692445
  endloop
endfacet
facet normal 0.0 0.7933533402912364 0.608761429008719
  outer loop
    vertex 5.000000000000047 49.30192378864669 2.5000000000000093
    vertex 83.5000000000001 49.77867965644036 1.8786796564403692
    vertex 5.000000000000047 49.77867965644036 1.8786796564403692
  endloop
endfacet
facet normal 0.0 0.7933533402912364 0.608761429008719
  outer loop
    vertex 83.5000000000001 49.77867965644036 1.8786796564403692
    vertex 5.000000000000047 49.30192378864669 2.5000000000000093
    vertex 83.5000000000001 49.30192378864669 2.5000000000000093
  endloop
endfacet
facet normal 0.0 0.6087614290087211 0.7933533402912348
  outer loop
    vertex 83.5000000000001 49.77867965644036 1.8786796564403692
    vertex 5.000000000000047 50.4 1.4019237886466978
    vertex 5.000000000000047 49.77867965644036 1.8786796564403692
  endloop
endfacet
facet normal 0.0 0.6087614290087211 0.7933533402912348
  outer loop
    vertex 5.000000000000047 50.4 1.4019237886466978
    vertex 83.5000000000001 49.77867965644036 1.8786796564403692
    vertex 83.5000000000001 50.4 1.4019237886466978
  endloop
endfacet
facet normal 0.0 0.38268343236508734 0.9238795325112877
  outer loop
    vertex 83.5000000000001 50.4 1.4019237886466978
    vertex 5.000000000000047 51.12354286469244 1.10222252113281
    vertex 5.000000000000047 50.4 1.4019237886466978
  endloop
endfacet
facet normal 0.0 0.38268343236508734 0.9238795325112877
  outer loop
    vertex 5.000000000000047 51.12354286469244 1.10222252113281
    vertex 83.5000000000001 50.4 1.4019237886466978
    vertex 83.5000000000001 51.12354286469244 1.10222252113281
  endloop
endfacet
facet normal 1.916600733994989e-20 0.13052619222007342 0.9914448613738077
  outer loop
    vertex 5.000000000000047 51.12354286469244 1.10222252113281
    vertex 83.5000000000001 51.9 0.9999999999999981
    vertex 5.000000000000002 51.9 0.9999999999999981
  endloop
endfacet
facet normal 1.916600733994989e-20 0.13052619222007342 0.9914448613738077
  outer loop
    vertex 83.5000000000001 51.9 0.9999999999999981
    vertex 5.000000000000047 51.12354286469244 1.10222252113281
    vertex 83.5000000000001 51.12354286469244 1.10222252113281
  endloop
endfacet
facet normal -1.0 -1.131922090563748e-16 -2.5148666768585235e-16
  outer loop
    vertex 5.000000000000002 48.900000000000006 50.99999999999995
    vertex 5.000000000000002 46.50000000000003 4.0000000000000036
    vertex 5.000000000000002 46.50000000000002 50.99999999999995
  endloop
endfacet
facet normal -1.0 -1.131922090563748e-16 -2.5148666768585235e-16
  outer loop
    vertex 5.000000000000002 44.27645713530759 1.102222521132804
    vertex 5.000000000000002 43.500000000000036 0.0
    vertex 5.000000000000002 43.500000000000036 0.9999999999999981
  endloop
endfacet
facet normal -1.0 -1.131922090563748e-16 -2.5148666768585235e-16
  outer loop
    vertex 5.000000000000002 43.500000000000036 0.0
    vertex 5.000000000000002 44.27645713530759 1.102222521132804
    vertex 5.000000000000002 77.89800109863288 0.0
  endloop
endfacet
facet normal -1.0 -1.131922090563748e-16 -2.5148666768585235e-16
  outer loop
    vertex 5.000000000000002 77.89800109863288 0.0
    vertex 5.000000000000002 44.27645713530759 1.102222521132804
    vertex 5.000000000000002 51.9 0.9999999999999981
  endloop
endfacet
facet normal -1.0 -1.131922090563748e-16 -2.5148666768585235e-16
  outer loop
    vertex 5.000000000000002 51.9 0.9999999999999981
    vertex 5.000000000000002 44.27645713530759 1.102222521132804
    vertex 5.000000000000002 45.00000000000003 1.4019237886466918
  endloop
endfacet
facet normal -1.0 -1.131922090563748e-16 -2.5148666768585235e-16
  outer loop
    vertex 5.000000000000002 51.9 0.9999999999999981
    vertex 5.000000000000002 45.00000000000003 1.4019237886466918
    vertex 5.000000000000047 51.12354286469244 1.10222252113281
  endloop
endfacet
facet normal -1.0 -1.131922090563748e-16 -2.5148666768585235e-16
  outer loop
    vertex 5.000000000000047 51.12354286469244 1.10222252113281
    vertex 5.000000000000002 45.00000000000003 1.4019237886466918
    vertex 5.000000000000002 45.62132034355967 1.878679656440365
  endloop
endfacet
facet normal -1.0 -1.131922090563748e-16 -2.5148666768585235e-16
  outer loop
    vertex 5.000000000000047 51.12354286469244 1.10222252113281
    vertex 5.000000000000002 45.62132034355967 1.878679656440365
    vertex 5.000000000000002 46.098076211353344 2.5000000000000053
  endloop
endfacet
facet normal -1.0 -1.131922090563748e-16 -2.5148666768585235e-16
  outer loop
    vertex 5.000000000000047 51.12354286469244 1.10222252113281
    vertex 5.000000000000002 46.098076211353344 2.5000000000000053
    vertex 5.000000000000047 50.4 1.4019237886466978
  endloop
endfacet
facet normal -1.0 -1.131922090563748e-16 -2.5148666768585235e-16
  outer loop
    vertex 5.000000000000047 50.4 1.4019237886466978
    vertex 5.000000000000002 46.098076211353344 2.5000000000000053
    vertex 5.000000000000002 46.39777747886723 3.2235428646924404
  endloop
endfacet
facet normal -1.0 -1.131922090563748e-16 -2.5148666768585235e-16
  outer loop
    vertex 5.000000000000047 50.4 1.4019237886466978
    vertex 5.000000000000002 46.39777747886723 3.2235428646924404
    vertex 5.000000000000002 46.50000000000003 4.0000000000000036
  endloop
endfacet
facet normal -1.0 -1.131922090563748e-16 -2.5148666768585235e-16
  outer loop
    vertex 5.000000000000047 50.4 1.4019237886466978
    vertex 5.000000000000002 46.50000000000003 4.0000000000000036
    vertex 5.000000000000047 49.77867965644036 1.8786796564403692
  endloop
endfacet
facet normal -1.0 -1.131922090563748e-16 -2.5148666768585235e-16
  outer loop
    vertex 5.000000000000047 49.77867965644036 1.8786796564403692
    vertex 5.000000000000002 46.50000000000003 4.0000000000000036
    vertex 5.000000000000047 49.30192378864669 2.5000000000000093
  endloop
endfacet
facet normal -1.0 -1.131922090563748e-16 -2.5148666768585235e-16
  outer loop
    vertex 5.000000000000047 49.30192378864669 2.5000000000000093
    vertex 5.000000000000002 46.50000000000003 4.0000000000000036
    vertex 5.000000000000047 49.0022225211328 3.223542864692445
  endloop
endfacet
facet normal -1.0 -1.131922090563748e-16 -2.5148666768585235e-16
  outer loop
    vertex 5.000000000000047 49.0022225211328 3.223542864692445
    vertex 5.000000000000002 46.50000000000003 4.0000000000000036
    vertex 5.000000000000002 48.900000000000006 4.0000000000000036
  endloop
endfacet
facet normal -1.0 -1.131922090563748e-16 -2.5148666768585235e-16
  outer loop
    vertex 5.000000000000002 48.900000000000006 4.0000000000000036
    vertex 5.000000000000002 46.50000000000003 4.0000000000000036
    vertex 5.000000000000002 48.900000000000006 50.99999999999995
  endloop
endfacet
facet normal -1.0 -1.131922090563748e-16 -2.5148666768585235e-16
  outer loop
    vertex 5.000000000000002 77.89800109863288 0.0
    vertex 5.000000000000002 51.9 0.9999999999999981
    vertex 5.000000000000002 77.89800109863288 0.9999999999999981
  endloop
endfacet
facet normal 0.0 0.0 -1.0
  outer loop
    vertex 24.497001647949233 85.9 0.0
    vertex 9.501998901367248 77.89800109863288 0.0
    vertex 9.501998901367248 85.9 0.0
  endloop
endfacet
facet normal 0.0 0.0 -1.0
  outer loop
    vertex 83.5000000000001 85.9 0.0
    vertex 66.50300002098083 81.89800109863282 0.0
    vertex 66.50300002098083 85.9 0.0
  endloop
endfacet
facet normal 0.0 0.0 -1.0
  outer loop
    vertex 66.50300002098083 81.89800109863282 0.0
    vertex 83.5000000000001 85.9 0.0
    vertex 83.49999999999982 43.500000000000036 0.0
  endloop
endfacet
facet normal 0.0 0.0 -1.0
  outer loop
    vertex 9.501998901367248 77.89800109863288 0.0
    vertex 5.000000000000002 43.500000000000036 0.0
    vertex 5.000000000000002 77.89800109863288 0.0
  endloop
endfacet
facet normal 0.0 0.0 -1.0
  outer loop
    vertex 5.000000000000002 43.500000000000036 0.0
    vertex 9.501998901367248 77.89800109863288 0.0
    vertex 83.49999999999982 43.500000000000036 0.0
  endloop
endfacet
facet normal 0.0 0.0 -1.0
  outer loop
    vertex 83.49999999999982 43.500000000000036 0.0
    vertex 9.501998901367248 77.89800109863288 0.0
    vertex 24.497001647949233 81.89800109863282 0.0
  endloop
endfacet
facet normal 0.0 0.0 -1.0
  outer loop
    vertex 24.497001647949233 81.89800109863282 0.0
    vertex 9.501998901367248 77.89800109863288 0.0
    vertex 24.497001647949233 85.9 0.0
  endloop
endfacet
facet normal 0.0 0.0 -1.0
  outer loop
    vertex 83.49999999999982 43.500000000000036 0.0
    vertex 24.497001647949233 81.89800109863282 0.0
    vertex 66.50300002098083 81.89800109863282 0.0
  endloop
endfacet
facet normal 1.0 -5.388839113090984e-15 -2.9433983368649015e-15
  outer loop
    vertex 83.5000000000001 85.9 0.0
    vertex 83.49999999999982 43.500000000000036 0.9999999999999981
    vertex 83.49999999999982 43.500000000000036 0.0
  endloop
endfacet
facet normal 1.0 -5.388839113090984e-15 -2.9433983368649015e-15
  outer loop
    vertex 83.49999999999982 43.500000000000036 0.9999999999999981
    vertex 83.5000000000001 85.9 0.0
    vertex 83.49999999999982 44.27645713530759 1.102222521132804
  endloop
endfacet
facet normal 1.0 -5.388839113090984e-15 -2.9433983368649015e-15
  outer loop
    vertex 83.49999999999982 44.27645713530759 1.102222521132804
    vertex 83.5000000000001 85.9 0.0
    vertex 83.5000000000001 51.9 0.9999999999999981
  endloop
endfacet
facet normal 1.0 -5.388839113090984e-15 -2.9433983368649015e-15
  outer loop
    vertex 83.49999999999982 44.27645713530759 1.102222521132804
    vertex 83.5000000000001 51.9 0.9999999999999981
    vertex 83.49999999999982 45.00000000000003 1.4019237886466918
  endloop
endfacet
facet normal 1.0 -5.388839113090984e-15 -2.9433983368649015e-15
  outer loop
    vertex 83.49999999999982 45.00000000000003 1.4019237886466918
    vertex 83.5000000000001 51.9 0.9999999999999981
    vertex 83.5000000000001 51.12354286469244 1.10222252113281
  endloop
endfacet
facet normal 1.0 -5.388839113090984e-15 -2.9433983368649015e-15
  outer loop
    vertex 83.49999999999982 45.00000000000003 1.4019237886466918
    vertex 83.5000000000001 51.12354286469244 1.10222252113281
    vertex 83.49999999999982 45.62132034355967 1.878679656440365
  endloop
endfacet
facet normal 1.0 -5.388839113090984e-15 -2.9433983368649015e-15
  outer loop
    vertex 83.49999999999982 45.62132034355967 1.878679656440365
    vertex 83.5000000000001 51.12354286469244 1.10222252113281
    vertex 83.49999999999982 46.098076211353344 2.5000000000000053
  endloop
endfacet
facet normal 1.0 -5.388839113090984e-15 -2.9433983368649015e-15
  outer loop
    vertex 83.49999999999982 46.098076211353344 2.5000000000000053
    vertex 83.5000000000001 51.12354286469244 1.10222252113281
    vertex 83.5000000000001 50.4 1.4019237886466978
  endloop
endfacet
facet normal 1.0 -5.388839113090984e-15 -2.9433983368649015e-15
  outer loop
    vertex 83.49999999999982 46.098076211353344 2.5000000000000053
    vertex 83.5000000000001 50.4 1.4019237886466978
    vertex 83.49999999999982 46.39777747886723 3.2235428646924404
  endloop
endfacet
facet normal 1.0 -5.388839113090984e-15 -2.9433983368649015e-15
  outer loop
    vertex 83.49999999999982 46.39777747886723 3.2235428646924404
    vertex 83.5000000000001 50.4 1.4019237886466978
    vertex 83.5000000000001 46.50000000000003 4.0000000000000036
  endloop
endfacet
facet normal 1.0 -5.388839113090984e-15 -2.9433983368649015e-15
  outer loop
    vertex 83.5000000000001 46.50000000000003 4.0000000000000036
    vertex 83.5000000000001 50.4 1.4019237886466978
    vertex 83.5000000000001 49.77867965644036 1.8786796564403692
  endloop
endfacet
facet normal 1.0 -5.388839113090984e-15 -2.9433983368649015e-15
  outer loop
    vertex 83.5000000000001 46.50000000000003 4.0000000000000036
    vertex 83.5000000000001 49.77867965644036 1.8786796564403692
    vertex 83.5000000000001 49.30192378864669 2.5000000000000093
  endloop
endfacet
facet normal 1.0 -5.388839113090984e-15 -2.9433983368649015e-15
  outer loop
    vertex 83.5000000000001 46.50000000000003 4.0000000000000036
    vertex 83.5000000000001 49.30192378864669 2.5000000000000093
    vertex 83.5000000000001 49.0022225211328 3.223542864692445
  endloop
endfacet
facet normal 1.0 -5.388839113090984e-15 -2.9433983368649015e-15
  outer loop
    vertex 83.5000000000001 46.50000000000003 4.0000000000000036
    vertex 83.5000000000001 49.0022225211328 3.223542864692445
    vertex 83.5000000000001 48.900000000000006 4.0000000000000036
  endloop
endfacet
facet normal 1.0 -5.388839113090984e-15 -2.9433983368649015e-15
  outer loop
    vertex 83.5000000000001 51.9 0.9999999999999981
    vertex 83.5000000000001 85.9 0.0
    vertex 83.5000000000001 85.9 0.9999999999999981
  endloop
endfacet
facet normal 1.0 -5.388839113090984e-15 -2.9433983368649015e-15
  outer loop
    vertex 83.5000000000001 46.50000000000003 4.0000000000000036
    vertex 83.5000000000001 48.900000000000006 50.99999999999997
    vertex 83.5000000000001 46.50000000000002 50.99999999999997
  endloop
endfacet
facet normal 1.0 -5.388839113090984e-15 -2.9433983368649015e-15
  outer loop
    vertex 83.5000000000001 48.900000000000006 50.99999999999997
    vertex 83.5000000000001 46.50000000000003 4.0000000000000036
    vertex 83.5000000000001 48.900000000000006 4.0000000000000036
  endloop
endfacet
facet normal 1.941318718700621e-32 -1.0 -1.2260723837164783e-16
  outer loop
    vertex 83.5000000000001 46.50000000000002 50.99999999999997
    vertex 5.000000000000002 46.50000000000003 4.0000000000000036
    vertex 83.5000000000001 46.50000000000003 4.0000000000000036
  endloop
endfacet
facet normal 1.941318718700621e-32 -1.0 -1.2260723837164783e-16
  outer loop
    vertex 5.000000000000002 46.50000000000003 4.0000000000000036
    vertex 83.5000000000001 46.50000000000002 50.99999999999997
    vertex 5.000000000000002 46.50000000000002 50.99999999999995
  endloop
endfacet
facet normal 6.027647414316029e-20 -0.9914448613738105 0.13052619222005155
  outer loop
    vertex 83.5000000000001 46.50000000000003 4.0000000000000036
    vertex 5.000000000000002 46.39777747886723 3.2235428646924404
    vertex 83.49999999999982 46.39777747886723 3.2235428646924404
  endloop
endfacet
facet normal 6.027647414316029e-20 -0.9914448613738105 0.13052619222005155
  outer loop
    vertex 5.000000000000002 46.39777747886723 3.2235428646924404
    vertex 83.5000000000001 46.50000000000003 4.0000000000000036
    vertex 5.000000000000002 46.50000000000003 4.0000000000000036
  endloop
endfacet
facet normal 0.0 -0.793353340291233 0.6087614290087235
  outer loop
    vertex 83.49999999999982 46.098076211353344 2.5000000000000053
    vertex 5.000000000000002 45.62132034355967 1.878679656440365
    vertex 83.49999999999982 45.62132034355967 1.878679656440365
  endloop
endfacet
facet normal 0.0 -0.793353340291233 0.6087614290087235
  outer loop
    vertex 5.000000000000002 45.62132034355967 1.878679656440365
    vertex 83.49999999999982 46.098076211353344 2.5000000000000053
    vertex 5.000000000000002 46.098076211353344 2.5000000000000053
  endloop
endfacet
facet normal 0.0 -0.6087614290087225 0.7933533402912338
  outer loop
    vertex 83.49999999999982 45.00000000000003 1.4019237886466918
    vertex 5.000000000000002 45.62132034355967 1.878679656440365
    vertex 5.000000000000002 45.00000000000003 1.4019237886466918
  endloop
endfacet
facet normal 0.0 -0.6087614290087225 0.7933533402912338
  outer loop
    vertex 5.000000000000002 45.62132034355967 1.878679656440365
    vertex 83.49999999999982 45.00000000000003 1.4019237886466918
    vertex 83.49999999999982 45.62132034355967 1.878679656440365
  endloop
endfacet
facet normal 0.0 -0.38268343236508734 0.9238795325112877
  outer loop
    vertex 83.49999999999982 44.27645713530759 1.102222521132804
    vertex 5.000000000000002 45.00000000000003 1.4019237886466918
    vertex 5.000000000000002 44.27645713530759 1.102222521132804
  endloop
endfacet
facet normal 0.0 -0.38268343236508734 0.9238795325112877
  outer loop
    vertex 5.000000000000002 45.00000000000003 1.4019237886466918
    vertex 83.49999999999982 44.27645713530759 1.102222521132804
    vertex 83.49999999999982 45.00000000000003 1.4019237886466918
  endloop
endfacet
facet normal 0.0 -0.1305261922200659 0.9914448613738086
  outer loop
    vertex 83.49999999999982 43.500000000000036 0.9999999999999981
    vertex 5.000000000000002 44.27645713530759 1.102222521132804
    vertex 5.000000000000002 43.500000000000036 0.9999999999999981
  endloop
endfacet
facet normal 0.0 -0.1305261922200659 0.9914448613738086
  outer loop
    vertex 5.000000000000002 44.27645713530759 1.102222521132804
    vertex 83.49999999999982 43.500000000000036 0.9999999999999981
    vertex 83.49999999999982 44.27645713530759 1.102222521132804
  endloop
endfacet
facet normal 0.0 -0.9238795325112871 0.3826834323650892
  outer loop
    vertex 83.49999999999982 46.39777747886723 3.2235428646924404
    vertex 5.000000000000002 46.098076211353344 2.5000000000000053
    vertex 83.49999999999982 46.098076211353344 2.5000000000000053
  endloop
endfacet
facet normal 0.0 -0.9238795325112871 0.3826834323650892
  outer loop
    vertex 5.000000000000002 46.098076211353344 2.5000000000000053
    vertex 83.49999999999982 46.39777747886723 3.2235428646924404
    vertex 5.000000000000002 46.39777747886723 3.2235428646924404
  endloop
endfacet
facet normal 0.0 -1.0 0.0
  outer loop
    vertex 83.49999999999982 43.500000000000036 0.9999999999999981
    vertex 5.000000000000002 43.500000000000036 0.0
    vertex 83.49999999999982 43.500000000000036 0.0
  endloop
endfacet
facet normal 0.0 -1.0 0.0
  outer loop
    vertex 5.000000000000002 43.500000000000036 0.0
    vertex 83.49999999999982 43.500000000000036 0.9999999999999981
    vertex 5.000000000000002 43.500000000000036 0.9999999999999981
  endloop
endfacet
facet normal 0.0 1.0 0.0
  outer loop
    vertex 52.7866819267375 48.935 44.75943755799663
    vertex 53.743259193659604 48.935 43.88779004841809
    vertex 52.7866819267375 48.935 43.88779004841809
  endloop
endfacet
facet normal 0.0 1.0 0.0
  outer loop
    vertex 53.743259193659604 48.935 43.88779004841809
    vertex 52.7866819267375 48.935 44.75943755799663
    vertex 53.743259193659604 48.935 44.75943755799663
  endloop
endfacet
facet normal 0.0 1.0 0.0
  outer loop
    vertex 52.84479176070942 48.935 43.051902436668406
    vertex 53.68514935968771 48.935 38.058926702313364
    vertex 52.84479176070942 48.935 38.058926702313364
  endloop
endfacet
facet normal 0.0 1.0 0.0
  outer loop
    vertex 53.68514935968771 48.935 38.058926702313364
    vertex 52.84479176070942 48.935 43.051902436668406
    vertex 53.68514935968771 48.935 43.051902436668406
  endloop
endfacet
facet normal 0.0 1.0 0.0
  outer loop
    vertex 62.611713855217715 48.935 40.964418400908514
    vertex 61.38693735457914 48.935 38.058926702313364
    vertex 60.28285050911299 48.935 38.058926702313364
  endloop
endfacet
facet normal 0.0 1.0 0.0
  outer loop
    vertex 61.38693735457914 48.935 38.058926702313364
    vertex 62.611713855217715 48.935 40.964418400908514
    vertex 63.25092202890865 48.935 40.46824981853303
  endloop
endfacet
facet normal 0.0 1.0 0.0
  outer loop
    vertex 63.25092202890865 48.935 40.46824981853303
    vertex 62.611713855217715 48.935 40.964418400908514
    vertex 63.581701083825635 48.935 40.94206846476547
  endloop
endfacet
facet normal 0.0 1.0 0.0
  outer loop
    vertex 63.581701083825635 48.935 40.94206846476547
    vertex 62.611713855217715 48.935 40.964418400908514
    vertex 61.605966728780935 48.935 43.051902436668406
  endloop
endfacet
facet normal 0.0 1.0 0.0
  outer loop
    vertex 61.605966728780935 48.935 43.051902436668406
    vertex 62.611713855217715 48.935 40.964418400908514
    vertex 60.559989717286676 48.935 43.051902436668406
  endloop
endfacet
facet normal 0.0 1.0 0.0
  outer loop
    vertex 63.581701083825635 48.935 40.146410738073264
    vertex 64.42205868280392 48.935 38.058926702313364
    vertex 63.581701083825635 48.935 38.058926702313364
  endloop
endfacet
facet normal 0.0 1.0 0.0
  outer loop
    vertex 64.42205868280392 48.935 38.058926702313364
    vertex 63.581701083825635 48.935 40.146410738073264
    vertex 64.42205868280392 48.935 45.01422683002728
  endloop
endfacet
facet normal 0.0 1.0 0.0
  outer loop
    vertex 64.42205868280392 48.935 45.01422683002728
    vertex 63.581701083825635 48.935 40.146410738073264
    vertex 63.581701083825635 48.935 40.94206846476547
  endloop
endfacet
facet normal 0.0 1.0 0.0
  outer loop
    vertex 63.581701083825635 48.935 40.94206846476547
    vertex 63.581701083825635 48.935 40.146410738073264
    vertex 63.25092202890865 48.935 40.46824981853303
  endloop
endfacet
facet normal 0.0 1.0 0.0
  outer loop
    vertex 64.42205868280392 48.935 45.01422683002728
    vertex 63.581701083825635 48.935 40.94206846476547
    vertex 63.581701083825635 48.935 45.01422683002728
  endloop
endfacet
facet normal 0.0 1.0 0.0
  outer loop
    vertex 42.62640095611171 48.935 41.299667443054105
    vertex 43.46675855509 48.935 38.058926702313364
    vertex 42.62640095611171 48.935 38.058926702313364
  endloop
endfacet
facet normal 0.0 1.0 0.0
  outer loop
    vertex 43.46675855509 48.935 38.058926702313364
    vertex 42.62640095611171 48.935 41.299667443054105
    vertex 43.46675855509 48.935 40.901838579708
  endloop
endfacet
facet normal 0.0 1.0 0.0
  outer loop
    vertex 43.46675855509 48.935 40.901838579708
    vertex 42.62640095611171 48.935 41.299667443054105
    vertex 43.50028345930456 48.935 41.54328174701323
  endloop
endfacet
facet normal 0.0 1.0 0.0
  outer loop
    vertex 43.50028345930456 48.935 41.54328174701323
    vertex 42.62640095611171 48.935 41.299667443054105
    vertex 42.652382756878 48.935 41.732837142926385
  endloop
endfacet
facet normal 0.0 1.0 0.0
  outer loop
    vertex 43.50028345930456 48.935 41.54328174701323
    vertex 42.652382756878 48.935 41.732837142926385
    vertex 43.62767809531989 48.935 42.01933538685998
  endloop
endfacet
facet normal 0.0 1.0 0.0
  outer loop
    vertex 43.62767809531989 48.935 42.01933538685998
    vertex 42.652382756878 48.935 41.732837142926385
    vertex 42.73032815917685 48.935 42.11152887345002
  endloop
endfacet
facet normal 0.0 1.0 0.0
  outer loop
    vertex 43.62767809531989 48.935 42.01933538685998
    vertex 42.73032815917685 48.935 42.11152887345002
    vertex 43.75060274410661 48.935 42.18304866910774
  endloop
endfacet
facet normal 0.0 1.0 0.0
  outer loop
    vertex 43.75060274410661 48.935 42.18304866910774
    vertex 42.73032815917685 48.935 42.11152887345002
    vertex 42.860237163008264 48.935 42.43574263462499
  endloop
endfacet
facet normal 0.0 1.0 0.0
  outer loop
    vertex 43.75060274410661 48.935 42.18304866910774
    vertex 42.860237163008264 48.935 42.43574263462499
    vertex 43.91375727795079 48.935 42.298709588647974
  endloop
endfacet
facet normal 0.0 1.0 0.0
  outer loop
    vertex 43.91375727795079 48.935 42.298709588647974
    vertex 42.860237163008264 48.935 42.43574263462499
    vertex 44.13055165853828 48.935 42.367435642287816
  endloop
endfacet
facet normal 0.0 1.0 0.0
  outer loop
    vertex 44.13055165853828 48.935 42.367435642287816
    vertex 42.860237163008264 48.935 42.43574263462499
    vertex 44.41439584755488 48.935 42.39034432683444
  endloop
endfacet
facet normal 0.0 1.0 0.0
  outer loop
    vertex 43.04210976837225 48.935 42.70547842645129
    vertex 45.710692143851176 48.935 42.49762402032103
    vertex 42.860237163008264 48.935 42.43574263462499
  endloop
endfacet
facet normal 0.0 1.0 0.0
  outer loop
    vertex 45.710692143851176 48.935 42.49762402032103
    vertex 43.04210976837225 48.935 42.70547842645129
    vertex 45.337448210262416 48.935 42.7937606742163
  endloop
endfacet
facet normal 0.0 1.0 0.0
  outer loop
    vertex 45.337448210262416 48.935 42.7937606742163
    vertex 43.04210976837225 48.935 42.70547842645129
    vertex 43.27007911703126 48.935 42.91766313270928
  endloop
endfacet
facet normal 0.0 1.0 0.0
  outer loop
    vertex 45.337448210262416 48.935 42.7937606742163
    vertex 43.27007911703126 48.935 42.91766313270928
    vertex 44.968674263902265 48.935 43.011672551610935
  endloop
endfacet
facet normal 0.0 1.0 0.0
  outer loop
    vertex 44.968674263902265 48.935 43.011672551610935
    vertex 43.27007911703126 48.935 42.91766313270928
    vertex 43.538278350747724 48.935 43.06922363717926
  endloop
endfacet
facet normal 0.0 1.0 0.0
  outer loop
    vertex 44.968674263902265 48.935 43.011672551610935
    vertex 43.538278350747724 48.935 43.06922363717926
    vertex 44.59207783989205 48.935 43.14577216846917
  endloop
endfacet
facet normal 0.0 1.0 0.0
  outer loop
    vertex 44.59207783989205 48.935 43.14577216846917
    vertex 43.538278350747724 48.935 43.06922363717926
    vertex 43.84670746952168 48.935 43.16015993986126
  endloop
endfacet
facet normal 0.0 1.0 0.0
  outer loop
    vertex 44.59207783989205 48.935 43.14577216846917
    vertex 43.84670746952168 48.935 43.16015993986126
    vertex 44.19536647335309 48.935 43.19047204075525
  endloop
endfacet
facet normal 0.0 1.0 0.0
  outer loop
    vertex 45.710692143851176 48.935 41.786896050972366
    vertex 46.55104974282946 48.935 38.058926702313364
    vertex 45.710692143851176 48.935 38.058926702313364
  endloop
endfacet
facet normal 0.0 1.0 0.0
  outer loop
    vertex 46.55104974282946 48.935 38.058926702313364
    vertex 45.710692143851176 48.935 41.786896050972366
    vertex 46.55104974282946 48.935 45.01422683002728
  endloop
endfacet
facet normal 0.0 1.0 0.0
  outer loop
    vertex 46.55104974282946 48.935 45.01422683002728
    vertex 45.710692143851176 48.935 41.786896050972366
    vertex 45.710692143851176 48.935 42.49762402032103
  endloop
endfacet
facet normal 0.0 1.0 0.0
  outer loop
    vertex 45.710692143851176 48.935 42.49762402032103
    vertex 45.710692143851176 48.935 41.786896050972366
    vertex 45.06030900208872 48.935 42.22271980576164
  endloop
endfacet
facet normal 0.0 1.0 0.0
  outer loop
    vertex 45.710692143851176 48.935 42.49762402032103
    vertex 45.06030900208872 48.935 42.22271980576164
    vertex 44.73232368918962 48.935 42.348438196566235
  endloop
endfacet
facet normal 0.0 1.0 0.0
  outer loop
    vertex 45.710692143851176 48.935 42.49762402032103
    vertex 44.73232368918962 48.935 42.348438196566235
    vertex 44.41439584755488 48.935 42.39034432683444
  endloop
endfacet
facet normal 0.0 1.0 0.0
  outer loop
    vertex 45.710692143851176 48.935 42.49762402032103
    vertex 44.41439584755488 48.935 42.39034432683444
    vertex 42.860237163008264 48.935 42.43574263462499
  endloop
endfacet
facet normal 0.0 1.0 0.0
  outer loop
    vertex 46.55104974282946 48.935 45.01422683002728
    vertex 45.710692143851176 48.935 42.49762402032103
    vertex 45.710692143851176 48.935 45.01422683002728
  endloop
endfacet
facet normal 0.0 1.0 0.0
  outer loop
    vertex 66.22346353593291 48.935 37.980701925812724
    vertex 67.15433837629051 48.935 37.98684815825206
    vertex 66.66152228433648 48.935 37.947177021598165
  endloop
endfacet
facet normal 0.0 1.0 0.0
  outer loop
    vertex 67.15433837629051 48.935 37.98684815825206
    vertex 66.22346353593291 48.935 37.980701925812724
    vertex 65.83904463427264 48.935 38.07680665122779
  endloop
endfacet
facet normal 0.0 1.0 0.0
  outer loop
    vertex 67.15433837629051 48.935 37.98684815825206
    vertex 65.83904463427264 48.935 38.07680665122779
    vertex 67.60468958957276 48.935 38.10586156821375
  endloop
endfacet
facet normal 0.0 1.0 0.0
  outer loop
    vertex 67.60468958957276 48.935 38.10586156821375
    vertex 65.83904463427264 48.935 38.07680665122779
    vertex 65.49932560489843 48.935 38.19973130001451
  endloop
endfacet
facet normal 0.0 1.0 0.0
  outer loop
    vertex 67.60468958957276 48.935 38.10586156821375
    vertex 65.49932560489843 48.935 38.19973130001451
    vertex 68.00363594972602 48.935 38.30533474829037
  endloop
endfacet
facet normal 0.0 1.0 0.0
  outer loop
    vertex 68.00363594972602 48.935 38.30533474829037
    vertex 65.49932560489843 48.935 38.19973130001451
    vertex 65.18642649889587 48.935 38.34053589771566
  endloop
endfacet
facet normal 0.0 1.0 0.0
  outer loop
    vertex 68.00363594972602 48.935 38.30533474829037
    vertex 65.18642649889587 48.935 38.34053589771566
    vertex 68.34223748229306 48.935 38.5863851952891
  endloop
endfacet
facet normal 0.0 1.0 0.0
  outer loop
    vertex 68.34223748229306 48.935 38.5863851952891
    vertex 65.18642649889587 48.935 38.34053589771566
    vertex 66.67493224602231 48.935 38.67578493986126
  endloop
endfacet
facet normal 0.0 1.0 0.0
  outer loop
    vertex 66.67493224602231 48.935 38.67578493986126
    vertex 65.18642649889587 48.935 38.34053589771566
    vertex 66.27375089225475 48.935 38.718249818533025
  endloop
endfacet
facet normal 0.0 1.0 0.0
  outer loop
    vertex 66.27375089225475 48.935 38.718249818533025
    vertex 65.18642649889587 48.935 38.34053589771566
    vertex 65.89268448101592 48.935 38.845644454548356
  endloop
endfacet
facet normal 0.0 1.0 0.0
  outer loop
    vertex 65.89268448101592 48.935 38.845644454548356
    vertex 65.18642649889587 48.935 38.34053589771566
    vertex 65.54290798037735 48.935 39.0400888989928
  endloop
endfacet
facet normal 0.0 1.0 0.0
  outer loop
    vertex 65.54290798037735 48.935 39.0400888989928
    vertex 65.18642649889587 48.935 38.34053589771566
    vertex 65.18642649889587 48.935 39.28370320295193
  endloop
endfacet
facet normal 0.0 1.0 0.0
  outer loop
    vertex 65.54290798037735 48.935 39.0400888989928
    vertex 65.18642649889587 48.935 39.28370320295193
    vertex 65.23559635841056 48.935 39.28370320295193
  endloop
endfacet
facet normal 0.0 1.0 0.0
  outer loop
    vertex 65.18642649889587 48.935 42.78370320295193
    vertex 65.23559635841056 48.935 41.84053589771566
    vertex 65.18642649889587 48.935 41.84053589771566
  endloop
endfacet
facet normal 0.0 1.0 0.0
  outer loop
    vertex 65.23559635841056 48.935 41.84053589771566
    vertex 65.18642649889587 48.935 42.78370320295193
    vertex 65.46580070068387 48.935 42.01486539963137
  endloop
endfacet
facet normal 0.0 1.0 0.0
  outer loop
    vertex 65.46580070068387 48.935 42.01486539963137
    vertex 65.18642649889587 48.935 42.78370320295193
    vertex 65.80775472367237 48.935 42.21601482491872
  endloop
endfacet
facet normal 0.0 1.0 0.0
  outer loop
    vertex 65.80775472367237 48.935 42.21601482491872
    vertex 65.18642649889587 48.935 42.78370320295193
    vertex 66.2189935487043 48.935 42.372464377920004
  endloop
endfacet
facet normal 0.0 1.0 0.0
  outer loop
    vertex 66.2189935487043 48.935 42.372464377920004
    vertex 65.18642649889587 48.935 42.78370320295193
    vertex 66.67493224602231 48.935 42.43951418634912
  endloop
endfacet
facet normal 0.0 1.0 0.0
  outer loop
    vertex 66.67493224602231 48.935 42.43951418634912
    vertex 65.18642649889587 48.935 42.78370320295193
    vertex 68.34223748229306 48.935 42.488684045863806
  endloop
endfacet
facet normal 0.0 1.0 0.0
  outer loop
    vertex 68.34223748229306 48.935 42.488684045863806
    vertex 65.18642649889587 48.935 42.78370320295193
    vertex 68.0108996789725 48.935 42.7775569705126
  endloop
endfacet
facet normal 0.0 1.0 0.0
  outer loop
    vertex 68.0108996789725 48.935 42.7775569705126
    vertex 65.18642649889587 48.935 42.78370320295193
    vertex 67.60692458318705 48.935 42.9915576090822
  endloop
endfacet
facet normal 0.0 1.0 0.0
  outer loop
    vertex 67.60692458318705 48.935 42.9915576090822
    vertex 65.18642649889587 48.935 42.78370320295193
    vertex 65.86809955125858 48.935 43.051902436668406
  endloop
endfacet
facet normal 0.0 1.0 0.0
  outer loop
    vertex 67.60692458318705 48.935 42.9915576090822
    vertex 65.86809955125858 48.935 43.051902436668406
    vertex 67.15042713746548 48.935 43.12398098072971
  endloop
endfacet
facet normal 0.0 1.0 0.0
  outer loop
    vertex 67.15042713746548 48.935 43.12398098072971
    vertex 65.86809955125858 48.935 43.051902436668406
    vertex 66.25754718855104 48.935 43.13906718762626
  endloop
endfacet
facet normal 0.0 1.0 0.0
  outer loop
    vertex 67.15042713746548 48.935 43.12398098072971
    vertex 66.25754718855104 48.935 43.13906718762626
    vertex 66.66152228433648 48.935 43.16812210461221
  endloop
endfacet
facet normal 0.0 1.0 0.0
  outer loop
    vertex 68.34223748229306 48.935 38.5863851952891
    vertex 66.99607289097762 48.935 38.70665578915883
    vertex 68.6160242000453 48.935 38.95013040601707
  endloop
endfacet
facet normal 0.0 1.0 0.0
  outer loop
    vertex 66.99607289097762 48.935 38.70665578915883
    vertex 68.34223748229306 48.935 38.5863851952891
    vertex 66.67493224602231 48.935 38.67578493986126
  endloop
endfacet
facet normal 0.0 1.0 0.0
  outer loop
    vertex 68.6160242000453 48.935 38.95013040601707
    vertex 66.99607289097762 48.935 38.70665578915883
    vertex 67.2800567670951 48.935 38.79926833705155
  endloop
endfacet
facet normal 0.0 1.0 0.0
  outer loop
    vertex 68.6160242000453 48.935 38.95013040601707
    vertex 67.2800567670951 48.935 38.79926833705155
    vertex 67.5268838743748 48.935 38.95362258353941
  endloop
endfacet
facet normal 0.0 1.0 0.0
  outer loop
    vertex 68.6160242000453 48.935 38.95013040601707
    vertex 67.5268838743748 48.935 38.95362258353941
    vertex 68.8205261157541 48.935 39.397687877281435
  endloop
endfacet
facet normal 0.0 1.0 0.0
  outer loop
    vertex 68.8205261157541 48.935 39.397687877281435
    vertex 67.5268838743748 48.935 38.95362258353941
    vertex 67.7365542128167 48.935 39.169718528622425
  endloop
endfacet
facet normal 0.0 1.0 0.0
  outer loop
    vertex 68.8205261157541 48.935 39.397687877281435
    vertex 67.7365542128167 48.935 39.169718528622425
    vertex 67.9037596725868 48.935 39.44113056565947
  endloop
endfacet
facet normal 0.0 1.0 0.0
  outer loop
    vertex 68.8205261157541 48.935 39.397687877281435
    vertex 67.9037596725868 48.935 39.44113056565947
    vertex 68.94792075176944 48.935 39.930175105889354
  endloop
endfacet
facet normal 0.0 1.0 0.0
  outer loop
    vertex 68.94792075176944 48.935 39.930175105889354
    vertex 67.9037596725868 48.935 39.44113056565947
    vertex 68.02319214385118 48.935 39.761433088009404
  endloop
endfacet
facet normal 0.0 1.0 0.0
  outer loop
    vertex 68.94792075176944 48.935 39.930175105889354
    vertex 68.02319214385118 48.935 39.761433088009404
    vertex 68.0948516266098 48.935 40.13062609567224
  endloop
endfacet
facet normal 0.0 1.0 0.0
  outer loop
    vertex 68.94792075176944 48.935 39.930175105889354
    vertex 68.0948516266098 48.935 40.13062609567224
    vertex 68.99038563044122 48.935 40.548709588647974
  endloop
endfacet
facet normal 0.0 1.0 0.0
  outer loop
    vertex 68.99038563044122 48.935 40.548709588647974
    vertex 68.0948516266098 48.935 40.13062609567224
    vertex 68.11873812086267 48.935 40.548709588647974
  endloop
endfacet
facet normal 0.0 1.0 0.0
  outer loop
    vertex 68.99038563044122 48.935 40.548709588647974
    vertex 68.11873812086267 48.935 40.548709588647974
    vertex 68.09401350400442 48.935 40.97461555927377
  endloop
endfacet
facet normal 0.0 1.0 0.0
  outer loop
    vertex 68.99038563044122 48.935 40.548709588647974
    vertex 68.09401350400442 48.935 40.97461555927377
    vertex 68.94624450655871 48.935 41.16109783896726
  endloop
endfacet
facet normal 0.0 1.0 0.0
  outer loop
    vertex 68.94624450655871 48.935 41.16109783896726
    vertex 68.09401350400442 48.935 40.97461555927377
    vertex 68.01983965342973 48.935 41.349396050972366
  endloop
endfacet
facet normal 0.0 1.0 0.0
  outer loop
    vertex 68.94624450655871 48.935 41.16109783896726
    vertex 68.01983965342973 48.935 41.349396050972366
    vertex 68.8138211349112 48.935 41.68408634471438
  endloop
endfacet
facet normal 0.0 1.0 0.0
  outer loop
    vertex 68.8138211349112 48.935 41.68408634471438
    vertex 68.01983965342973 48.935 41.349396050972366
    vertex 67.89621656913853 48.935 41.673051063743756
  endloop
endfacet
facet normal 0.0 1.0 0.0
  outer loop
    vertex 68.8138211349112 48.935 41.68408634471438
    vertex 67.89621656913853 48.935 41.673051063743756
    vertex 67.72314425113086 48.935 41.94558059758795
  endloop
endfacet
facet normal 0.0 1.0 0.0
  outer loop
    vertex 68.8138211349112 48.935 41.68408634471438
    vertex 67.72314425113086 48.935 41.94558059758795
    vertex 68.60764297399166 48.935 42.124380086732266
  endloop
endfacet
facet normal 0.0 1.0 0.0
  outer loop
    vertex 68.60764297399166 48.935 42.124380086732266
    vertex 67.72314425113086 48.935 41.94558059758795
    vertex 67.50928329966216 48.935 42.16167654267096
  endloop
endfacet
facet normal 0.0 1.0 0.0
  outer loop
    vertex 68.60764297399166 48.935 42.124380086732266
    vertex 67.50928329966216 48.935 42.16167654267096
    vertex 68.34223748229306 48.935 42.488684045863806
  endloop
endfacet
facet normal 0.0 1.0 0.0
  outer loop
    vertex 68.34223748229306 48.935 42.488684045863806
    vertex 67.50928329966216 48.935 42.16167654267096
    vertex 67.26329431498783 48.935 42.31603078915883
  endloop
endfacet
facet normal 0.0 1.0 0.0
  outer loop
    vertex 68.34223748229306 48.935 42.488684045863806
    vertex 67.26329431498783 48.935 42.31603078915883
    vertex 66.98517729710788 48.935 42.408643337051544
  endloop
endfacet
facet normal 0.0 1.0 0.0
  outer loop
    vertex 68.34223748229306 48.935 42.488684045863806
    vertex 66.98517729710788 48.935 42.408643337051544
    vertex 66.67493224602231 48.935 42.43951418634912
  endloop
endfacet
facet normal 0.0 1.0 0.0
  outer loop
    vertex 54.355647443978896 48.935 43.02508251329676
    vertex 54.40034731626497 48.935 42.148965016489605
    vertex 54.355647443978896 48.935 42.148965016489605
  endloop
endfacet
facet normal 0.0 1.0 0.0
  outer loop
    vertex 54.40034731626497 48.935 42.148965016489605
    vertex 54.355647443978896 48.935 43.02508251329676
    vertex 54.59926174793802 48.935 42.182489920704164
  endloop
endfacet
facet normal 0.0 1.0 0.0
  outer loop
    vertex 54.59926174793802 48.935 42.182489920704164
    vertex 54.355647443978896 48.935 43.02508251329676
    vertex 54.85181602635437 48.935 42.18919490154708
  endloop
endfacet
facet normal 0.0 1.0 0.0
  outer loop
    vertex 54.85181602635437 48.935 42.18919490154708
    vertex 54.355647443978896 48.935 43.02508251329676
    vertex 56.16152228433649 48.935 42.30988455671949
  endloop
endfacet
facet normal 0.0 1.0 0.0
  outer loop
    vertex 56.16152228433649 48.935 42.30988455671949
    vertex 54.355647443978896 48.935 43.02508251329676
    vertex 55.730727265179404 48.935 42.656867315340186
  endloop
endfacet
facet normal 0.0 1.0 0.0
  outer loop
    vertex 55.730727265179404 48.935 42.656867315340186
    vertex 54.355647443978896 48.935 43.02508251329676
    vertex 55.35915957680137 48.935 42.88427791559561
  endloop
endfacet
facet normal 0.0 1.0 0.0
  outer loop
    vertex 55.35915957680137 48.935 42.88427791559561
    vertex 54.355647443978896 48.935 43.02508251329676
    vertex 55.022234289445045 48.935 43.009996306400204
  endloop
endfacet
facet normal 0.0 1.0 0.0
  outer loop
    vertex 55.022234289445045 48.935 43.009996306400204
    vertex 54.355647443978896 48.935 43.02508251329676
    vertex 54.69536647335308 48.935 43.051902436668406
  endloop
endfacet
facet normal 0.0 1.0 0.0
  outer loop
    vertex 54.69536647335308 48.935 43.051902436668406
    vertex 54.355647443978896 48.935 43.02508251329676
    vertex 54.50092202890865 48.935 43.045197455825495
  endloop
endfacet
facet normal 0.0 1.0 0.0
  outer loop
    vertex 56.16152228433649 48.935 41.60362657459944
    vertex 57.00187988331478 48.935 38.058926702313364
    vertex 56.16152228433649 48.935 38.058926702313364
  endloop
endfacet
facet normal 0.0 1.0 0.0
  outer loop
    vertex 57.00187988331478 48.935 38.058926702313364
    vertex 56.16152228433649 48.935 41.60362657459944
    vertex 57.00187988331478 48.935 43.051902436668406
  endloop
endfacet
facet normal 0.0 1.0 0.0
  outer loop
    vertex 57.00187988331478 48.935 43.051902436668406
    vertex 56.16152228433649 48.935 41.60362657459944
    vertex 55.85309316556254 48.935 41.858415846630095
  endloop
endfacet
facet normal 0.0 1.0 0.0
  outer loop
    vertex 57.00187988331478 48.935 43.051902436668406
    vertex 55.85309316556254 48.935 41.858415846630095
    vertex 56.16152228433649 48.935 42.30988455671949
  endloop
endfacet
facet normal 0.0 1.0 0.0
  outer loop
    vertex 56.16152228433649 48.935 42.30988455671949
    vertex 55.85309316556254 48.935 41.858415846630095
    vertex 55.52678409787416 48.935 42.041685323003016
  endloop
endfacet
facet normal 0.0 1.0 0.0
  outer loop
    vertex 56.16152228433649 48.935 42.30988455671949
    vertex 55.52678409787416 48.935 42.041685323003016
    vertex 55.190417558921425 48.935 42.15231750691107
  endloop
endfacet
facet normal 0.0 1.0 0.0
  outer loop
    vertex 56.16152228433649 48.935 42.30988455671949
    vertex 55.190417558921425 48.935 42.15231750691107
    vertex 54.85181602635437 48.935 42.18919490154708
  endloop
endfacet
facet normal 0.0 1.0 0.0
  outer loop
    vertex 57.00187988331478 48.935 43.051902436668406
    vertex 56.16152228433649 48.935 42.30988455671949
    vertex 56.16152228433649 48.935 43.051902436668406
  endloop
endfacet
facet normal 0.0 1.0 0.0
  outer loop
    vertex 75.97781379136076 48.935 37.96701258992511
    vertex 76.78324961511555 48.935 37.94550077638744
    vertex 76.40609444270174 48.935 37.92035709822652
  endloop
endfacet
facet normal 0.0 1.0 0.0
  outer loop
    vertex 76.78324961511555 48.935 37.94550077638744
    vertex 75.97781379136076 48.935 37.96701258992511
    vertex 77.10117745675028 48.935 38.020931810870195
  endloop
endfacet
facet normal 0.0 1.0 0.0
  outer loop
    vertex 77.10117745675028 48.935 38.020931810870195
    vertex 75.97781379136076 48.935 37.96701258992511
    vertex 75.58696928305935 48.935 38.106979065020894
  endloop
endfacet
facet normal 0.0 1.0 0.0
  outer loop
    vertex 77.10117745675028 48.935 38.020931810870195
    vertex 75.58696928305935 48.935 38.106979065020894
    vertex 77.67110082839778 48.935 38.29136603820097
  endloop
endfacet
facet normal 0.0 1.0 0.0
  outer loop
    vertex 77.67110082839778 48.935 38.29136603820097
    vertex 75.58696928305935 48.935 38.106979065020894
    vertex 75.23356091779753 48.935 38.34025652351387
  endloop
endfacet
facet normal 0.0 1.0 0.0
  outer loop
    vertex 74.9175886955753 48.935 38.66684496540404
    vertex 76.26249610298272 48.935 38.70428110844363
    vertex 76.56701398293164 48.935 38.67578493986126
  endloop
endfacet
facet normal 0.0 1.0 0.0
  outer loop
    vertex 76.26249610298272 48.935 38.70428110844363
    vertex 74.9175886955753 48.935 38.66684496540404
    vertex 74.6574913137107 48.935 39.06998193858412
  endloop
endfacet
facet normal 0.0 1.0 0.0
  outer loop
    vertex 76.26249610298272 48.935 38.70428110844363
    vertex 74.6574913137107 48.935 39.06998193858412
    vertex 75.99262062405552 48.935 38.78976961419075
  endloop
endfacet
facet normal 0.0 1.0 0.0
  outer loop
    vertex 75.99262062405552 48.935 38.78976961419075
    vertex 74.6574913137107 48.935 39.06998193858412
    vertex 75.75738754615003 48.935 38.93225045710263
  endloop
endfacet
facet normal 0.0 1.0 0.0
  outer loop
    vertex 75.75738754615003 48.935 38.93225045710263
    vertex 74.6574913137107 48.935 39.06998193858412
    vertex 75.55679686926624 48.935 39.13172363717926
  endloop
endfacet
facet normal 0.0 1.0 0.0
  outer loop
    vertex 75.55679686926624 48.935 39.13172363717926
    vertex 74.6574913137107 48.935 39.06998193858412
    vertex 74.47170746952168 48.935 39.532904990946825
  endloop
endfacet
facet normal 0.0 1.0 0.0
  outer loop
    vertex 75.55679686926624 48.935 39.13172363717926
    vertex 74.47170746952168 48.935 39.532904990946825
    vertex 75.39643607743994 48.935 39.392659141649254
  endloop
endfacet
facet normal 0.0 1.0 0.0
  outer loop
    vertex 75.39643607743994 48.935 39.392659141649254
    vertex 74.47170746952168 48.935 39.532904990946825
    vertex 75.28189265470687 48.935 39.7195269577412
  endloop
endfacet
facet normal 0.0 1.0 0.0
  outer loop
    vertex 75.28189265470687 48.935 39.7195269577412
    vertex 74.47170746952168 48.935 39.532904990946825
    vertex 74.36023716300826 48.935 40.055614122492166
  endloop
endfacet
facet normal 0.0 1.0 0.0
  outer loop
    vertex 75.28189265470687 48.935 39.7195269577412
    vertex 74.36023716300826 48.935 40.055614122492166
    vertex 75.21316660106702 48.935 40.11232708545512
  endloop
endfacet
facet normal 0.0 1.0 0.0
  outer loop
    vertex 75.21316660106702 48.935 40.11232708545512
    vertex 74.36023716300826 48.935 40.055614122492166
    vertex 74.32308039417046 48.935 40.63810933322013
  endloop
endfacet
facet normal 0.0 1.0 0.0
  outer loop
    vertex 75.21316660106702 48.935 40.11232708545512
    vertex 74.32308039417046 48.935 40.63810933322013
    vertex 75.1902579165204 48.935 40.57105952479101
  endloop
endfacet
facet normal 0.0 1.0 0.0
  outer loop
    vertex 75.1902579165204 48.935 40.57105952479101
    vertex 74.32308039417046 48.935 40.63810933322013
    vertex 75.25842522175667 48.935 41.357218528622425
  endloop
endfacet
facet normal 0.0 1.0 0.0
  outer loop
    vertex 75.25842522175667 48.935 41.357218528622425
    vertex 74.32308039417046 48.935 40.63810933322013
    vertex 74.35353218216535 48.935 41.20454052734529
  endloop
endfacet
facet normal 0.0 1.0 0.0
  outer loop
    vertex 75.25842522175667 48.935 41.357218528622425
    vertex 74.35353218216535 48.935 41.20454052734529
    vertex 74.44488754615003 48.935 41.70587753245385
  endloop
endfacet
facet normal 0.0 1.0 0.0
  outer loop
    vertex 75.25842522175667 48.935 41.357218528622425
    vertex 74.44488754615003 48.935 41.70587753245385
    vertex 75.46292713746547 48.935 41.927700648673515
  endloop
endfacet
facet normal 0.0 1.0 0.0
  outer loop
    vertex 75.46292713746547 48.935 41.927700648673515
    vertex 74.44488754615003 48.935 41.70587753245385
    vertex 74.59714648612449 48.935 42.1421203485458
  endloop
endfacet
facet normal 0.0 1.0 0.0
  outer loop
    vertex 75.46292713746547 48.935 41.927700648673515
    vertex 74.59714648612449 48.935 42.1421203485458
    vertex 75.61993543887033 48.935 42.130107257868914
  endloop
endfacet
facet normal 0.0 1.0 0.0
  outer loop
    vertex 75.61993543887033 48.935 42.130107257868914
    vertex 74.59714648612449 48.935 42.1421203485458
    vertex 75.81829112213981 48.935 42.274683407294205
  endloop
endfacet
facet normal 0.0 1.0 0.0
  outer loop
    vertex 75.81829112213981 48.935 42.274683407294205
    vertex 74.59714648612449 48.935 42.1421203485458
    vertex 74.81030900208873 48.935 42.51326897562115
  endloop
endfacet
facet normal 0.0 1.0 0.0
  outer loop
    vertex 75.81829112213981 48.935 42.274683407294205
    vertex 74.81030900208873 48.935 42.51326897562115
    vertex 76.05799418727392 48.935 42.36142909694938
  endloop
endfacet
facet normal 0.0 1.0 0.0
  outer loop
    vertex 76.05799418727392 48.935 42.36142909694938
    vertex 74.81030900208873 48.935 42.51326897562115
    vertex 76.33904463427262 48.935 42.39034432683444
  endloop
endfacet
facet normal 0.0 1.0 0.0
  outer loop
    vertex 75.0762732421909 48.935 42.809545316617324
    vertex 77.67110082839778 48.935 42.52891393092128
    vertex 74.81030900208873 48.935 42.51326897562115
  endloop
endfacet
facet normal 0.0 1.0 0.0
  outer loop
    vertex 77.67110082839778 48.935 42.52891393092128
    vertex 75.0762732421909 48.935 42.809545316617324
    vertex 77.3403217734808 48.935 42.790408183794845
  endloop
endfacet
facet normal 0.0 1.0 0.0
  outer loop
    vertex 77.3403217734808 48.935 42.790408183794845
    vertex 75.0762732421909 48.935 42.809545316617324
    vertex 76.98272279519216 48.935 43.002732577153715
  endloop
endfacet
facet normal 0.0 1.0 0.0
  outer loop
    vertex 76.98272279519216 48.935 43.002732577153715
    vertex 75.0762732421909 48.935 42.809545316617324
    vertex 75.38693735457915 48.935 43.021171274471726
  endloop
endfacet
facet normal 0.0 1.0 0.0
  outer loop
    vertex 76.98272279519216 48.935 43.002732577153715
    vertex 75.38693735457915 48.935 43.021171274471726
    vertex 76.58712892546038 48.935 43.14353717485486
  endloop
endfacet
facet normal 0.0 1.0 0.0
  outer loop
    vertex 76.58712892546038 48.935 43.14353717485486
    vertex 75.38693735457915 48.935 43.021171274471726
    vertex 75.74230133925347 48.935 43.14814684918437
  endloop
endfacet
facet normal 0.0 1.0 0.0
  outer loop
    vertex 76.58712892546038 48.935 43.14353717485486
    vertex 75.74230133925347 48.935 43.14814684918437
    vertex 76.14236519621389 48.935 43.19047204075525
  endloop
endfacet
facet normal 0.0 1.0 0.0
  outer loop
    vertex 77.67110082839778 48.935 38.29136603820097
    vertex 78.51145842737608 48.935 38.058926702313364
    vertex 77.72474067514109 48.935 38.058926702313364
  endloop
endfacet
facet normal 0.0 1.0 0.0
  outer loop
    vertex 78.51145842737608 48.935 38.058926702313364
    vertex 77.67110082839778 48.935 38.29136603820097
    vertex 78.51145842737608 48.935 45.01422683002728
  endloop
endfacet
facet normal 0.0 1.0 0.0
  outer loop
    vertex 78.51145842737608 48.935 45.01422683002728
    vertex 77.67110082839778 48.935 38.29136603820097
    vertex 77.67110082839778 48.935 38.961864122492166
  endloop
endfacet
facet normal 0.0 1.0 0.0
  outer loop
    vertex 77.67110082839778 48.935 38.961864122492166
    vertex 77.67110082839778 48.935 38.29136603820097
    vertex 77.1078824375932 48.935 38.74059975467607
  endloop
endfacet
facet normal 0.0 1.0 0.0
  outer loop
    vertex 77.1078824375932 48.935 38.74059975467607
    vertex 77.67110082839778 48.935 38.29136603820097
    vertex 75.23356091779753 48.935 38.34025652351387
  endloop
endfacet
facet normal 0.0 1.0 0.0
  outer loop
    vertex 77.1078824375932 48.935 38.74059975467607
    vertex 75.23356091779753 48.935 38.34025652351387
    vertex 76.56701398293164 48.935 38.67578493986126
  endloop
endfacet
facet normal 0.0 1.0 0.0
  outer loop
    vertex 76.56701398293164 48.935 38.67578493986126
    vertex 75.23356091779753 48.935 38.34025652351387
    vertex 74.9175886955753 48.935 38.66684496540404
  endloop
endfacet
facet normal 0.0 1.0 0.0
  outer loop
    vertex 78.51145842737608 48.935 45.01422683002728
    vertex 77.67110082839778 48.935 38.961864122492166
    vertex 77.67110082839778 48.935 41.82265594880123
  endloop
endfacet
facet normal 0.0 1.0 0.0
  outer loop
    vertex 78.51145842737608 48.935 45.01422683002728
    vertex 77.67110082839778 48.935 41.82265594880123
    vertex 77.67110082839778 48.935 42.52891393092128
  endloop
endfacet
facet normal 0.0 1.0 0.0
  outer loop
    vertex 77.67110082839778 48.935 42.52891393092128
    vertex 77.67110082839778 48.935 41.82265594880123
    vertex 77.36881794206317 48.935 42.04727280703878
  endloop
endfacet
facet normal 0.0 1.0 0.0
  outer loop
    vertex 77.67110082839778 48.935 42.52891393092128
    vertex 77.36881794206317 48.935 42.04727280703878
    vertex 77.03412764832116 48.935 42.22942478660455
  endloop
endfacet
facet normal 0.0 1.0 0.0
  outer loop
    vertex 77.67110082839778 48.935 42.52891393092128
    vertex 77.03412764832116 48.935 42.22942478660455
    vertex 76.68490989608617 48.935 42.35011444177696
  endloop
endfacet
facet normal 0.0 1.0 0.0
  outer loop
    vertex 77.67110082839778 48.935 42.52891393092128
    vertex 76.68490989608617 48.935 42.35011444177696
    vertex 76.33904463427262 48.935 42.39034432683444
  endloop
endfacet
facet normal 0.0 1.0 0.0
  outer loop
    vertex 77.67110082839778 48.935 42.52891393092128
    vertex 76.33904463427262 48.935 42.39034432683444
    vertex 74.81030900208873 48.935 42.51326897562115
  endloop
endfacet
facet normal 0.0 1.0 0.0
  outer loop
    vertex 78.51145842737608 48.935 45.01422683002728
    vertex 77.67110082839778 48.935 42.52891393092128
    vertex 77.67110082839778 48.935 45.01422683002728
  endloop
endfacet
facet normal 0.0 1.0 0.0
  outer loop
    vertex 69.8262732421909 48.935 41.47399694496981
    vertex 70.66216085394058 48.935 38.058926702313364
    vertex 69.8262732421909 48.935 38.058926702313364
  endloop
endfacet
facet normal 0.0 1.0 0.0
  outer loop
    vertex 70.66216085394058 48.935 38.058926702313364
    vertex 69.8262732421909 48.935 41.47399694496981
    vertex 70.66216085394058 48.935 38.59085518251771
  endloop
endfacet
facet normal 0.0 1.0 0.0
  outer loop
    vertex 70.66216085394058 48.935 38.59085518251771
    vertex 69.8262732421909 48.935 41.47399694496981
    vertex 70.66216085394058 48.935 39.28817319018054
  endloop
endfacet
facet normal 0.0 1.0 0.0
  outer loop
    vertex 70.66216085394058 48.935 38.59085518251771
    vertex 70.66216085394058 48.935 39.28817319018054
    vertex 71.26560912980264 48.935 38.86575939707709
  endloop
endfacet
facet normal 0.0 1.0 0.0
  outer loop
    vertex 70.66216085394058 48.935 38.59085518251771
    vertex 71.26560912980264 48.935 38.86575939707709
    vertex 71.60644565598399 48.935 38.736688515851036
  endloop
endfacet
facet normal 0.0 1.0 0.0
  outer loop
    vertex 70.66216085394058 48.935 38.59085518251771
    vertex 71.60644565598399 48.935 38.736688515851036
    vertex 71.98527707360853 48.935 38.693664888775686
  endloop
endfacet
facet normal 0.0 1.0 0.0
  outer loop
    vertex 70.66216085394058 48.935 38.59085518251771
    vertex 71.98527707360853 48.935 38.693664888775686
    vertex 73.53859763554976 48.935 38.59253142772843
  endloop
endfacet
facet normal 0.0 1.0 0.0
  outer loop
    vertex 70.66216085394058 48.935 39.28817319018054
    vertex 69.8262732421909 48.935 41.47399694496981
    vertex 70.66216085394058 48.935 40.67386923104899
  endloop
endfacet
facet normal 0.0 1.0 0.0
  outer loop
    vertex 70.66216085394058 48.935 40.67386923104899
    vertex 69.8262732421909 48.935 41.47399694496981
    vertex 73.2983358220121 48.935 40.716892858124346
  endloop
endfacet
facet normal 0.0 1.0 0.0
  outer loop
    vertex 73.2983358220121 48.935 40.716892858124346
    vertex 69.8262732421909 48.935 41.47399694496981
    vertex 72.88821449378732 48.935 40.96888838813712
  endloop
endfacet
facet normal 0.0 1.0 0.0
  outer loop
    vertex 72.88821449378732 48.935 40.96888838813712
    vertex 69.8262732421909 48.935 41.47399694496981
    vertex 70.66216085394058 48.935 41.344367315340186
  endloop
endfacet
facet normal 0.0 1.0 0.0
  outer loop
    vertex 72.88821449378732 48.935 40.96888838813712
    vertex 70.66216085394058 48.935 41.344367315340186
    vertex 72.430040802855 48.935 41.131484173577725
  endloop
endfacet
facet normal 0.0 1.0 0.0
  outer loop
    vertex 72.430040802855 48.935 41.131484173577725
    vertex 70.66216085394058 48.935 41.344367315340186
    vertex 71.89587732903635 48.935 41.23485262823929
  endloop
endfacet
facet normal 0.0 1.0 0.0
  outer loop
    vertex 70.66216085394058 48.935 41.344367315340186
    vertex 69.8262732421909 48.935 41.47399694496981
    vertex 70.66216085394058 48.935 41.50528685557006
  endloop
endfacet
facet normal 0.0 1.0 0.0
  outer loop
    vertex 70.66216085394058 48.935 41.50528685557006
    vertex 69.8262732421909 48.935 41.47399694496981
    vertex 69.85979814640545 48.935 41.90758570614478
  endloop
endfacet
facet normal 0.0 1.0 0.0
  outer loop
    vertex 70.66216085394058 48.935 41.50528685557006
    vertex 69.85979814640545 48.935 41.90758570614478
    vertex 70.68451079008362 48.935 41.77180984407581
  endloop
endfacet
facet normal 0.0 1.0 0.0
  outer loop
    vertex 70.68451079008362 48.935 41.77180984407581
    vertex 69.85979814640545 48.935 41.90758570614478
    vertex 70.75156059851274 48.935 41.98134049541681
  endloop
endfacet
facet normal 0.0 1.0 0.0
  outer loop
    vertex 70.75156059851274 48.935 41.98134049541681
    vertex 69.85979814640545 48.935 41.90758570614478
    vertex 69.96037285904913 48.935 42.269654671662025
  endloop
endfacet
facet normal 0.0 1.0 0.0
  outer loop
    vertex 70.75156059851274 48.935 41.98134049541681
    vertex 69.96037285904913 48.935 42.269654671662025
    vertex 70.85884029199931 48.935 42.141701287243116
  endloop
endfacet
facet normal 0.0 1.0 0.0
  outer loop
    vertex 70.85884029199931 48.935 42.141701287243116
    vertex 69.96037285904913 48.935 42.269654671662025
    vertex 71.00187988331477 48.935 42.260714697204804
  endloop
endfacet
facet normal 0.0 1.0 0.0
  outer loop
    vertex 71.00187988331477 48.935 42.260714697204804
    vertex 69.96037285904913 48.935 42.269654671662025
    vertex 71.39523875943227 48.935 42.39704930767734
  endloop
endfacet
facet normal 0.0 1.0 0.0
  outer loop
    vertex 71.39523875943227 48.935 42.39704930767734
    vertex 69.96037285904913 48.935 42.269654671662025
    vertex 70.12911487692908 48.935 42.5657913255573
  endloop
endfacet
facet normal 0.0 1.0 0.0
  outer loop
    vertex 71.39523875943227 48.935 42.39704930767734
    vertex 70.12911487692908 48.935 42.5657913255573
    vertex 71.87352739289332 48.935 42.4305742118919
  endloop
endfacet
facet normal 0.0 1.0 0.0
  outer loop
    vertex 72.55743543887033 48.935 42.343409460934055
    vertex 73.39332305062001 48.935 42.09085518251771
    vertex 73.34415319110532 48.935 42.09085518251771
  endloop
endfacet
facet normal 0.0 1.0 0.0
  outer loop
    vertex 73.39332305062001 48.935 42.09085518251771
    vertex 72.55743543887033 48.935 42.343409460934055
    vertex 73.39332305062001 48.935 42.94462274318182
  endloop
endfacet
facet normal 0.0 1.0 0.0
  outer loop
    vertex 73.39332305062001 48.935 42.94462274318182
    vertex 72.55743543887033 48.935 42.343409460934055
    vertex 71.87352739289332 48.935 42.4305742118919
  endloop
endfacet
facet normal 0.0 1.0 0.0
  outer loop
    vertex 73.39332305062001 48.935 42.94462274318182
    vertex 71.87352739289332 48.935 42.4305742118919
    vertex 70.12911487692908 48.935 42.5657913255573
  endloop
endfacet
facet normal 0.0 1.0 0.0
  outer loop
    vertex 73.39332305062001 48.935 42.94462274318182
    vertex 70.12911487692908 48.935 42.5657913255573
    vertex 70.36714169685246 48.935 42.80158315186636
  endloop
endfacet
facet normal 0.0 1.0 0.0
  outer loop
    vertex 73.39332305062001 48.935 42.94462274318182
    vertex 70.36714169685246 48.935 42.80158315186636
    vertex 70.66663084116918 48.935 42.979265144203524
  endloop
endfacet
facet normal 0.0 1.0 0.0
  outer loop
    vertex 73.39332305062001 48.935 42.94462274318182
    vertex 70.66663084116918 48.935 42.979265144203524
    vertex 72.72729495355743 48.935 43.09213232172588
  endloop
endfacet
facet normal 0.0 1.0 0.0
  outer loop
    vertex 72.72729495355743 48.935 43.09213232172588
    vertex 70.66663084116918 48.935 42.979265144203524
    vertex 71.00187988331477 48.935 43.09213232172588
  endloop
endfacet
facet normal 0.0 1.0 0.0
  outer loop
    vertex 72.72729495355743 48.935 43.09213232172588
    vertex 71.00187988331477 48.935 43.09213232172588
    vertex 71.86905740566472 48.935 43.172592091840826
  endloop
endfacet
facet normal 0.0 1.0 0.0
  outer loop
    vertex 71.98527707360853 48.935 38.693664888775686
    vertex 73.67940223325091 48.935 38.870229384305695
    vertex 73.53859763554976 48.935 38.59253142772843
  endloop
endfacet
facet normal 0.0 1.0 0.0
  outer loop
    vertex 73.67940223325091 48.935 38.870229384305695
    vertex 71.98527707360853 48.935 38.693664888775686
    vertex 72.39428090502614 48.935 38.748422232326135
  endloop
endfacet
facet normal 0.0 1.0 0.0
  outer loop
    vertex 73.67940223325091 48.935 38.870229384305695
    vertex 72.39428090502614 48.935 38.748422232326135
    vertex 72.69153505572858 48.935 38.912694262977475
  endloop
endfacet
facet normal 0.0 1.0 0.0
  outer loop
    vertex 73.67940223325091 48.935 38.870229384305695
    vertex 72.69153505572858 48.935 38.912694262977475
    vertex 73.76991947463023 48.935 39.18033474829038
  endloop
endfacet
facet normal 0.0 1.0 0.0
  outer loop
    vertex 73.76991947463023 48.935 39.18033474829038
    vertex 72.69153505572858 48.935 38.912694262977475
    vertex 72.87256953848718 48.935 39.18424598711541
  endloop
endfacet
facet normal 0.0 1.0 0.0
  outer loop
    vertex 73.76991947463023 48.935 39.18033474829038
    vertex 72.87256953848718 48.935 39.18424598711541
    vertex 73.80009188842332 48.935 39.50720256438233
  endloop
endfacet
facet normal 0.0 1.0 0.0
  outer loop
    vertex 73.80009188842332 48.935 39.50720256438233
    vertex 72.87256953848718 48.935 39.18424598711541
    vertex 72.9329143660734 48.935 39.56084241112562
  endloop
endfacet
facet normal 0.0 1.0 0.0
  outer loop
    vertex 73.80009188842332 48.935 39.50720256438233
    vertex 72.9329143660734 48.935 39.56084241112562
    vertex 73.74533454487289 48.935 39.987167443054105
  endloop
endfacet
facet normal 0.0 1.0 0.0
  outer loop
    vertex 73.74533454487289 48.935 39.987167443054105
    vertex 72.9329143660734 48.935 39.56084241112562
    vertex 72.87815702252296 48.935 39.8988851952891
  endloop
endfacet
facet normal 0.0 1.0 0.0
  outer loop
    vertex 73.74533454487289 48.935 39.987167443054105
    vertex 72.87815702252296 48.935 39.8988851952891
    vertex 72.71388499187161 48.935 40.15311571891617
  endloop
endfacet
facet normal 0.0 1.0 0.0
  outer loop
    vertex 73.74533454487289 48.935 39.987167443054105
    vertex 72.71388499187161 48.935 40.15311571891617
    vertex 73.58106251422154 48.935 40.39002504203239
  endloop
endfacet
facet normal 0.0 1.0 0.0
  outer loop
    vertex 73.58106251422154 48.935 40.39002504203239
    vertex 72.71388499187161 48.935 40.15311571891617
    vertex 72.46580070068387 48.935 40.33806144049982
  endloop
endfacet
facet normal 0.0 1.0 0.0
  outer loop
    vertex 73.58106251422154 48.935 40.39002504203239
    vertex 72.46580070068387 48.935 40.33806144049982
    vertex 72.15960657552422 48.935 40.46824981853303
  endloop
endfacet
facet normal 0.0 1.0 0.0
  outer loop
    vertex 73.58106251422154 48.935 40.39002504203239
    vertex 72.15960657552422 48.935 40.46824981853303
    vertex 73.2983358220121 48.935 40.716892858124346
  endloop
endfacet
facet normal 0.0 1.0 0.0
  outer loop
    vertex 73.2983358220121 48.935 40.716892858124346
    vertex 72.15960657552422 48.935 40.46824981853303
    vertex 71.41982368918961 48.935 40.60011444177697
  endloop
endfacet
facet normal 0.0 1.0 0.0
  outer loop
    vertex 73.2983358220121 48.935 40.716892858124346
    vertex 71.41982368918961 48.935 40.60011444177697
    vertex 70.66216085394058 48.935 40.67386923104899
  endloop
endfacet
facet normal 0.0 1.0 0.0
  outer loop
    vertex 71.70143288459192 48.935 37.982936919427026
    vertex 72.58537285904913 48.935 37.949412015212474
    vertex 72.28476621792525 48.935 37.92035709822652
  endloop
endfacet
facet normal 0.0 1.0 0.0
  outer loop
    vertex 72.58537285904913 48.935 37.949412015212474
    vertex 71.70143288459192 48.935 37.982936919427026
    vertex 72.87033454487289 48.935 38.03657676617032
  endloop
endfacet
facet normal 0.0 1.0 0.0
  outer loop
    vertex 72.87033454487289 48.935 38.03657676617032
    vertex 71.70143288459192 48.935 37.982936919427026
    vertex 71.27007911703126 48.935 38.16173640857134
  endloop
endfacet
facet normal 0.0 1.0 0.0
  outer loop
    vertex 72.87033454487289 48.935 38.03657676617032
    vertex 71.27007911703126 48.935 38.16173640857134
    vertex 73.1307113009393 48.935 38.17626386706432
  endloop
endfacet
facet normal 0.0 1.0 0.0
  outer loop
    vertex 73.1307113009393 48.935 38.17626386706432
    vertex 71.27007911703126 48.935 38.16173640857134
    vertex 70.93706506849996 48.935 38.37853078915883
  endloop
endfacet
facet normal 0.0 1.0 0.0
  outer loop
    vertex 73.1307113009393 48.935 38.17626386706432
    vertex 70.93706506849996 48.935 38.37853078915883
    vertex 73.35756315279116 48.935 38.3628858338587
  endloop
endfacet
facet normal 0.0 1.0 0.0
  outer loop
    vertex 73.35756315279116 48.935 38.3628858338587
    vertex 70.93706506849996 48.935 38.37853078915883
    vertex 73.53859763554976 48.935 38.59253142772843
  endloop
endfacet
facet normal 0.0 1.0 0.0
  outer loop
    vertex 73.53859763554976 48.935 38.59253142772843
    vertex 70.93706506849996 48.935 38.37853078915883
    vertex 70.66216085394058 48.935 38.59085518251771
  endloop
endfacet
facet normal 0.0 1.0 0.0
  outer loop
    vertex 39.48623492801465 48.935 37.99858187472716
    vertex 40.26066021537097 48.935 37.98503222594044
    vertex 39.935468644489745 48.935 37.96058698328399
  endloop
endfacet
facet normal 0.0 1.0 0.0
  outer loop
    vertex 40.26066021537097 48.935 37.98503222594044
    vertex 39.48623492801465 48.935 37.99858187472716
    vertex 40.54785689480902 48.935 38.05836795390979
  endloop
endfacet
facet normal 0.0 1.0 0.0
  outer loop
    vertex 40.54785689480902 48.935 38.05836795390979
    vertex 39.48623492801465 48.935 37.99858187472716
    vertex 39.005711300939296 48.935 38.103626574599446
  endloop
endfacet
facet normal 0.0 1.0 0.0
  outer loop
    vertex 40.54785689480902 48.935 38.05836795390979
    vertex 39.005711300939296 48.935 38.103626574599446
    vertex 40.797058682803915 48.935 38.180594167192034
  endloop
endfacet
facet normal 0.0 1.0 0.0
  outer loop
    vertex 40.797058682803915 48.935 38.180594167192034
    vertex 39.005711300939296 48.935 38.103626574599446
    vertex 39.005711300939296 48.935 38.85905441623418
  endloop
endfacet
facet normal 0.0 1.0 0.0
  outer loop
    vertex 40.797058682803915 48.935 38.180594167192034
    vertex 39.005711300939296 48.935 38.85905441623418
    vertex 39.33202036862768 48.935 38.7584797035905
  endloop
endfacet
facet normal 0.0 1.0 0.0
  outer loop
    vertex 40.797058682803915 48.935 38.180594167192034
    vertex 39.33202036862768 48.935 38.7584797035905
    vertex 41.008265579355644 48.935 38.35171086578718
  endloop
endfacet
facet normal 0.0 1.0 0.0
  outer loop
    vertex 41.008265579355644 48.935 38.35171086578718
    vertex 39.33202036862768 48.935 38.7584797035905
    vertex 39.72984923197378 48.935 38.698134876004296
  endloop
endfacet
facet normal 0.0 1.0 0.0
  outer loop
    vertex 41.008265579355644 48.935 38.35171086578718
    vertex 39.72984923197378 48.935 38.698134876004296
    vertex 41.17644884883202 48.935 38.575629288520254
  endloop
endfacet
facet normal 0.0 1.0 0.0
  outer loop
    vertex 39.33202036862768 48.935 38.7584797035905
    vertex 39.005711300939296 48.935 38.85905441623418
    vertex 39.05488116045398 48.935 38.85905441623418
  endloop
endfacet
facet normal 0.0 1.0 0.0
  outer loop
    vertex 40.55232688203764 48.935 44.486768337051544
    vertex 41.39268448101593 48.935 43.051902436668406
    vertex 40.55232688203764 48.935 43.051902436668406
  endloop
endfacet
facet normal 0.0 1.0 0.0
  outer loop
    vertex 41.39268448101593 48.935 43.051902436668406
    vertex 40.55232688203764 48.935 44.486768337051544
    vertex 41.39268448101593 48.935 44.486768337051544
  endloop
endfacet
facet normal 0.0 1.0 0.0
  outer loop
    vertex 39.005711300939296 48.935 43.051902436668406
    vertex 40.55232688203764 48.935 42.35458442900558
    vertex 39.005711300939296 48.935 42.35458442900558
  endloop
endfacet
facet normal 0.0 1.0 0.0
  outer loop
    vertex 40.55232688203764 48.935 42.35458442900558
    vertex 39.005711300939296 48.935 43.051902436668406
    vertex 41.39268448101593 48.935 42.35458442900558
  endloop
endfacet
facet normal 0.0 1.0 0.0
  outer loop
    vertex 41.39268448101593 48.935 42.35458442900558
    vertex 39.005711300939296 48.935 43.051902436668406
    vertex 41.96037285904913 48.935 42.35458442900558
  endloop
endfacet
facet normal 0.0 1.0 0.0
  outer loop
    vertex 41.96037285904913 48.935 42.35458442900558
    vertex 39.005711300939296 48.935 43.051902436668406
    vertex 41.96037285904913 48.935 43.051902436668406
  endloop
endfacet
facet normal 0.0 1.0 0.0
  outer loop
    vertex 41.96037285904913 48.935 43.051902436668406
    vertex 39.005711300939296 48.935 43.051902436668406
    vertex 40.55232688203764 48.935 43.051902436668406
  endloop
endfacet
facet normal 0.0 1.0 0.0
  outer loop
    vertex 41.96037285904913 48.935 43.051902436668406
    vertex 40.55232688203764 48.935 43.051902436668406
    vertex 41.39268448101593 48.935 43.051902436668406
  endloop
endfacet
facet normal 0.0 1.0 0.0
  outer loop
    vertex 39.72984923197378 48.935 38.698134876004296
    vertex 41.29657975560085 48.935 38.8562606742163
    vertex 41.17644884883202 48.935 38.575629288520254
  endloop
endfacet
facet normal 0.0 1.0 0.0
  outer loop
    vertex 41.29657975560085 48.935 38.8562606742163
    vertex 39.72984923197378 48.935 38.698134876004296
    vertex 40.190257916520395 48.935 38.77635965250493
  endloop
endfacet
facet normal 0.0 1.0 0.0
  outer loop
    vertex 41.29657975560085 48.935 38.8562606742163
    vertex 40.190257916520395 48.935 38.77635965250493
    vertex 40.3366499982573 48.935 38.87414062313073
  endloop
endfacet
facet normal 0.0 1.0 0.0
  outer loop
    vertex 41.29657975560085 48.935 38.8562606742163
    vertex 40.3366499982573 48.935 38.87414062313073
    vertex 41.368658299662165 48.935 39.1936050228753
  endloop
endfacet
facet normal 0.0 1.0 0.0
  outer loop
    vertex 41.368658299662165 48.935 39.1936050228753
    vertex 40.3366499982573 48.935 38.87414062313073
    vertex 40.43610721409384 48.935 39.01103398200685
  endloop
endfacet
facet normal 0.0 1.0 0.0
  outer loop
    vertex 41.368658299662165 48.935 39.1936050228753
    vertex 40.43610721409384 48.935 39.01103398200685
    vertex 40.53891692035181 48.935 39.395452883667126
  endloop
endfacet
facet normal 0.0 1.0 0.0
  outer loop
    vertex 41.368658299662165 48.935 39.1936050228753
    vertex 40.53891692035181 48.935 39.395452883667126
    vertex 41.39268448101593 48.935 39.587662334497274
  endloop
endfacet
facet normal 0.0 1.0 0.0
  outer loop
    vertex 41.39268448101593 48.935 39.587662334497274
    vertex 40.53891692035181 48.935 39.395452883667126
    vertex 40.55232688203764 48.935 39.98102121061477
  endloop
endfacet
facet normal 0.0 1.0 0.0
  outer loop
    vertex 41.39268448101593 48.935 39.587662334497274
    vertex 40.55232688203764 48.935 39.98102121061477
    vertex 41.39268448101593 48.935 42.35458442900558
  endloop
endfacet
facet normal 0.0 1.0 0.0
  outer loop
    vertex 41.39268448101593 48.935 42.35458442900558
    vertex 40.55232688203764 48.935 39.98102121061477
    vertex 40.55232688203764 48.935 42.35458442900558
  endloop
endfacet
facet normal 0.0 1.0 0.0
  outer loop
    vertex 51.450155745383746 48.935 38.77859464611924
    vertex 50.19478776964938 48.935 38.948733535008124
    vertex 51.67114073899804 48.935 39.13060614037211
  endloop
endfacet
facet normal 0.0 1.0 0.0
  outer loop
    vertex 50.19478776964938 48.935 38.948733535008124
    vertex 51.450155745383746 48.935 38.77859464611924
    vertex 49.9035401642854 48.935 38.92163423743469
  endloop
endfacet
facet normal 0.0 1.0 0.0
  outer loop
    vertex 51.67114073899804 48.935 39.13060614037211
    vertex 50.19478776964938 48.935 38.948733535008124
    vertex 50.44273237373623 48.935 39.03003142772843
  endloop
endfacet
facet normal 0.0 1.0 0.0
  outer loop
    vertex 51.67114073899804 48.935 39.13060614037211
    vertex 50.44273237373623 48.935 39.03003142772843
    vertex 50.647373976545936 48.935 39.16552791559561
  endloop
endfacet
facet normal 0.0 1.0 0.0
  outer loop
    vertex 51.67114073899804 48.935 39.13060614037211
    vertex 50.647373976545936 48.935 39.16552791559561
    vertex 51.828987163008264 48.935 39.551902436668406
  endloop
endfacet
facet normal 0.0 1.0 0.0
  outer loop
    vertex 51.828987163008264 48.935 39.551902436668406
    vertex 50.647373976545936 48.935 39.16552791559561
    vertex 50.808712578078506 48.935 39.35522299860966
  endloop
endfacet
facet normal 0.0 1.0 0.0
  outer loop
    vertex 51.828987163008264 48.935 39.551902436668406
    vertex 50.808712578078506 48.935 39.35522299860966
    vertex 51.018243229419504 48.935 39.88826897562115
  endloop
endfacet
facet normal 0.0 1.0 0.0
  outer loop
    vertex 51.828987163008264 48.935 39.551902436668406
    vertex 51.018243229419504 48.935 39.88826897562115
    vertex 51.92369501741439 48.935 40.042483535008124
  endloop
endfacet
facet normal 0.0 1.0 0.0
  outer loop
    vertex 51.92369501741439 48.935 40.042483535008124
    vertex 51.018243229419504 48.935 39.88826897562115
    vertex 51.088086779866494 48.935 40.6202293843057
  endloop
endfacet
facet normal 0.0 1.0 0.0
  outer loop
    vertex 51.92369501741439 48.935 40.042483535008124
    vertex 51.088086779866494 48.935 40.6202293843057
    vertex 51.955264302216435 48.935 40.60234943539127
  endloop
endfacet
facet normal 0.0 1.0 0.0
  outer loop
    vertex 51.955264302216435 48.935 40.60234943539127
    vertex 51.088086779866494 48.935 40.6202293843057
    vertex 51.9116819267375 48.935 41.18847651074248
  endloop
endfacet
facet normal 0.0 1.0 0.0
  outer loop
    vertex 51.9116819267375 48.935 41.18847651074248
    vertex 51.088086779866494 48.935 40.6202293843057
    vertex 50.99645204168004 48.935 41.394654671662025
  endloop
endfacet
facet normal 0.0 1.0 0.0
  outer loop
    vertex 51.9116819267375 48.935 41.18847651074248
    vertex 50.99645204168004 48.935 41.394654671662025
    vertex 51.78093480030073 48.935 41.70420128724312
  endloop
endfacet
facet normal 0.0 1.0 0.0
  outer loop
    vertex 51.78093480030073 48.935 41.70420128724312
    vertex 50.99645204168004 48.935 41.394654671662025
    vertex 50.88190861894696 48.935 41.70559815825206
  endloop
endfacet
facet normal 0.0 1.0 0.0
  outer loop
    vertex 51.78093480030073 48.935 41.70420128724312
    vertex 50.88190861894696 48.935 41.70559815825206
    vertex 51.57643288459192 48.935 42.14840626808603
  endloop
endfacet
facet normal 0.0 1.0 0.0
  outer loop
    vertex 51.57643288459192 48.935 42.14840626808603
    vertex 50.88190861894696 48.935 41.70559815825206
    vertex 50.72154782712065 48.935 41.965695540116684
  endloop
endfacet
facet normal 0.0 1.0 0.0
  outer loop
    vertex 51.57643288459192 48.935 42.14840626808603
    vertex 50.72154782712065 48.935 41.965695540116684
    vertex 50.521236524438656 48.935 42.17103557843086
  endloop
endfacet
facet normal 0.0 1.0 0.0
  outer loop
    vertex 51.57643288459192 48.935 42.14840626808603
    vertex 50.521236524438656 48.935 42.17103557843086
    vertex 51.3115861412969 48.935 42.519973956464064
  endloop
endfacet
facet normal 0.0 1.0 0.0
  outer loop
    vertex 51.3115861412969 48.935 42.519973956464064
    vertex 50.521236524438656 48.935 42.17103557843086
    vertex 50.28684156913854 48.935 42.31770703436956
  endloop
endfacet
facet normal 0.0 1.0 0.0
  outer loop
    vertex 51.3115861412969 48.935 42.519973956464064
    vertex 50.28684156913854 48.935 42.31770703436956
    vertex 50.01836296122027 48.935 42.405709907932774
  endloop
endfacet
facet normal 0.0 1.0 0.0
  outer loop
    vertex 51.3115861412969 48.935 42.519973956464064
    vertex 50.01836296122027 48.935 42.405709907932774
    vertex 49.71580070068387 48.935 42.43504419912051
  endloop
endfacet
facet normal 0.0 1.0 0.0
  outer loop
    vertex 49.64092841460469 48.935 38.1790576090822
    vertex 50.49637222047953 48.935 38.18352759631081
    vertex 50.091279627886934 48.935 38.14385645965691
  endloop
endfacet
facet normal 0.0 1.0 0.0
  outer loop
    vertex 50.49637222047953 48.935 38.18352759631081
    vertex 49.64092841460469 48.935 38.1790576090822
    vertex 49.273271965051684 48.935 38.284661057358065
  endloop
endfacet
facet normal 0.0 1.0 0.0
  outer loop
    vertex 50.49637222047953 48.935 38.18352759631081
    vertex 49.273271965051684 48.935 38.284661057358065
    vertex 50.85788243759319 48.935 38.30254100627249
  endloop
endfacet
facet normal 0.0 1.0 0.0
  outer loop
    vertex 50.85788243759319 48.935 38.30254100627249
    vertex 49.273271965051684 48.935 38.284661057358065
    vertex 48.94361040694185 48.935 38.46401929490595
  endloop
endfacet
facet normal 0.0 1.0 0.0
  outer loop
    vertex 50.85788243759319 48.935 38.30254100627249
    vertex 48.94361040694185 48.935 38.46401929490595
    vertex 51.175810279227925 48.935 38.500896689541975
  endloop
endfacet
facet normal 0.0 1.0 0.0
  outer loop
    vertex 51.175810279227925 48.935 38.500896689541975
    vertex 48.94361040694185 48.935 38.46401929490595
    vertex 48.607243867989105 48.935 38.72048481214733
  endloop
endfacet
facet normal 0.0 1.0 0.0
  outer loop
    vertex 51.175810279227925 48.935 38.500896689541975
    vertex 48.607243867989105 48.935 38.72048481214733
    vertex 51.450155745383746 48.935 38.77859464611924
  endloop
endfacet
facet normal 0.0 1.0 0.0
  outer loop
    vertex 49.481964493787316 48.935 36.20527887345002
    vertex 50.76401270579243 48.935 36.226231938584114
    vertex 50.0152898450006 48.935 36.168122104612216
  endloop
endfacet
facet normal 0.0 1.0 0.0
  outer loop
    vertex 50.76401270579243 48.935 36.226231938584114
    vertex 49.481964493787316 48.935 36.20527887345002
    vertex 49.02183518344249 48.935 36.31674917996342
  endloop
endfacet
facet normal 0.0 1.0 0.0
  outer loop
    vertex 50.76401270579243 48.935 36.226231938584114
    vertex 49.02183518344249 48.935 36.31674917996342
    vertex 51.47697566875539 48.935 36.382681491585394
  endloop
endfacet
facet normal 0.0 1.0 0.0
  outer loop
    vertex 51.47697566875539 48.935 36.382681491585394
    vertex 49.02183518344249 48.935 36.31674917996342
    vertex 48.63490191396612 48.935 36.50253302415244
  endloop
endfacet
facet normal 0.0 1.0 0.0
  outer loop
    vertex 51.47697566875539 48.935 36.382681491585394
    vertex 48.63490191396612 48.935 36.50253302415244
    vertex 50.8064775844642 48.935 37.048709588647974
  endloop
endfacet
facet normal 0.0 1.0 0.0
  outer loop
    vertex 51.47697566875539 48.935 36.382681491585394
    vertex 50.8064775844642 48.935 37.048709588647974
    vertex 51.18195651166726 48.935 37.162694262977475
  endloop
endfacet
facet normal 0.0 1.0 0.0
  outer loop
    vertex 51.47697566875539 48.935 36.382681491585394
    vertex 51.18195651166726 48.935 37.162694262977475
    vertex 51.47697566875539 48.935 37.25879898839254
  endloop
endfacet
facet normal 0.0 1.0 0.0
  outer loop
    vertex 50.8064775844642 48.935 37.048709588647974
    vertex 48.63490191396612 48.935 36.50253302415244
    vertex 50.37735881051784 48.935 36.95483985684721
  endloop
endfacet
facet normal 0.0 1.0 0.0
  outer loop
    vertex 50.37735881051784 48.935 36.95483985684721
    vertex 48.63490191396612 48.935 36.50253302415244
    vertex 48.3211646853582 48.935 36.76263040601707
  endloop
endfacet
facet normal 0.0 1.0 0.0
  outer loop
    vertex 50.37735881051784 48.935 36.95483985684721
    vertex 48.3211646853582 48.935 36.76263040601707
    vertex 49.948240036571484 48.935 36.91907995901835
  endloop
endfacet
facet normal 0.0 1.0 0.0
  outer loop
    vertex 51.47697566875539 48.935 37.25879898839254
    vertex 51.18195651166726 48.935 37.162694262977475
    vertex 51.43227579646931 48.935 37.25879898839254
  endloop
endfacet
facet normal 0.0 1.0 0.0
  outer loop
    vertex 48.3211646853582 48.935 36.76263040601707
    vertex 49.58896481307212 48.935 36.94478238558284
    vertex 49.948240036571484 48.935 36.91907995901835
  endloop
endfacet
facet normal 0.0 1.0 0.0
  outer loop
    vertex 49.58896481307212 48.935 36.94478238558284
    vertex 48.3211646853582 48.935 36.76263040601707
    vertex 48.078667878206225 48.935 37.10207006118948
  endloop
endfacet
facet normal 0.0 1.0 0.0
  outer loop
    vertex 49.58896481307212 48.935 36.94478238558284
    vertex 48.078667878206225 48.935 37.10207006118948
    vertex 49.28891692035182 48.935 37.021889665276326
  endloop
endfacet
facet normal 0.0 1.0 0.0
  outer loop
    vertex 49.28891692035182 48.935 37.021889665276326
    vertex 48.078667878206225 48.935 37.10207006118948
    vertex 49.04809635841056 48.935 37.14481431406304
  endloop
endfacet
facet normal 0.0 1.0 0.0
  outer loop
    vertex 49.04809635841056 48.935 37.14481431406304
    vertex 48.078667878206225 48.935 37.10207006118948
    vertex 47.905455873097665 48.935 37.52588072530187
  endloop
endfacet
facet normal 0.0 1.0 0.0
  outer loop
    vertex 49.04809635841056 48.935 37.14481431406304
    vertex 47.905455873097665 48.935 37.52588072530187
    vertex 48.866503127248365 48.935 37.30796884790723
  endloop
endfacet
facet normal 0.0 1.0 0.0
  outer loop
    vertex 48.866503127248365 48.935 37.30796884790723
    vertex 47.905455873097665 48.935 37.52588072530187
    vertex 48.66535370196101 48.935 37.73261763462498
  endloop
endfacet
facet normal 0.0 1.0 0.0
  outer loop
    vertex 48.66535370196101 48.935 37.73261763462498
    vertex 47.905455873097665 48.935 37.52588072530187
    vertex 47.80152867003253 48.935 38.03406239835423
  endloop
endfacet
facet normal 0.0 1.0 0.0
  outer loop
    vertex 48.66535370196101 48.935 37.73261763462498
    vertex 47.80152867003253 48.935 38.03406239835423
    vertex 48.607243867989105 48.935 38.28242606374376
  endloop
endfacet
facet normal 0.0 1.0 0.0
  outer loop
    vertex 48.607243867989105 48.935 38.28242606374376
    vertex 47.80152867003253 48.935 38.03406239835423
    vertex 47.76688626901082 48.935 38.62661508034657
  endloop
endfacet
facet normal 0.0 1.0 0.0
  outer loop
    vertex 48.607243867989105 48.935 38.28242606374376
    vertex 47.76688626901082 48.935 38.62661508034657
    vertex 48.607243867989105 48.935 38.72048481214733
  endloop
endfacet
facet normal 0.0 1.0 0.0
  outer loop
    vertex 48.607243867989105 48.935 38.72048481214733
    vertex 47.76688626901082 48.935 38.62661508034657
    vertex 47.76688626901082 48.935 43.051902436668406
  endloop
endfacet
facet normal 0.0 1.0 0.0
  outer loop
    vertex 48.607243867989105 48.935 38.72048481214733
    vertex 47.76688626901082 48.935 43.051902436668406
    vertex 48.607243867989105 48.935 39.41333283258156
  endloop
endfacet
facet normal 0.0 1.0 0.0
  outer loop
    vertex 48.607243867989105 48.935 38.72048481214733
    vertex 48.607243867989105 48.935 39.41333283258156
    vertex 48.901704276673655 48.935 39.20659592325845
  endloop
endfacet
facet normal 0.0 1.0 0.0
  outer loop
    vertex 48.607243867989105 48.935 38.72048481214733
    vertex 48.901704276673655 48.935 39.20659592325845
    vertex 49.23080708637991 48.935 39.05126386706432
  endloop
endfacet
facet normal 0.0 1.0 0.0
  outer loop
    vertex 48.607243867989105 48.935 38.72048481214733
    vertex 49.23080708637991 48.935 39.05126386706432
    vertex 49.572202360964845 48.935 38.95404164484209
  endloop
endfacet
facet normal 0.0 1.0 0.0
  outer loop
    vertex 48.607243867989105 48.935 38.72048481214733
    vertex 49.572202360964845 48.935 38.95404164484209
    vertex 49.9035401642854 48.935 38.92163423743469
  endloop
endfacet
facet normal 0.0 1.0 0.0
  outer loop
    vertex 48.607243867989105 48.935 38.72048481214733
    vertex 49.9035401642854 48.935 38.92163423743469
    vertex 51.450155745383746 48.935 38.77859464611924
  endloop
endfacet
facet normal 0.0 1.0 0.0
  outer loop
    vertex 48.607243867989105 48.935 39.41333283258156
    vertex 47.76688626901082 48.935 43.051902436668406
    vertex 48.607243867989105 48.935 42.153435003718215
  endloop
endfacet
facet normal 0.0 1.0 0.0
  outer loop
    vertex 48.607243867989105 48.935 42.153435003718215
    vertex 47.76688626901082 48.935 43.051902436668406
    vertex 49.18610721409383 48.935 42.3702293843057
  endloop
endfacet
facet normal 0.0 1.0 0.0
  outer loop
    vertex 49.18610721409383 48.935 42.3702293843057
    vertex 47.76688626901082 48.935 43.051902436668406
    vertex 49.71580070068387 48.935 42.43504419912051
  endloop
endfacet
facet normal 0.0 1.0 0.0
  outer loop
    vertex 49.71580070068387 48.935 42.43504419912051
    vertex 47.76688626901082 48.935 43.051902436668406
    vertex 48.607243867989105 48.935 42.83734304969523
  endloop
endfacet
facet normal 0.0 1.0 0.0
  outer loop
    vertex 49.71580070068387 48.935 42.43504419912051
    vertex 48.607243867989105 48.935 42.83734304969523
    vertex 51.3115861412969 48.935 42.519973956464064
  endloop
endfacet
facet normal 0.0 1.0 0.0
  outer loop
    vertex 51.3115861412969 48.935 42.519973956464064
    vertex 48.607243867989105 48.935 42.83734304969523
    vertex 51.0042745193301 48.935 42.80493564228782
  endloop
endfacet
facet normal 0.0 1.0 0.0
  outer loop
    vertex 48.607243867989105 48.935 42.83734304969523
    vertex 47.76688626901082 48.935 43.051902436668406
    vertex 48.55807400847442 48.935 43.051902436668406
  endloop
endfacet
facet normal 0.0 1.0 0.0
  outer loop
    vertex 48.607243867989105 48.935 42.83734304969523
    vertex 50.64555804423432 48.935 43.016142538839546
    vertex 51.0042745193301 48.935 42.80493564228782
  endloop
endfacet
facet normal 0.0 1.0 0.0
  outer loop
    vertex 50.64555804423432 48.935 43.016142538839546
    vertex 48.607243867989105 48.935 42.83734304969523
    vertex 49.17716723963662 48.935 43.09883730256879
  endloop
endfacet
facet normal 0.0 1.0 0.0
  outer loop
    vertex 50.64555804423432 48.935 43.016142538839546
    vertex 49.17716723963662 48.935 43.09883730256879
    vertex 50.254434161731126 48.935 43.146889665276326
  endloop
endfacet
facet normal 0.0 1.0 0.0
  outer loop
    vertex 50.254434161731126 48.935 43.146889665276326
    vertex 49.17716723963662 48.935 43.09883730256879
    vertex 49.84990031754211 48.935 43.19047204075525
  endloop
endfacet
endsolid lbox_mini_compartments
