solid lbox_mini_compartments
facet normal -1.0 0.0 0.0
  outer loop
    vertex -99.49699997901907 85.90000000000013 0.9999999999999981
    vertex -99.49699997901907 81.89800109863286 0.0
    vertex -99.49699997901907 81.89800109863286 0.9999999999999981
  endloop
endfacet
facet normal -1.0 0.0 0.0
  outer loop
    vertex -99.49699997901907 81.89800109863286 0.0
    vertex -99.49699997901907 85.90000000000013 0.9999999999999981
    vertex -99.49699997901907 85.90000000000013 0.0
  endloop
endfacet
facet normal 1.0 0.0 0.0
  outer loop
    vertex -84.50200080871586 85.90000000000013 0.0
    vertex -84.50200080871586 77.89800109863292 0.9999999999999981
    vertex -84.50200080871586 77.89800109863292 0.0
  endloop
endfacet
facet normal 1.0 0.0 0.0
  outer loop
    vertex -84.50200080871586 77.89800109863292 0.9999999999999981
    vertex -84.50200080871586 85.90000000000013 0.0
    vertex -84.50200080871586 85.90000000000013 0.9999999999999981
  endloop
endfacet
facet normal 1.0 0.0 0.0
  outer loop
    vertex -141.5029983520507 85.90000000000013 0.0
    vertex -141.5029983520507 81.89800109863286 0.9999999999999981
    vertex -141.5029983520507 81.89800109863286 0.0
  endloop
endfacet
facet normal 1.0 0.0 0.0
  outer loop
    vertex -141.5029983520507 81.89800109863286 0.9999999999999981
    vertex -141.5029983520507 85.90000000000013 0.0
    vertex -141.5029983520507 85.90000000000013 0.9999999999999981
  endloop
endfacet
facet normal 0.0 1.0 0.0
  outer loop
    vertex -141.5029983520507 81.89800109863286 0.9999999999999981
    vertex -99.49699997901907 81.89800109863286 0.0
    vertex -141.5029983520507 81.89800109863286 0.0
  endloop
endfacet
facet normal 0.0 1.0 0.0
  outer loop
    vertex -99.49699997901907 81.89800109863286 0.0
    vertex -141.5029983520507 81.89800109863286 0.9999999999999981
    vertex -99.49699997901907 81.89800109863286 0.9999999999999981
  endloop
endfacet
facet normal 0.0 1.0 0.0
  outer loop
    vertex -99.49699997901907 85.90000000000013 0.9999999999999981
    vertex -84.50200080871586 85.90000000000013 0.0
    vertex -99.49699997901907 85.90000000000013 0.0
  endloop
endfacet
facet normal 0.0 1.0 0.0
  outer loop
    vertex -84.50200080871586 85.90000000000013 0.0
    vertex -99.49699997901907 85.90000000000013 0.9999999999999981
    vertex -84.50200080871586 85.90000000000013 0.9999999999999981
  endloop
endfacet
facet normal 0.0 0.0 1.0
  outer loop
    vertex -80.00000000000003 51.9 0.9999999999999981
    vertex -158.49999999999986 85.90000000000013 0.9999999999999981
    vertex -158.49999999999986 51.9 0.9999999999999981
  endloop
endfacet
facet normal 0.0 0.0 1.0
  outer loop
    vertex -158.49999999999986 85.90000000000013 0.9999999999999981
    vertex -80.00000000000003 51.9 0.9999999999999981
    vertex -141.5029983520507 81.89800109863286 0.9999999999999981
  endloop
endfacet
facet normal 0.0 0.0 1.0
  outer loop
    vertex -141.5029983520507 81.89800109863286 0.9999999999999981
    vertex -80.00000000000003 51.9 0.9999999999999981
    vertex -99.49699997901907 81.89800109863286 0.9999999999999981
  endloop
endfacet
facet normal 0.0 0.0 1.0
  outer loop
    vertex -99.49699997901907 81.89800109863286 0.9999999999999981
    vertex -80.00000000000003 51.9 0.9999999999999981
    vertex -99.49699997901907 85.90000000000013 0.9999999999999981
  endloop
endfacet
facet normal 0.0 0.0 1.0
  outer loop
    vertex -99.49699997901907 85.90000000000013 0.9999999999999981
    vertex -80.00000000000003 51.9 0.9999999999999981
    vertex -84.50200080871586 77.89800109863292 0.9999999999999981
  endloop
endfacet
facet normal 0.0 0.0 1.0
  outer loop
    vertex -84.50200080871586 77.89800109863292 0.9999999999999981
    vertex -80.00000000000003 51.9 0.9999999999999981
    vertex -80.00000000000003 77.89800109863292 0.9999999999999981
  endloop
endfacet
facet normal 0.0 0.0 1.0
  outer loop
    vertex -84.50200080871586 85.90000000000013 0.9999999999999981
    vertex -99.49699997901907 85.90000000000013 0.9999999999999981
    vertex -84.50200080871586 77.89800109863292 0.9999999999999981
  endloop
endfacet
facet normal 0.0 0.0 1.0
  outer loop
    vertex -141.5029983520507 85.90000000000013 0.9999999999999981
    vertex -158.49999999999986 85.90000000000013 0.9999999999999981
    vertex -141.5029983520507 81.89800109863286 0.9999999999999981
  endloop
endfacet
facet normal 0.0 1.0 0.0
  outer loop
    vertex -158.49999999999986 48.899999999999984 50.99999999999997
    vertex -80.00000000000003 48.899999999999984 4.0000000000000036
    vertex -158.49999999999986 48.899999999999984 4.0000000000000036
  endloop
endfacet
facet normal 0.0 1.0 0.0
  outer loop
    vertex -80.00000000000003 48.899999999999984 4.0000000000000036
    vertex -158.49999999999986 48.899999999999984 50.99999999999997
    vertex -80.00000000000003 48.899999999999984 50.999999999999964
  endloop
endfacet
facet normal 0.0 1.0 0.0
  outer loop
    vertex -158.49999999999986 85.90000000000013 0.9999999999999981
    vertex -141.5029983520507 85.90000000000013 0.0
    vertex -158.49999999999986 85.90000000000013 0.0
  endloop
endfacet
facet normal 0.0 1.0 0.0
  outer loop
    vertex -141.5029983520507 85.90000000000013 0.0
    vertex -158.49999999999986 85.90000000000013 0.9999999999999981
    vertex -141.5029983520507 85.90000000000013 0.9999999999999981
  endloop
endfacet
facet normal 0.0 1.0 0.0
  outer loop
    vertex -84.50200080871586 77.89800109863292 0.9999999999999981
    vertex -80.00000000000003 77.89800109863292 0.0
    vertex -84.50200080871586 77.89800109863292 0.0
  endloop
endfacet
facet normal 0.0 1.0 0.0
  outer loop
    vertex -80.00000000000003 77.89800109863292 0.0
    vertex -84.50200080871586 77.89800109863292 0.9999999999999981
    vertex -80.00000000000003 77.89800109863292 0.9999999999999981
  endloop
endfacet
facet normal -5.3900926015835736e-33 0.1305261922200441 0.9914448613738114
  outer loop
    vertex -80.00000000000003 51.123542864692425 1.102222521132788
    vertex -158.49999999999986 51.9 0.9999999999999981
    vertex -158.49999999999986 51.123542864692425 1.102222521132788
  endloop
endfacet
facet normal -5.3900926015835736e-33 0.1305261922200441 0.9914448613738114
  outer loop
    vertex -158.49999999999986 51.9 0.9999999999999981
    vertex -80.00000000000003 51.123542864692425 1.102222521132788
    vertex -80.00000000000003 51.9 0.9999999999999981
  endloop
endfacet
facet normal 0.0 0.38268343236509006 0.9238795325112867
  outer loop
    vertex -80.00000000000003 50.399999999999984 1.4019237886466784
    vertex -158.49999999999986 51.123542864692425 1.102222521132788
    vertex -158.49999999999986 50.399999999999984 1.4019237886466784
  endloop
endfacet
facet normal 0.0 0.38268343236509006 0.9238795325112867
  outer loop
    vertex -158.49999999999986 51.123542864692425 1.102222521132788
    vertex -80.00000000000003 50.399999999999984 1.4019237886466784
    vertex -80.00000000000003 51.123542864692425 1.102222521132788
  endloop
endfacet
facet normal 0.0 0.6087614290087239 0.7933533402912326
  outer loop
    vertex -80.00000000000003 49.778679656440346 1.8786796564403532
    vertex -158.49999999999986 50.399999999999984 1.4019237886466784
    vertex -158.49999999999986 49.778679656440346 1.8786796564403532
  endloop
endfacet
facet normal 0.0 0.6087614290087239 0.7933533402912326
  outer loop
    vertex -158.49999999999986 50.399999999999984 1.4019237886466784
    vertex -80.00000000000003 49.778679656440346 1.8786796564403532
    vertex -80.00000000000003 50.399999999999984 1.4019237886466784
  endloop
endfacet
facet normal 0.0 0.7933533402912353 0.6087614290087208
  outer loop
    vertex -158.49999999999986 49.301923788646675 2.4999999999999982
    vertex -80.00000000000003 49.778679656440346 1.8786796564403532
    vertex -158.49999999999986 49.778679656440346 1.8786796564403532
  endloop
endfacet
facet normal 0.0 0.7933533402912353 0.6087614290087208
  outer loop
    vertex -80.00000000000003 49.778679656440346 1.8786796564403532
    vertex -158.49999999999986 49.301923788646675 2.4999999999999982
    vertex -80.00000000000003 49.301923788646675 2.4999999999999982
  endloop
endfacet
facet normal 0.0 0.9238795325112855 0.38268343236509317
  outer loop
    vertex -158.49999999999986 49.00222252113278 3.2235428646924387
    vertex -80.00000000000003 49.301923788646675 2.4999999999999982
    vertex -158.49999999999986 49.301923788646675 2.4999999999999982
  endloop
endfacet
facet normal 0.0 0.9238795325112855 0.38268343236509317
  outer loop
    vertex -80.00000000000003 49.301923788646675 2.4999999999999982
    vertex -158.49999999999986 49.00222252113278 3.2235428646924387
    vertex -80.00000000000003 49.00222252113278 3.2235428646924387
  endloop
endfacet
facet normal -2.0470909023225093e-32 0.9914448613738105 0.1305261922200512
  outer loop
    vertex -158.49999999999986 48.899999999999984 4.0000000000000036
    vertex -80.00000000000003 49.00222252113278 3.2235428646924387
    vertex -158.49999999999986 49.00222252113278 3.2235428646924387
  endloop
endfacet
facet normal -2.0470909023225093e-32 0.9914448613738105 0.1305261922200512
  outer loop
    vertex -80.00000000000003 49.00222252113278 3.2235428646924387
    vertex -158.49999999999986 48.899999999999984 4.0000000000000036
    vertex -80.00000000000003 48.899999999999984 4.0000000000000036
  endloop
endfacet
facet normal 1.1792881139244845e-16 1.7597717717743092e-31 1.0
  outer loop
    vertex -80.00000000000003 46.5 50.999999999999964
    vertex -158.49999999999986 48.899999999999984 50.99999999999997
    vertex -158.49999999999986 46.5 50.99999999999997
  endloop
endfacet
facet normal 1.1792881139244845e-16 1.7597717717743092e-31 1.0
  outer loop
    vertex -158.49999999999986 48.899999999999984 50.99999999999997
    vertex -80.00000000000003 46.5 50.999999999999964
    vertex -80.00000000000003 48.899999999999984 50.999999999999964
  endloop
endfacet
facet normal 1.0 0.0 0.0
  outer loop
    vertex -80.00000000000003 77.89800109863292 0.0
    vertex -80.00000000000003 43.50000000000001 0.9999999999999981
    vertex -80.00000000000003 43.50000000000001 0.0
  endloop
endfacet
facet normal 1.0 0.0 0.0
  outer loop
    vertex -80.00000000000003 43.50000000000001 0.9999999999999981
    vertex -80.00000000000003 77.89800109863292 0.0
    vertex -80.00000000000003 44.27645713530756 1.102222521132804
  endloop
endfacet
facet normal 1.0 0.0 0.0
  outer loop
    vertex -80.00000000000003 44.27645713530756 1.102222521132804
    vertex -80.00000000000003 77.89800109863292 0.0
    vertex -80.00000000000003 51.9 0.9999999999999981
  endloop
endfacet
facet normal 1.0 0.0 0.0
  outer loop
    vertex -80.00000000000003 44.27645713530756 1.102222521132804
    vertex -80.00000000000003 51.9 0.9999999999999981
    vertex -80.00000000000003 45.0 1.4019237886466918
  endloop
endfacet
facet normal 1.0 0.0 0.0
  outer loop
    vertex -80.00000000000003 45.0 1.4019237886466918
    vertex -80.00000000000003 51.9 0.9999999999999981
    vertex -80.00000000000003 51.123542864692425 1.102222521132788
  endloop
endfacet
facet normal 1.0 0.0 0.0
  outer loop
    vertex -80.00000000000003 45.0 1.4019237886466918
    vertex -80.00000000000003 51.123542864692425 1.102222521132788
    vertex -80.00000000000003 45.62132034355964 1.878679656440365
  endloop
endfacet
facet normal 1.0 0.0 0.0
  outer loop
    vertex -80.00000000000003 45.62132034355964 1.878679656440365
    vertex -80.00000000000003 51.123542864692425 1.102222521132788
    vertex -80.00000000000003 46.098076211353316 2.5000000000000053
  endloop
endfacet
facet normal 1.0 0.0 0.0
  outer loop
    vertex -80.00000000000003 46.098076211353316 2.5000000000000053
    vertex -80.00000000000003 51.123542864692425 1.102222521132788
    vertex -80.00000000000003 50.399999999999984 1.4019237886466784
  endloop
endfacet
facet normal 1.0 0.0 0.0
  outer loop
    vertex -80.00000000000003 46.098076211353316 2.5000000000000053
    vertex -80.00000000000003 50.399999999999984 1.4019237886466784
    vertex -80.00000000000003 46.397777478867205 3.2235428646924404
  endloop
endfacet
facet normal 1.0 0.0 0.0
  outer loop
    vertex -80.00000000000003 46.397777478867205 3.2235428646924404
    vertex -80.00000000000003 50.399999999999984 1.4019237886466784
    vertex -80.00000000000003 46.5 4.0000000000000036
  endloop
endfacet
facet normal 1.0 0.0 0.0
  outer loop
    vertex -80.00000000000003 46.5 4.0000000000000036
    vertex -80.00000000000003 50.399999999999984 1.4019237886466784
    vertex -80.00000000000003 49.778679656440346 1.8786796564403532
  endloop
endfacet
facet normal 1.0 0.0 0.0
  outer loop
    vertex -80.00000000000003 46.5 4.0000000000000036
    vertex -80.00000000000003 49.778679656440346 1.8786796564403532
    vertex -80.00000000000003 49.301923788646675 2.4999999999999982
  endloop
endfacet
facet normal 1.0 0.0 0.0
  outer loop
    vertex -80.00000000000003 46.5 4.0000000000000036
    vertex -80.00000000000003 49.301923788646675 2.4999999999999982
    vertex -80.00000000000003 49.00222252113278 3.2235428646924387
  endloop
endfacet
facet normal 1.0 0.0 0.0
  outer loop
    vertex -80.00000000000003 46.5 4.0000000000000036
    vertex -80.00000000000003 49.00222252113278 3.2235428646924387
    vertex -80.00000000000003 48.899999999999984 4.0000000000000036
  endloop
endfacet
facet normal 1.0 0.0 0.0
  outer loop
    vertex -80.00000000000003 46.5 4.0000000000000036
    vertex -80.00000000000003 48.899999999999984 4.0000000000000036
    vertex -80.00000000000003 46.5 50.999999999999964
  endloop
endfacet
facet normal 1.0 0.0 0.0
  outer loop
    vertex -80.00000000000003 51.9 0.9999999999999981
    vertex -80.00000000000003 77.89800109863292 0.0
    vertex -80.00000000000003 77.89800109863292 0.9999999999999981
  endloop
endfacet
facet normal 1.0 0.0 0.0
  outer loop
    vertex -80.00000000000003 48.899999999999984 50.999999999999964
    vertex -80.00000000000003 46.5 50.999999999999964
    vertex -80.00000000000003 48.899999999999984 4.0000000000000036
  endloop
endfacet
facet normal -1.0 -1.401711278991268e-17 -4.657707827895735e-16
  outer loop
    vertex -158.49999999999986 48.899999999999984 50.99999999999997
    vertex -158.49999999999986 46.5 4.0000000000000036
    vertex -158.49999999999986 46.5 50.99999999999997
  endloop
endfacet
facet normal -1.0 -1.401711278991268e-17 -4.657707827895735e-16
  outer loop
    vertex -158.49999999999986 44.27645713530756 1.102222521132804
    vertex -158.49999999999986 43.50000000000001 0.0
    vertex -158.49999999999986 43.50000000000001 0.9999999999999981
  endloop
endfacet
facet normal -1.0 -1.401711278991268e-17 -4.657707827895735e-16
  outer loop
    vertex -158.49999999999986 43.50000000000001 0.0
    vertex -158.49999999999986 44.27645713530756 1.102222521132804
    vertex -158.49999999999986 85.90000000000013 0.0
  endloop
endfacet
facet normal -1.0 -1.401711278991268e-17 -4.657707827895735e-16
  outer loop
    vertex -158.49999999999986 85.90000000000013 0.0
    vertex -158.49999999999986 44.27645713530756 1.102222521132804
    vertex -158.49999999999986 51.9 0.9999999999999981
  endloop
endfacet
facet normal -1.0 -1.401711278991268e-17 -4.657707827895735e-16
  outer loop
    vertex -158.49999999999986 51.9 0.9999999999999981
    vertex -158.49999999999986 44.27645713530756 1.102222521132804
    vertex -158.49999999999986 45.0 1.4019237886466918
  endloop
endfacet
facet normal -1.0 -1.401711278991268e-17 -4.657707827895735e-16
  outer loop
    vertex -158.49999999999986 51.9 0.9999999999999981
    vertex -158.49999999999986 45.0 1.4019237886466918
    vertex -158.49999999999986 51.123542864692425 1.102222521132788
  endloop
endfacet
facet normal -1.0 -1.401711278991268e-17 -4.657707827895735e-16
  outer loop
    vertex -158.49999999999986 51.123542864692425 1.102222521132788
    vertex -158.49999999999986 45.0 1.4019237886466918
    vertex -158.49999999999986 45.62132034355964 1.878679656440365
  endloop
endfacet
facet normal -1.0 -1.401711278991268e-17 -4.657707827895735e-16
  outer loop
    vertex -158.49999999999986 51.123542864692425 1.102222521132788
    vertex -158.49999999999986 45.62132034355964 1.878679656440365
    vertex -158.49999999999986 46.098076211353316 2.5000000000000053
  endloop
endfacet
facet normal -1.0 -1.401711278991268e-17 -4.657707827895735e-16
  outer loop
    vertex -158.49999999999986 51.123542864692425 1.102222521132788
    vertex -158.49999999999986 46.098076211353316 2.5000000000000053
    vertex -158.49999999999986 50.399999999999984 1.4019237886466784
  endloop
endfacet
facet normal -1.0 -1.401711278991268e-17 -4.657707827895735e-16
  outer loop
    vertex -158.49999999999986 50.399999999999984 1.4019237886466784
    vertex -158.49999999999986 46.098076211353316 2.5000000000000053
    vertex -158.49999999999986 46.397777478867205 3.2235428646924404
  endloop
endfacet
facet normal -1.0 -1.401711278991268e-17 -4.657707827895735e-16
  outer loop
    vertex -158.49999999999986 50.399999999999984 1.4019237886466784
    vertex -158.49999999999986 46.397777478867205 3.2235428646924404
    vertex -158.49999999999986 46.5 4.0000000000000036
  endloop
endfacet
facet normal -1.0 -1.401711278991268e-17 -4.657707827895735e-16
  outer loop
    vertex -158.49999999999986 50.399999999999984 1.4019237886466784
    vertex -158.49999999999986 46.5 4.0000000000000036
    vertex -158.49999999999986 49.778679656440346 1.8786796564403532
  endloop
endfacet
facet normal -1.0 -1.401711278991268e-17 -4.657707827895735e-16
  outer loop
    vertex -158.49999999999986 49.778679656440346 1.8786796564403532
    vertex -158.49999999999986 46.5 4.0000000000000036
    vertex -158.49999999999986 49.301923788646675 2.4999999999999982
  endloop
endfacet
facet normal -1.0 -1.401711278991268e-17 -4.657707827895735e-16
  outer loop
    vertex -158.49999999999986 49.301923788646675 2.4999999999999982
    vertex -158.49999999999986 46.5 4.0000000000000036
    vertex -158.49999999999986 49.00222252113278 3.2235428646924387
  endloop
endfacet
facet normal -1.0 -1.401711278991268e-17 -4.657707827895735e-16
  outer loop
    vertex -158.49999999999986 49.00222252113278 3.2235428646924387
    vertex -158.49999999999986 46.5 4.0000000000000036
    vertex -158.49999999999986 48.899999999999984 4.0000000000000036
  endloop
endfacet
facet normal -1.0 -1.401711278991268e-17 -4.657707827895735e-16
  outer loop
    vertex -158.49999999999986 48.899999999999984 4.0000000000000036
    vertex -158.49999999999986 46.5 4.0000000000000036
    vertex -158.49999999999986 48.899999999999984 50.99999999999997
  endloop
endfacet
facet normal -1.0 -1.401711278991268e-17 -4.657707827895735e-16
  outer loop
    vertex -158.49999999999986 85.90000000000013 0.0
    vertex -158.49999999999986 51.9 0.9999999999999981
    vertex -158.49999999999986 85.90000000000013 0.9999999999999981
  endloop
endfacet
facet normal -3.0825939789447856e-19 -8.15666049131017e-18 -1.0
  outer loop
    vertex -84.50200080871586 85.90000000000013 0.0
    vertex -99.49699997901907 81.89800109863286 0.0
    vertex -99.49699997901907 85.90000000000013 0.0
  endloop
endfacet
facet normal -3.0825939789447856e-19 -8.15666049131017e-18 -1.0
  outer loop
    vertex -141.5029983520507 85.90000000000013 0.0
    vertex -158.49999999999986 43.50000000000001 0.0
    vertex -158.49999999999986 85.90000000000013 0.0
  endloop
endfacet
facet normal -3.0825939789447856e-19 -8.15666049131017e-18 -1.0
  outer loop
    vertex -158.49999999999986 43.50000000000001 0.0
    vertex -141.5029983520507 85.90000000000013 0.0
    vertex -141.5029983520507 81.89800109863286 0.0
  endloop
endfacet
facet normal -3.0825939789447856e-19 -8.15666049131017e-18 -1.0
  outer loop
    vertex -158.49999999999986 43.50000000000001 0.0
    vertex -141.5029983520507 81.89800109863286 0.0
    vertex -80.00000000000003 43.50000000000001 0.0
  endloop
endfacet
facet normal -3.0825939789447856e-19 -8.15666049131017e-18 -1.0
  outer loop
    vertex -80.00000000000003 43.50000000000001 0.0
    vertex -141.5029983520507 81.89800109863286 0.0
    vertex -99.49699997901907 81.89800109863286 0.0
  endloop
endfacet
facet normal -3.0825939789447856e-19 -8.15666049131017e-18 -1.0
  outer loop
    vertex -80.00000000000003 43.50000000000001 0.0
    vertex -99.49699997901907 81.89800109863286 0.0
    vertex -84.50200080871586 77.89800109863292 0.0
  endloop
endfacet
facet normal -3.0825939789447856e-19 -8.15666049131017e-18 -1.0
  outer loop
    vertex -84.50200080871586 77.89800109863292 0.0
    vertex -99.49699997901907 81.89800109863286 0.0
    vertex -84.50200080871586 85.90000000000013 0.0
  endloop
endfacet
facet normal -3.0825939789447856e-19 -8.15666049131017e-18 -1.0
  outer loop
    vertex -80.00000000000003 43.50000000000001 0.0
    vertex -84.50200080871586 77.89800109863292 0.0
    vertex -80.00000000000003 77.89800109863292 0.0
  endloop
endfacet
facet normal 0.0 -1.0 0.0
  outer loop
    vertex -80.00000000000003 46.5 50.999999999999964
    vertex -158.49999999999986 46.5 4.0000000000000036
    vertex -80.00000000000003 46.5 4.0000000000000036
  endloop
endfacet
facet normal 0.0 -1.0 0.0
  outer loop
    vertex -158.49999999999986 46.5 4.0000000000000036
    vertex -80.00000000000003 46.5 50.999999999999964
    vertex -158.49999999999986 46.5 50.99999999999997
  endloop
endfacet
facet normal 2.0134028235626098e-32 -0.9914448613738105 0.13052619222005155
  outer loop
    vertex -80.00000000000003 46.5 4.0000000000000036
    vertex -158.49999999999986 46.397777478867205 3.2235428646924404
    vertex -80.00000000000003 46.397777478867205 3.2235428646924404
  endloop
endfacet
facet normal 2.0134028235626098e-32 -0.9914448613738105 0.13052619222005155
  outer loop
    vertex -158.49999999999986 46.397777478867205 3.2235428646924404
    vertex -80.00000000000003 46.5 4.0000000000000036
    vertex -158.49999999999986 46.5 4.0000000000000036
  endloop
endfacet
facet normal 0.0 -1.0 0.0
  outer loop
    vertex -80.00000000000003 43.50000000000001 0.9999999999999981
    vertex -158.49999999999986 43.50000000000001 0.0
    vertex -80.00000000000003 43.50000000000001 0.0
  endloop
endfacet
facet normal 0.0 -1.0 0.0
  outer loop
    vertex -158.49999999999986 43.50000000000001 0.0
    vertex -80.00000000000003 43.50000000000001 0.9999999999999981
    vertex -158.49999999999986 43.50000000000001 0.9999999999999981
  endloop
endfacet
facet normal 0.0 -0.793353340291233 0.6087614290087235
  outer loop
    vertex -80.00000000000003 46.098076211353316 2.5000000000000053
    vertex -158.49999999999986 45.62132034355964 1.878679656440365
    vertex -80.00000000000003 45.62132034355964 1.878679656440365
  endloop
endfacet
facet normal 0.0 -0.793353340291233 0.6087614290087235
  outer loop
    vertex -158.49999999999986 45.62132034355964 1.878679656440365
    vertex -80.00000000000003 46.098076211353316 2.5000000000000053
    vertex -158.49999999999986 46.098076211353316 2.5000000000000053
  endloop
endfacet
facet normal 0.0 -0.38268343236508734 0.9238795325112877
  outer loop
    vertex -80.00000000000003 44.27645713530756 1.102222521132804
    vertex -158.49999999999986 45.0 1.4019237886466918
    vertex -158.49999999999986 44.27645713530756 1.102222521132804
  endloop
endfacet
facet normal 0.0 -0.38268343236508734 0.9238795325112877
  outer loop
    vertex -158.49999999999986 45.0 1.4019237886466918
    vertex -80.00000000000003 44.27645713530756 1.102222521132804
    vertex -80.00000000000003 45.0 1.4019237886466918
  endloop
endfacet
facet normal 0.0 -0.6087614290087225 0.7933533402912338
  outer loop
    vertex -80.00000000000003 45.0 1.4019237886466918
    vertex -158.49999999999986 45.62132034355964 1.878679656440365
    vertex -158.49999999999986 45.0 1.4019237886466918
  endloop
endfacet
facet normal 0.0 -0.6087614290087225 0.7933533402912338
  outer loop
    vertex -158.49999999999986 45.62132034355964 1.878679656440365
    vertex -80.00000000000003 45.0 1.4019237886466918
    vertex -80.00000000000003 45.62132034355964 1.878679656440365
  endloop
endfacet
facet normal 0.0 -0.1305261922200659 0.9914448613738086
  outer loop
    vertex -80.00000000000003 43.50000000000001 0.9999999999999981
    vertex -158.49999999999986 44.27645713530756 1.102222521132804
    vertex -158.49999999999986 43.50000000000001 0.9999999999999981
  endloop
endfacet
facet normal 0.0 -0.1305261922200659 0.9914448613738086
  outer loop
    vertex -158.49999999999986 44.27645713530756 1.102222521132804
    vertex -80.00000000000003 43.50000000000001 0.9999999999999981
    vertex -80.00000000000003 44.27645713530756 1.102222521132804
  endloop
endfacet
facet normal 0.0 -0.9238795325112871 0.3826834323650892
  outer loop
    vertex -80.00000000000003 46.397777478867205 3.2235428646924404
    vertex -158.49999999999986 46.098076211353316 2.5000000000000053
    vertex -80.00000000000003 46.098076211353316 2.5000000000000053
  endloop
endfacet
facet normal 0.0 -0.9238795325112871 0.3826834323650892
  outer loop
    vertex -158.49999999999986 46.098076211353316 2.5000000000000053
    vertex -80.00000000000003 46.397777478867205 3.2235428646924404
    vertex -158.49999999999986 46.397777478867205 3.2235428646924404
  endloop
endfacet
facet normal 0.0 1.0 0.0
  outer loop
    vertex -93.68403844364771 48.93499999999999 41.497556892020086
    vertex -92.84815083189802 48.93499999999999 38.08248664936364
    vertex -93.68403844364771 48.93499999999999 38.08248664936364
  endloop
endfacet
facet normal 0.0 1.0 0.0
  outer loop
    vertex -92.84815083189802 48.93499999999999 38.08248664936364
    vertex -93.68403844364771 48.93499999999999 41.497556892020086
    vertex -92.84815083189802 48.93499999999999 38.61441512956798
  endloop
endfacet
facet normal 0.0 1.0 0.0
  outer loop
    vertex -92.84815083189802 48.93499999999999 38.61441512956798
    vertex -93.68403844364771 48.93499999999999 41.497556892020086
    vertex -92.84815083189802 48.93499999999999 39.31173313723081
  endloop
endfacet
facet normal 0.0 1.0 0.0
  outer loop
    vertex -92.84815083189802 48.93499999999999 38.61441512956798
    vertex -92.84815083189802 48.93499999999999 39.31173313723081
    vertex -92.24470255603596 48.93499999999999 38.889319344127365
  endloop
endfacet
facet normal 0.0 1.0 0.0
  outer loop
    vertex -92.84815083189802 48.93499999999999 38.61441512956798
    vertex -92.24470255603596 48.93499999999999 38.889319344127365
    vertex -91.90386602985461 48.93499999999999 38.76024846290131
  endloop
endfacet
facet normal 0.0 1.0 0.0
  outer loop
    vertex -92.84815083189802 48.93499999999999 38.61441512956798
    vertex -91.90386602985461 48.93499999999999 38.76024846290131
    vertex -91.52503461223009 48.93499999999999 38.71722483582596
  endloop
endfacet
facet normal 0.0 1.0 0.0
  outer loop
    vertex -92.84815083189802 48.93499999999999 38.61441512956798
    vertex -91.52503461223009 48.93499999999999 38.71722483582596
    vertex -89.97171405028884 48.93499999999999 38.616091374778705
  endloop
endfacet
facet normal 0.0 1.0 0.0
  outer loop
    vertex -92.84815083189802 48.93499999999999 39.31173313723081
    vertex -93.68403844364771 48.93499999999999 41.497556892020086
    vertex -92.84815083189802 48.93499999999999 40.69742917809927
  endloop
endfacet
facet normal 0.0 1.0 0.0
  outer loop
    vertex -92.84815083189802 48.93499999999999 40.69742917809927
    vertex -93.68403844364771 48.93499999999999 41.497556892020086
    vertex -90.21197586382651 48.93499999999999 40.74045280517462
  endloop
endfacet
facet normal 0.0 1.0 0.0
  outer loop
    vertex -90.21197586382651 48.93499999999999 40.74045280517462
    vertex -93.68403844364771 48.93499999999999 41.497556892020086
    vertex -90.62209719205129 48.93499999999999 40.99244833518739
  endloop
endfacet
facet normal 0.0 1.0 0.0
  outer loop
    vertex -90.62209719205129 48.93499999999999 40.99244833518739
    vertex -93.68403844364771 48.93499999999999 41.497556892020086
    vertex -92.84815083189802 48.93499999999999 41.36792726239046
  endloop
endfacet
facet normal 0.0 1.0 0.0
  outer loop
    vertex -90.62209719205129 48.93499999999999 40.99244833518739
    vertex -92.84815083189802 48.93499999999999 41.36792726239046
    vertex -91.0802708829836 48.93499999999999 41.155044120628006
  endloop
endfacet
facet normal 0.0 1.0 0.0
  outer loop
    vertex -91.0802708829836 48.93499999999999 41.155044120628006
    vertex -92.84815083189802 48.93499999999999 41.36792726239046
    vertex -91.61443435680225 48.93499999999999 41.25841257528956
  endloop
endfacet
facet normal 0.0 1.0 0.0
  outer loop
    vertex -92.84815083189802 48.93499999999999 41.36792726239046
    vertex -93.68403844364771 48.93499999999999 41.497556892020086
    vertex -92.84815083189802 48.93499999999999 41.52884680262034
  endloop
endfacet
facet normal 0.0 1.0 0.0
  outer loop
    vertex -92.84815083189802 48.93499999999999 41.52884680262034
    vertex -93.68403844364771 48.93499999999999 41.497556892020086
    vertex -93.65051353943315 48.93499999999999 41.93114565319505
  endloop
endfacet
facet normal 0.0 1.0 0.0
  outer loop
    vertex -92.84815083189802 48.93499999999999 41.52884680262034
    vertex -93.65051353943315 48.93499999999999 41.93114565319505
    vertex -92.82580089575498 48.93499999999999 41.79536979112609
  endloop
endfacet
facet normal 0.0 1.0 0.0
  outer loop
    vertex -92.82580089575498 48.93499999999999 41.79536979112609
    vertex -93.65051353943315 48.93499999999999 41.93114565319505
    vertex -92.75875108732588 48.93499999999999 42.00490044246708
  endloop
endfacet
facet normal 0.0 1.0 0.0
  outer loop
    vertex -92.75875108732588 48.93499999999999 42.00490044246708
    vertex -93.65051353943315 48.93499999999999 41.93114565319505
    vertex -93.54993882678947 48.93499999999999 42.2932146187123
  endloop
endfacet
facet normal 0.0 1.0 0.0
  outer loop
    vertex -92.75875108732588 48.93499999999999 42.00490044246708
    vertex -93.54993882678947 48.93499999999999 42.2932146187123
    vertex -92.65147139383929 48.93499999999999 42.16526123429339
  endloop
endfacet
facet normal 0.0 1.0 0.0
  outer loop
    vertex -92.65147139383929 48.93499999999999 42.16526123429339
    vertex -93.54993882678947 48.93499999999999 42.2932146187123
    vertex -92.50843180252383 48.93499999999999 42.284274644255085
  endloop
endfacet
facet normal 0.0 1.0 0.0
  outer loop
    vertex -92.50843180252383 48.93499999999999 42.284274644255085
    vertex -93.54993882678947 48.93499999999999 42.2932146187123
    vertex -92.11507292640633 48.93499999999999 42.42060925472762
  endloop
endfacet
facet normal 0.0 1.0 0.0
  outer loop
    vertex -92.11507292640633 48.93499999999999 42.42060925472762
    vertex -93.54993882678947 48.93499999999999 42.2932146187123
    vertex -93.38119680890952 48.93499999999999 42.589351272607566
  endloop
endfacet
facet normal 0.0 1.0 0.0
  outer loop
    vertex -92.11507292640633 48.93499999999999 42.42060925472762
    vertex -93.38119680890952 48.93499999999999 42.589351272607566
    vertex -91.63678429294528 48.93499999999999 42.45413415894218
  endloop
endfacet
facet normal 0.0 1.0 0.0
  outer loop
    vertex -90.95287624696827 48.93499999999999 42.36696940798433
    vertex -90.11698863521859 48.93499999999999 42.11441512956797
    vertex -90.16615849473328 48.93499999999999 42.11441512956797
  endloop
endfacet
facet normal 0.0 1.0 0.0
  outer loop
    vertex -90.11698863521859 48.93499999999999 42.11441512956797
    vertex -90.95287624696827 48.93499999999999 42.36696940798433
    vertex -90.11698863521859 48.93499999999999 42.96818269023209
  endloop
endfacet
facet normal 0.0 1.0 0.0
  outer loop
    vertex -90.11698863521859 48.93499999999999 42.96818269023209
    vertex -90.95287624696827 48.93499999999999 42.36696940798433
    vertex -91.63678429294528 48.93499999999999 42.45413415894218
  endloop
endfacet
facet normal 0.0 1.0 0.0
  outer loop
    vertex -90.11698863521859 48.93499999999999 42.96818269023209
    vertex -91.63678429294528 48.93499999999999 42.45413415894218
    vertex -93.38119680890952 48.93499999999999 42.589351272607566
  endloop
endfacet
facet normal 0.0 1.0 0.0
  outer loop
    vertex -90.11698863521859 48.93499999999999 42.96818269023209
    vertex -93.38119680890952 48.93499999999999 42.589351272607566
    vertex -93.14316998898616 48.93499999999999 42.825143098916634
  endloop
endfacet
facet normal 0.0 1.0 0.0
  outer loop
    vertex -90.11698863521859 48.93499999999999 42.96818269023209
    vertex -93.14316998898616 48.93499999999999 42.825143098916634
    vertex -92.84368084466942 48.93499999999999 43.002825091253804
  endloop
endfacet
facet normal 0.0 1.0 0.0
  outer loop
    vertex -90.11698863521859 48.93499999999999 42.96818269023209
    vertex -92.84368084466942 48.93499999999999 43.002825091253804
    vertex -90.78301673228117 48.93499999999999 43.11569226877616
  endloop
endfacet
facet normal 0.0 1.0 0.0
  outer loop
    vertex -90.78301673228117 48.93499999999999 43.11569226877616
    vertex -92.84368084466942 48.93499999999999 43.002825091253804
    vertex -92.50843180252383 48.93499999999999 43.11569226877616
  endloop
endfacet
facet normal 0.0 1.0 0.0
  outer loop
    vertex -90.78301673228117 48.93499999999999 43.11569226877616
    vertex -92.50843180252383 48.93499999999999 43.11569226877616
    vertex -91.6412542801739 48.93499999999999 43.1961520388911
  endloop
endfacet
facet normal 0.0 1.0 0.0
  outer loop
    vertex -91.52503461223009 48.93499999999999 38.71722483582596
    vertex -89.83090945258769 48.93499999999999 38.893789331355975
    vertex -89.97171405028884 48.93499999999999 38.616091374778705
  endloop
endfacet
facet normal 0.0 1.0 0.0
  outer loop
    vertex -89.83090945258769 48.93499999999999 38.893789331355975
    vertex -91.52503461223009 48.93499999999999 38.71722483582596
    vertex -91.11603078081247 48.93499999999999 38.77198217937641
  endloop
endfacet
facet normal 0.0 1.0 0.0
  outer loop
    vertex -89.83090945258769 48.93499999999999 38.893789331355975
    vertex -91.11603078081247 48.93499999999999 38.77198217937641
    vertex -90.81877663011004 48.93499999999999 38.936254210027755
  endloop
endfacet
facet normal 0.0 1.0 0.0
  outer loop
    vertex -89.83090945258769 48.93499999999999 38.893789331355975
    vertex -90.81877663011004 48.93499999999999 38.936254210027755
    vertex -89.74039221120837 48.93499999999999 39.20389469534065
  endloop
endfacet
facet normal 0.0 1.0 0.0
  outer loop
    vertex -89.74039221120837 48.93499999999999 39.20389469534065
    vertex -90.81877663011004 48.93499999999999 38.936254210027755
    vertex -90.63774214735142 48.93499999999999 39.207805934165684
  endloop
endfacet
facet normal 0.0 1.0 0.0
  outer loop
    vertex -89.74039221120837 48.93499999999999 39.20389469534065
    vertex -90.63774214735142 48.93499999999999 39.207805934165684
    vertex -89.71021979741528 48.93499999999999 39.530762511432606
  endloop
endfacet
facet normal 0.0 1.0 0.0
  outer loop
    vertex -89.71021979741528 48.93499999999999 39.530762511432606
    vertex -90.63774214735142 48.93499999999999 39.207805934165684
    vertex -90.57739731976521 48.93499999999999 39.58440235817589
  endloop
endfacet
facet normal 0.0 1.0 0.0
  outer loop
    vertex -89.71021979741528 48.93499999999999 39.530762511432606
    vertex -90.57739731976521 48.93499999999999 39.58440235817589
    vertex -89.76497714096573 48.93499999999999 40.01072739010438
  endloop
endfacet
facet normal 0.0 1.0 0.0
  outer loop
    vertex -89.76497714096573 48.93499999999999 40.01072739010438
    vertex -90.57739731976521 48.93499999999999 39.58440235817589
    vertex -90.63215466331565 48.93499999999999 39.92244514233937
  endloop
endfacet
facet normal 0.0 1.0 0.0
  outer loop
    vertex -89.76497714096573 48.93499999999999 40.01072739010438
    vertex -90.63215466331565 48.93499999999999 39.92244514233937
    vertex -90.796426693967 48.93499999999999 40.17667566596644
  endloop
endfacet
facet normal 0.0 1.0 0.0
  outer loop
    vertex -89.76497714096573 48.93499999999999 40.01072739010438
    vertex -90.796426693967 48.93499999999999 40.17667566596644
    vertex -89.92924917161706 48.93499999999999 40.413584989082665
  endloop
endfacet
facet normal 0.0 1.0 0.0
  outer loop
    vertex -89.92924917161706 48.93499999999999 40.413584989082665
    vertex -90.796426693967 48.93499999999999 40.17667566596644
    vertex -91.04451098515473 48.93499999999999 40.361621387550095
  endloop
endfacet
facet normal 0.0 1.0 0.0
  outer loop
    vertex -89.92924917161706 48.93499999999999 40.413584989082665
    vertex -91.04451098515473 48.93499999999999 40.361621387550095
    vertex -91.35070511031438 48.93499999999999 40.491809765583305
  endloop
endfacet
facet normal 0.0 1.0 0.0
  outer loop
    vertex -89.92924917161706 48.93499999999999 40.413584989082665
    vertex -91.35070511031438 48.93499999999999 40.491809765583305
    vertex -90.21197586382651 48.93499999999999 40.74045280517462
  endloop
endfacet
facet normal 0.0 1.0 0.0
  outer loop
    vertex -90.21197586382651 48.93499999999999 40.74045280517462
    vertex -91.35070511031438 48.93499999999999 40.491809765583305
    vertex -92.09048799664899 48.93499999999999 40.62367438882724
  endloop
endfacet
facet normal 0.0 1.0 0.0
  outer loop
    vertex -90.21197586382651 48.93499999999999 40.74045280517462
    vertex -92.09048799664899 48.93499999999999 40.62367438882724
    vertex -92.84815083189802 48.93499999999999 40.69742917809927
  endloop
endfacet
facet normal 0.0 1.0 0.0
  outer loop
    vertex -91.80887880124669 48.93499999999999 38.0064968664773
    vertex -90.92493882678949 48.93499999999999 37.97297196226274
    vertex -91.22554546791336 48.93499999999999 37.94391704527679
  endloop
endfacet
facet normal 0.0 1.0 0.0
  outer loop
    vertex -90.92493882678949 48.93499999999999 37.97297196226274
    vertex -91.80887880124669 48.93499999999999 38.0064968664773
    vertex -90.63997714096571 48.93499999999999 38.0601367132206
  endloop
endfacet
facet normal 0.0 1.0 0.0
  outer loop
    vertex -90.63997714096571 48.93499999999999 38.0601367132206
    vertex -91.80887880124669 48.93499999999999 38.0064968664773
    vertex -92.24023256880736 48.93499999999999 38.18529635562162
  endloop
endfacet
facet normal 0.0 1.0 0.0
  outer loop
    vertex -90.63997714096571 48.93499999999999 38.0601367132206
    vertex -92.24023256880736 48.93499999999999 38.18529635562162
    vertex -90.37960038489932 48.93499999999999 38.199823814114595
  endloop
endfacet
facet normal 0.0 1.0 0.0
  outer loop
    vertex -90.37960038489932 48.93499999999999 38.199823814114595
    vertex -92.24023256880736 48.93499999999999 38.18529635562162
    vertex -92.57324661733865 48.93499999999999 38.402090736209104
  endloop
endfacet
facet normal 0.0 1.0 0.0
  outer loop
    vertex -90.37960038489932 48.93499999999999 38.199823814114595
    vertex -92.57324661733865 48.93499999999999 38.402090736209104
    vertex -90.15274853304746 48.93499999999999 38.38644578090897
  endloop
endfacet
facet normal 0.0 1.0 0.0
  outer loop
    vertex -90.15274853304746 48.93499999999999 38.38644578090897
    vertex -92.57324661733865 48.93499999999999 38.402090736209104
    vertex -89.97171405028884 48.93499999999999 38.616091374778705
  endloop
endfacet
facet normal 0.0 1.0 0.0
  outer loop
    vertex -89.97171405028884 48.93499999999999 38.616091374778705
    vertex -92.57324661733865 48.93499999999999 38.402090736209104
    vertex -92.84815083189802 48.93499999999999 38.61441512956798
  endloop
endfacet
facet normal 0.0 1.0 0.0
  outer loop
    vertex -100.89859783062089 48.93499999999999 40.98797834795879
    vertex -102.12337433125947 48.93499999999999 38.08248664936364
    vertex -103.22746117672563 48.93499999999999 38.08248664936364
  endloop
endfacet
facet normal 0.0 1.0 0.0
  outer loop
    vertex -102.12337433125947 48.93499999999999 38.08248664936364
    vertex -100.89859783062089 48.93499999999999 40.98797834795879
    vertex -100.25938965692995 48.93499999999999 40.491809765583305
  endloop
endfacet
facet normal 0.0 1.0 0.0
  outer loop
    vertex -100.25938965692995 48.93499999999999 40.491809765583305
    vertex -100.89859783062089 48.93499999999999 40.98797834795879
    vertex -99.92861060201298 48.93499999999999 40.96562841181575
  endloop
endfacet
facet normal 0.0 1.0 0.0
  outer loop
    vertex -99.92861060201298 48.93499999999999 40.96562841181575
    vertex -100.89859783062089 48.93499999999999 40.98797834795879
    vertex -101.90434495705769 48.93499999999999 43.07546238371868
  endloop
endfacet
facet normal 0.0 1.0 0.0
  outer loop
    vertex -101.90434495705769 48.93499999999999 43.07546238371868
    vertex -100.89859783062089 48.93499999999999 40.98797834795879
    vertex -102.95032196855193 48.93499999999999 43.07546238371868
  endloop
endfacet
facet normal 0.0 1.0 0.0
  outer loop
    vertex -99.92861060201298 48.93499999999999 40.16997068512354
    vertex -99.08825300303468 48.93499999999999 38.08248664936364
    vertex -99.92861060201298 48.93499999999999 38.08248664936364
  endloop
endfacet
facet normal 0.0 1.0 0.0
  outer loop
    vertex -99.08825300303468 48.93499999999999 38.08248664936364
    vertex -99.92861060201298 48.93499999999999 40.16997068512354
    vertex -99.08825300303468 48.93499999999999 45.03778677707756
  endloop
endfacet
facet normal 0.0 1.0 0.0
  outer loop
    vertex -99.08825300303468 48.93499999999999 45.03778677707756
    vertex -99.92861060201298 48.93499999999999 40.16997068512354
    vertex -99.92861060201298 48.93499999999999 40.96562841181575
  endloop
endfacet
facet normal 0.0 1.0 0.0
  outer loop
    vertex -99.92861060201298 48.93499999999999 40.96562841181575
    vertex -99.92861060201298 48.93499999999999 40.16997068512354
    vertex -100.25938965692995 48.93499999999999 40.491809765583305
  endloop
endfacet
facet normal 0.0 1.0 0.0
  outer loop
    vertex -99.08825300303468 48.93499999999999 45.03778677707756
    vertex -99.92861060201298 48.93499999999999 40.96562841181575
    vertex -99.92861060201298 48.93499999999999 45.03778677707756
  endloop
endfacet
facet normal 0.0 1.0 0.0
  outer loop
    vertex -107.36666935041656 48.93499999999999 45.03778677707756
    vertex -106.52631175143826 48.93499999999999 38.08248664936364
    vertex -107.36666935041656 48.93499999999999 38.08248664936364
  endloop
endfacet
facet normal 0.0 1.0 0.0
  outer loop
    vertex -106.52631175143826 48.93499999999999 38.08248664936364
    vertex -107.36666935041656 48.93499999999999 45.03778677707756
    vertex -106.52631175143826 48.93499999999999 45.03778677707756
  endloop
endfacet
facet normal 0.0 1.0 0.0
  outer loop
    vertex -118.29355313074859 48.93499999999999 38.02214182177743
    vertex -117.5191278433923 48.93499999999999 38.00859217299071
    vertex -117.84431941427351 48.93499999999999 37.98414693033426
  endloop
endfacet
facet normal 0.0 1.0 0.0
  outer loop
    vertex -117.5191278433923 48.93499999999999 38.00859217299071
    vertex -118.29355313074859 48.93499999999999 38.02214182177743
    vertex -117.23193116395421 48.93499999999999 38.08192790096006
  endloop
endfacet
facet normal 0.0 1.0 0.0
  outer loop
    vertex -117.23193116395421 48.93499999999999 38.08192790096006
    vertex -118.29355313074859 48.93499999999999 38.02214182177743
    vertex -118.77407675782395 48.93499999999999 38.12718652164972
  endloop
endfacet
facet normal 0.0 1.0 0.0
  outer loop
    vertex -117.23193116395421 48.93499999999999 38.08192790096006
    vertex -118.77407675782395 48.93499999999999 38.12718652164972
    vertex -116.98272937595934 48.93499999999999 38.20415411424231
  endloop
endfacet
facet normal 0.0 1.0 0.0
  outer loop
    vertex -116.98272937595934 48.93499999999999 38.20415411424231
    vertex -118.77407675782395 48.93499999999999 38.12718652164972
    vertex -118.77407675782395 48.93499999999999 38.88261436328445
  endloop
endfacet
facet normal 0.0 1.0 0.0
  outer loop
    vertex -116.98272937595934 48.93499999999999 38.20415411424231
    vertex -118.77407675782395 48.93499999999999 38.88261436328445
    vertex -118.44776769013558 48.93499999999999 38.782039650640776
  endloop
endfacet
facet normal 0.0 1.0 0.0
  outer loop
    vertex -116.98272937595934 48.93499999999999 38.20415411424231
    vertex -118.44776769013558 48.93499999999999 38.782039650640776
    vertex -116.77152247940761 48.93499999999999 38.37527081283745
  endloop
endfacet
facet normal 0.0 1.0 0.0
  outer loop
    vertex -116.77152247940761 48.93499999999999 38.37527081283745
    vertex -118.44776769013558 48.93499999999999 38.782039650640776
    vertex -118.04993882678947 48.93499999999999 38.72169482305457
  endloop
endfacet
facet normal 0.0 1.0 0.0
  outer loop
    vertex -116.77152247940761 48.93499999999999 38.37527081283745
    vertex -118.04993882678947 48.93499999999999 38.72169482305457
    vertex -116.60333920993125 48.93499999999999 38.599189235570535
  endloop
endfacet
facet normal 0.0 1.0 0.0
  outer loop
    vertex -118.44776769013558 48.93499999999999 38.782039650640776
    vertex -118.77407675782395 48.93499999999999 38.88261436328445
    vertex -118.72490689830927 48.93499999999999 38.88261436328445
  endloop
endfacet
facet normal 0.0 1.0 0.0
  outer loop
    vertex -117.2274611767256 48.93499999999999 44.510328284101824
    vertex -116.38710357774734 48.93499999999999 43.07546238371868
    vertex -117.2274611767256 48.93499999999999 43.07546238371868
  endloop
endfacet
facet normal 0.0 1.0 0.0
  outer loop
    vertex -116.38710357774734 48.93499999999999 43.07546238371868
    vertex -117.2274611767256 48.93499999999999 44.510328284101824
    vertex -116.38710357774734 48.93499999999999 44.510328284101824
  endloop
endfacet
facet normal 0.0 1.0 0.0
  outer loop
    vertex -118.77407675782395 48.93499999999999 43.07546238371868
    vertex -117.2274611767256 48.93499999999999 42.37814437605585
    vertex -118.77407675782395 48.93499999999999 42.37814437605585
  endloop
endfacet
facet normal 0.0 1.0 0.0
  outer loop
    vertex -117.2274611767256 48.93499999999999 42.37814437605585
    vertex -118.77407675782395 48.93499999999999 43.07546238371868
    vertex -116.38710357774734 48.93499999999999 42.37814437605585
  endloop
endfacet
facet normal 0.0 1.0 0.0
  outer loop
    vertex -116.38710357774734 48.93499999999999 42.37814437605585
    vertex -118.77407675782395 48.93499999999999 43.07546238371868
    vertex -115.81941519971413 48.93499999999999 42.37814437605585
  endloop
endfacet
facet normal 0.0 1.0 0.0
  outer loop
    vertex -115.81941519971413 48.93499999999999 42.37814437605585
    vertex -118.77407675782395 48.93499999999999 43.07546238371868
    vertex -115.81941519971413 48.93499999999999 43.07546238371868
  endloop
endfacet
facet normal 0.0 1.0 0.0
  outer loop
    vertex -115.81941519971413 48.93499999999999 43.07546238371868
    vertex -118.77407675782395 48.93499999999999 43.07546238371868
    vertex -117.2274611767256 48.93499999999999 43.07546238371868
  endloop
endfacet
facet normal 0.0 1.0 0.0
  outer loop
    vertex -115.81941519971413 48.93499999999999 43.07546238371868
    vertex -117.2274611767256 48.93499999999999 43.07546238371868
    vertex -116.38710357774734 48.93499999999999 43.07546238371868
  endloop
endfacet
facet normal 0.0 1.0 0.0
  outer loop
    vertex -118.04993882678947 48.93499999999999 38.72169482305457
    vertex -116.4832083031624 48.93499999999999 38.879820621266575
    vertex -116.60333920993125 48.93499999999999 38.599189235570535
  endloop
endfacet
facet normal 0.0 1.0 0.0
  outer loop
    vertex -116.4832083031624 48.93499999999999 38.879820621266575
    vertex -118.04993882678947 48.93499999999999 38.72169482305457
    vertex -117.58953014224285 48.93499999999999 38.79991959955521
  endloop
endfacet
facet normal 0.0 1.0 0.0
  outer loop
    vertex -116.4832083031624 48.93499999999999 38.879820621266575
    vertex -117.58953014224285 48.93499999999999 38.79991959955521
    vertex -117.44313806050596 48.93499999999999 38.89770057018101
  endloop
endfacet
facet normal 0.0 1.0 0.0
  outer loop
    vertex -116.4832083031624 48.93499999999999 38.879820621266575
    vertex -117.44313806050596 48.93499999999999 38.89770057018101
    vertex -116.4111297591011 48.93499999999999 39.21716496992558
  endloop
endfacet
facet normal 0.0 1.0 0.0
  outer loop
    vertex -116.4111297591011 48.93499999999999 39.21716496992558
    vertex -117.44313806050596 48.93499999999999 38.89770057018101
    vertex -117.34368084466944 48.93499999999999 39.034593929057124
  endloop
endfacet
facet normal 0.0 1.0 0.0
  outer loop
    vertex -116.4111297591011 48.93499999999999 39.21716496992558
    vertex -117.34368084466944 48.93499999999999 39.034593929057124
    vertex -117.24087113841144 48.93499999999999 39.4190128307174
  endloop
endfacet
facet normal 0.0 1.0 0.0
  outer loop
    vertex -116.4111297591011 48.93499999999999 39.21716496992558
    vertex -117.24087113841144 48.93499999999999 39.4190128307174
    vertex -116.38710357774734 48.93499999999999 39.61122228154755
  endloop
endfacet
facet normal 0.0 1.0 0.0
  outer loop
    vertex -116.38710357774734 48.93499999999999 39.61122228154755
    vertex -117.24087113841144 48.93499999999999 39.4190128307174
    vertex -117.2274611767256 48.93499999999999 40.004581157665044
  endloop
endfacet
facet normal 0.0 1.0 0.0
  outer loop
    vertex -116.38710357774734 48.93499999999999 39.61122228154755
    vertex -117.2274611767256 48.93499999999999 40.004581157665044
    vertex -116.38710357774734 48.93499999999999 42.37814437605585
  endloop
endfacet
facet normal 0.0 1.0 0.0
  outer loop
    vertex -116.38710357774734 48.93499999999999 42.37814437605585
    vertex -117.2274611767256 48.93499999999999 40.004581157665044
    vertex -117.2274611767256 48.93499999999999 42.37814437605585
  endloop
endfacet
facet normal 0.0 1.0 0.0
  outer loop
    vertex -97.2868481499057 48.93499999999999 38.004261872863
    vertex -96.35597330954809 48.93499999999999 38.01040810530233
    vertex -96.84878940150212 48.93499999999999 37.97073696864844
  endloop
endfacet
facet normal 0.0 1.0 0.0
  outer loop
    vertex -96.35597330954809 48.93499999999999 38.01040810530233
    vertex -97.2868481499057 48.93499999999999 38.004261872863
    vertex -97.67126705156598 48.93499999999999 38.100366598278065
  endloop
endfacet
facet normal 0.0 1.0 0.0
  outer loop
    vertex -96.35597330954809 48.93499999999999 38.01040810530233
    vertex -97.67126705156598 48.93499999999999 38.100366598278065
    vertex -95.90562209626584 48.93499999999999 38.12942151526402
  endloop
endfacet
facet normal 0.0 1.0 0.0
  outer loop
    vertex -95.90562209626584 48.93499999999999 38.12942151526402
    vertex -97.67126705156598 48.93499999999999 38.100366598278065
    vertex -98.01098608094019 48.93499999999999 38.223291247064786
  endloop
endfacet
facet normal 0.0 1.0 0.0
  outer loop
    vertex -95.90562209626584 48.93499999999999 38.12942151526402
    vertex -98.01098608094019 48.93499999999999 38.223291247064786
    vertex -95.5066757361126 48.93499999999999 38.32889469534065
  endloop
endfacet
facet normal 0.0 1.0 0.0
  outer loop
    vertex -95.5066757361126 48.93499999999999 38.32889469534065
    vertex -98.01098608094019 48.93499999999999 38.223291247064786
    vertex -98.32388518694273 48.93499999999999 38.364095844765934
  endloop
endfacet
facet normal 0.0 1.0 0.0
  outer loop
    vertex -95.5066757361126 48.93499999999999 38.32889469534065
    vertex -98.32388518694273 48.93499999999999 38.364095844765934
    vertex -95.16807420354554 48.93499999999999 38.60994514233937
  endloop
endfacet
facet normal 0.0 1.0 0.0
  outer loop
    vertex -95.16807420354554 48.93499999999999 38.60994514233937
    vertex -98.32388518694273 48.93499999999999 38.364095844765934
    vertex -96.8353794398163 48.93499999999999 38.69934488691153
  endloop
endfacet
facet normal 0.0 1.0 0.0
  outer loop
    vertex -96.8353794398163 48.93499999999999 38.69934488691153
    vertex -98.32388518694273 48.93499999999999 38.364095844765934
    vertex -97.23656079358386 48.93499999999999 38.741809765583305
  endloop
endfacet
facet normal 0.0 1.0 0.0
  outer loop
    vertex -97.23656079358386 48.93499999999999 38.741809765583305
    vertex -98.32388518694273 48.93499999999999 38.364095844765934
    vertex -97.61762720482268 48.93499999999999 38.86920440159863
  endloop
endfacet
facet normal 0.0 1.0 0.0
  outer loop
    vertex -97.61762720482268 48.93499999999999 38.86920440159863
    vertex -98.32388518694273 48.93499999999999 38.364095844765934
    vertex -97.96740370546125 48.93499999999999 39.06364884604307
  endloop
endfacet
facet normal 0.0 1.0 0.0
  outer loop
    vertex -97.96740370546125 48.93499999999999 39.06364884604307
    vertex -98.32388518694273 48.93499999999999 38.364095844765934
    vertex -98.32388518694273 48.93499999999999 39.30726315000221
  endloop
endfacet
facet normal 0.0 1.0 0.0
  outer loop
    vertex -97.96740370546125 48.93499999999999 39.06364884604307
    vertex -98.32388518694273 48.93499999999999 39.30726315000221
    vertex -98.27471532742805 48.93499999999999 39.30726315000221
  endloop
endfacet
facet normal 0.0 1.0 0.0
  outer loop
    vertex -98.32388518694273 48.93499999999999 42.80726315000221
    vertex -98.27471532742805 48.93499999999999 41.864095844765934
    vertex -98.32388518694273 48.93499999999999 41.864095844765934
  endloop
endfacet
facet normal 0.0 1.0 0.0
  outer loop
    vertex -98.27471532742805 48.93499999999999 41.864095844765934
    vertex -98.32388518694273 48.93499999999999 42.80726315000221
    vertex -98.04451098515473 48.93499999999999 42.03842534668164
  endloop
endfacet
facet normal 0.0 1.0 0.0
  outer loop
    vertex -98.04451098515473 48.93499999999999 42.03842534668164
    vertex -98.32388518694273 48.93499999999999 42.80726315000221
    vertex -97.70255696216623 48.93499999999999 42.239574771969004
  endloop
endfacet
facet normal 0.0 1.0 0.0
  outer loop
    vertex -97.70255696216623 48.93499999999999 42.239574771969004
    vertex -98.32388518694273 48.93499999999999 42.80726315000221
    vertex -97.2913181371343 48.93499999999999 42.39602432497028
  endloop
endfacet
facet normal 0.0 1.0 0.0
  outer loop
    vertex -97.2913181371343 48.93499999999999 42.39602432497028
    vertex -98.32388518694273 48.93499999999999 42.80726315000221
    vertex -96.8353794398163 48.93499999999999 42.463074133399395
  endloop
endfacet
facet normal 0.0 1.0 0.0
  outer loop
    vertex -96.8353794398163 48.93499999999999 42.463074133399395
    vertex -98.32388518694273 48.93499999999999 42.80726315000221
    vertex -95.16807420354554 48.93499999999999 42.51224399291409
  endloop
endfacet
facet normal 0.0 1.0 0.0
  outer loop
    vertex -95.16807420354554 48.93499999999999 42.51224399291409
    vertex -98.32388518694273 48.93499999999999 42.80726315000221
    vertex -95.4994120068661 48.93499999999999 42.80111691756287
  endloop
endfacet
facet normal 0.0 1.0 0.0
  outer loop
    vertex -95.4994120068661 48.93499999999999 42.80111691756287
    vertex -98.32388518694273 48.93499999999999 42.80726315000221
    vertex -95.90338710265155 48.93499999999999 43.01511755613247
  endloop
endfacet
facet normal 0.0 1.0 0.0
  outer loop
    vertex -95.90338710265155 48.93499999999999 43.01511755613247
    vertex -98.32388518694273 48.93499999999999 42.80726315000221
    vertex -97.64221213458002 48.93499999999999 43.07546238371868
  endloop
endfacet
facet normal 0.0 1.0 0.0
  outer loop
    vertex -95.90338710265155 48.93499999999999 43.01511755613247
    vertex -97.64221213458002 48.93499999999999 43.07546238371868
    vertex -96.35988454837313 48.93499999999999 43.147540927779986
  endloop
endfacet
facet normal 0.0 1.0 0.0
  outer loop
    vertex -96.35988454837313 48.93499999999999 43.147540927779986
    vertex -97.64221213458002 48.93499999999999 43.07546238371868
    vertex -97.25276449728756 48.93499999999999 43.16262713467654
  endloop
endfacet
facet normal 0.0 1.0 0.0
  outer loop
    vertex -96.35988454837313 48.93499999999999 43.147540927779986
    vertex -97.25276449728756 48.93499999999999 43.16262713467654
    vertex -96.84878940150212 48.93499999999999 43.19168205166248
  endloop
endfacet
facet normal 0.0 1.0 0.0
  outer loop
    vertex -95.16807420354554 48.93499999999999 38.60994514233937
    vertex -96.514238794861 48.93499999999999 38.730215736209104
    vertex -94.8942874857933 48.93499999999999 38.97369035306734
  endloop
endfacet
facet normal 0.0 1.0 0.0
  outer loop
    vertex -96.514238794861 48.93499999999999 38.730215736209104
    vertex -95.16807420354554 48.93499999999999 38.60994514233937
    vertex -96.8353794398163 48.93499999999999 38.69934488691153
  endloop
endfacet
facet normal 0.0 1.0 0.0
  outer loop
    vertex -94.8942874857933 48.93499999999999 38.97369035306734
    vertex -96.514238794861 48.93499999999999 38.730215736209104
    vertex -96.2302549187435 48.93499999999999 38.822828284101824
  endloop
endfacet
facet normal 0.0 1.0 0.0
  outer loop
    vertex -94.8942874857933 48.93499999999999 38.97369035306734
    vertex -96.2302549187435 48.93499999999999 38.822828284101824
    vertex -95.98342781146381 48.93499999999999 38.97718253058969
  endloop
endfacet
facet normal 0.0 1.0 0.0
  outer loop
    vertex -94.8942874857933 48.93499999999999 38.97369035306734
    vertex -95.98342781146381 48.93499999999999 38.97718253058969
    vertex -94.6897855700845 48.93499999999999 39.42124782433171
  endloop
endfacet
facet normal 0.0 1.0 0.0
  outer loop
    vertex -94.6897855700845 48.93499999999999 39.42124782433171
    vertex -95.98342781146381 48.93499999999999 38.97718253058969
    vertex -95.77375747302192 48.93499999999999 39.193278475672706
  endloop
endfacet
facet normal 0.0 1.0 0.0
  outer loop
    vertex -94.6897855700845 48.93499999999999 39.42124782433171
    vertex -95.77375747302192 48.93499999999999 39.193278475672706
    vertex -95.6065520132518 48.93499999999999 39.464690512709744
  endloop
endfacet
facet normal 0.0 1.0 0.0
  outer loop
    vertex -94.6897855700845 48.93499999999999 39.42124782433171
    vertex -95.6065520132518 48.93499999999999 39.464690512709744
    vertex -94.56239093406917 48.93499999999999 39.95373505293963
  endloop
endfacet
facet normal 0.0 1.0 0.0
  outer loop
    vertex -94.56239093406917 48.93499999999999 39.95373505293963
    vertex -95.6065520132518 48.93499999999999 39.464690512709744
    vertex -95.48711954198743 48.93499999999999 39.78499303505968
  endloop
endfacet
facet normal 0.0 1.0 0.0
  outer loop
    vertex -94.56239093406917 48.93499999999999 39.95373505293963
    vertex -95.48711954198743 48.93499999999999 39.78499303505968
    vertex -95.4154600592288 48.93499999999999 40.154186042722515
  endloop
endfacet
facet normal 0.0 1.0 0.0
  outer loop
    vertex -94.56239093406917 48.93499999999999 39.95373505293963
    vertex -95.4154600592288 48.93499999999999 40.154186042722515
    vertex -94.51992605539739 48.93499999999999 40.57226953569825
  endloop
endfacet
facet normal 0.0 1.0 0.0
  outer loop
    vertex -94.51992605539739 48.93499999999999 40.57226953569825
    vertex -95.4154600592288 48.93499999999999 40.154186042722515
    vertex -95.39157356497593 48.93499999999999 40.57226953569825
  endloop
endfacet
facet normal 0.0 1.0 0.0
  outer loop
    vertex -94.51992605539739 48.93499999999999 40.57226953569825
    vertex -95.39157356497593 48.93499999999999 40.57226953569825
    vertex -95.41629818183418 48.93499999999999 40.998175506324046
  endloop
endfacet
facet normal 0.0 1.0 0.0
  outer loop
    vertex -94.51992605539739 48.93499999999999 40.57226953569825
    vertex -95.41629818183418 48.93499999999999 40.998175506324046
    vertex -94.56406717927989 48.93499999999999 41.18465778601753
  endloop
endfacet
facet normal 0.0 1.0 0.0
  outer loop
    vertex -94.56406717927989 48.93499999999999 41.18465778601753
    vertex -95.41629818183418 48.93499999999999 40.998175506324046
    vertex -95.49047203240889 48.93499999999999 41.37295599802264
  endloop
endfacet
facet normal 0.0 1.0 0.0
  outer loop
    vertex -94.56406717927989 48.93499999999999 41.18465778601753
    vertex -95.49047203240889 48.93499999999999 41.37295599802264
    vertex -94.69649055092741 48.93499999999999 41.707646291764654
  endloop
endfacet
facet normal 0.0 1.0 0.0
  outer loop
    vertex -94.69649055092741 48.93499999999999 41.707646291764654
    vertex -95.49047203240889 48.93499999999999 41.37295599802264
    vertex -95.61409511670007 48.93499999999999 41.69661101079404
  endloop
endfacet
facet normal 0.0 1.0 0.0
  outer loop
    vertex -94.69649055092741 48.93499999999999 41.707646291764654
    vertex -95.61409511670007 48.93499999999999 41.69661101079404
    vertex -95.78716743470774 48.93499999999999 41.96914054463822
  endloop
endfacet
facet normal 0.0 1.0 0.0
  outer loop
    vertex -94.69649055092741 48.93499999999999 41.707646291764654
    vertex -95.78716743470774 48.93499999999999 41.96914054463822
    vertex -94.90266871184694 48.93499999999999 42.14794003378254
  endloop
endfacet
facet normal 0.0 1.0 0.0
  outer loop
    vertex -94.90266871184694 48.93499999999999 42.14794003378254
    vertex -95.78716743470774 48.93499999999999 41.96914054463822
    vertex -96.00102838617644 48.93499999999999 42.185236489721234
  endloop
endfacet
facet normal 0.0 1.0 0.0
  outer loop
    vertex -94.90266871184694 48.93499999999999 42.14794003378254
    vertex -96.00102838617644 48.93499999999999 42.185236489721234
    vertex -95.16807420354554 48.93499999999999 42.51224399291409
  endloop
endfacet
facet normal 0.0 1.0 0.0
  outer loop
    vertex -95.16807420354554 48.93499999999999 42.51224399291409
    vertex -96.00102838617644 48.93499999999999 42.185236489721234
    vertex -96.24701737085077 48.93499999999999 42.339590736209104
  endloop
endfacet
facet normal 0.0 1.0 0.0
  outer loop
    vertex -95.16807420354554 48.93499999999999 42.51224399291409
    vertex -96.24701737085077 48.93499999999999 42.339590736209104
    vertex -96.52513438873073 48.93499999999999 42.432203284101824
  endloop
endfacet
facet normal 0.0 1.0 0.0
  outer loop
    vertex -95.16807420354554 48.93499999999999 42.51224399291409
    vertex -96.52513438873073 48.93499999999999 42.432203284101824
    vertex -96.8353794398163 48.93499999999999 42.463074133399395
  endloop
endfacet
facet normal 0.0 1.0 0.0
  outer loop
    vertex -116.04738454837313 48.93499999999999 45.002026879248696
    vertex -116.00268467608704 48.93499999999999 44.23318907592813
    vertex -116.04738454837313 48.93499999999999 44.23318907592813
  endloop
endfacet
facet normal 0.0 1.0 0.0
  outer loop
    vertex -116.00268467608704 48.93499999999999 44.23318907592813
    vertex -116.04738454837313 48.93499999999999 45.002026879248696
    vertex -115.68084559562728 48.93499999999999 44.31141385242877
  endloop
endfacet
facet normal 0.0 1.0 0.0
  outer loop
    vertex -115.68084559562728 48.93499999999999 44.31141385242877
    vertex -116.04738454837313 48.93499999999999 45.002026879248696
    vertex -115.30536666842421 48.93499999999999 44.34940874387194
  endloop
endfacet
facet normal 0.0 1.0 0.0
  outer loop
    vertex -115.30536666842421 48.93499999999999 44.34940874387194
    vertex -116.04738454837313 48.93499999999999 45.002026879248696
    vertex -113.75232548068476 48.93499999999999 44.35136436328445
  endloop
endfacet
facet normal 0.0 1.0 0.0
  outer loop
    vertex -113.75232548068476 48.93499999999999 44.35136436328445
    vertex -116.04738454837313 48.93499999999999 45.002026879248696
    vertex -113.9420205636988 48.93499999999999 44.6131379903598
  endloop
endfacet
facet normal 0.0 1.0 0.0
  outer loop
    vertex -113.9420205636988 48.93499999999999 44.6131379903598
    vertex -116.04738454837313 48.93499999999999 45.002026879248696
    vertex -114.18228237723648 48.93499999999999 44.81847802867398
  endloop
endfacet
facet normal 0.0 1.0 0.0
  outer loop
    vertex -114.18228237723648 48.93499999999999 44.81847802867398
    vertex -116.04738454837313 48.93499999999999 45.002026879248696
    vertex -114.46947905667452 48.93499999999999 44.96514948461268
  endloop
endfacet
facet normal 0.0 1.0 0.0
  outer loop
    vertex -114.46947905667452 48.93499999999999 44.96514948461268
    vertex -116.04738454837313 48.93499999999999 45.002026879248696
    vertex -114.80361060201298 48.93499999999999 45.0531523581759
  endloop
endfacet
facet normal 0.0 1.0 0.0
  outer loop
    vertex -114.80361060201298 48.93499999999999 45.0531523581759
    vertex -116.04738454837313 48.93499999999999 45.002026879248696
    vertex -115.6406157105698 48.93499999999999 45.05790171960629
  endloop
endfacet
facet normal 0.0 1.0 0.0
  outer loop
    vertex -114.80361060201298 48.93499999999999 45.0531523581759
    vertex -115.6406157105698 48.93499999999999 45.05790171960629
    vertex -115.18467701325179 48.93499999999999 45.08248664936364
  endloop
endfacet
facet normal 0.0 1.0 0.0
  outer loop
    vertex -114.32196947813048 48.93499999999999 43.245321898405784
    vertex -113.50843180252383 48.93499999999999 43.07546238371868
    vertex -114.32196947813048 48.93499999999999 43.07546238371868
  endloop
endfacet
facet normal 0.0 1.0 0.0
  outer loop
    vertex -113.50843180252383 48.93499999999999 43.07546238371868
    vertex -114.32196947813048 48.93499999999999 43.245321898405784
    vertex -113.50843180252383 48.93499999999999 43.240851911177174
  endloop
endfacet
facet normal 0.0 1.0 0.0
  outer loop
    vertex -113.50843180252383 48.93499999999999 43.240851911177174
    vertex -114.32196947813048 48.93499999999999 43.245321898405784
    vertex -113.53553110009726 48.93499999999999 43.66522132369314
  endloop
endfacet
facet normal 0.0 1.0 0.0
  outer loop
    vertex -113.53553110009726 48.93499999999999 43.66522132369314
    vertex -114.32196947813048 48.93499999999999 43.245321898405784
    vertex -114.37840306689165 48.93499999999999 43.77445663659225
  endloop
endfacet
facet normal 0.0 1.0 0.0
  outer loop
    vertex -113.53553110009726 48.93499999999999 43.66522132369314
    vertex -114.37840306689165 48.93499999999999 43.77445663659225
    vertex -113.61682899281757 48.93499999999999 44.03539214106223
  endloop
endfacet
facet normal 0.0 1.0 0.0
  outer loop
    vertex -113.61682899281757 48.93499999999999 44.03539214106223
    vertex -114.37840306689165 48.93499999999999 43.77445663659225
    vertex -114.54770383317518 48.93499999999999 44.110264427141416
  endloop
endfacet
facet normal 0.0 1.0 0.0
  outer loop
    vertex -113.61682899281757 48.93499999999999 44.03539214106223
    vertex -114.54770383317518 48.93499999999999 44.110264427141416
    vertex -113.75232548068476 48.93499999999999 44.35136436328445
  endloop
endfacet
facet normal 0.0 1.0 0.0
  outer loop
    vertex -113.75232548068476 48.93499999999999 44.35136436328445
    vertex -114.54770383317518 48.93499999999999 44.110264427141416
    vertex -114.84998671950977 48.93499999999999 44.289622664689304
  endloop
endfacet
facet normal 0.0 1.0 0.0
  outer loop
    vertex -113.75232548068476 48.93499999999999 44.35136436328445
    vertex -114.84998671950977 48.93499999999999 44.289622664689304
    vertex -115.30536666842421 48.93499999999999 44.34940874387194
  endloop
endfacet
facet normal 0.0 1.0 0.0
  outer loop
    vertex -115.71213550622753 48.93499999999999 43.07546238371868
    vertex -114.34878940150212 48.93499999999999 42.37814437605585
    vertex -115.71213550622753 48.93499999999999 42.37814437605585
  endloop
endfacet
facet normal 0.0 1.0 0.0
  outer loop
    vertex -114.34878940150212 48.93499999999999 42.37814437605585
    vertex -115.71213550622753 48.93499999999999 43.07546238371868
    vertex -113.50843180252383 48.93499999999999 42.37814437605585
  endloop
endfacet
facet normal 0.0 1.0 0.0
  outer loop
    vertex -113.50843180252383 48.93499999999999 42.37814437605585
    vertex -115.71213550622753 48.93499999999999 43.07546238371868
    vertex -112.94074342449062 48.93499999999999 42.37814437605585
  endloop
endfacet
facet normal 0.0 1.0 0.0
  outer loop
    vertex -112.94074342449062 48.93499999999999 42.37814437605585
    vertex -115.71213550622753 48.93499999999999 43.07546238371868
    vertex -112.94074342449062 48.93499999999999 43.07546238371868
  endloop
endfacet
facet normal 0.0 1.0 0.0
  outer loop
    vertex -112.94074342449062 48.93499999999999 43.07546238371868
    vertex -115.71213550622753 48.93499999999999 43.07546238371868
    vertex -114.32196947813048 48.93499999999999 43.07546238371868
  endloop
endfacet
facet normal 0.0 1.0 0.0
  outer loop
    vertex -112.94074342449062 48.93499999999999 43.07546238371868
    vertex -114.32196947813048 48.93499999999999 43.07546238371868
    vertex -113.50843180252383 48.93499999999999 43.07546238371868
  endloop
endfacet
facet normal 0.0 1.0 0.0
  outer loop
    vertex -114.34878940150212 48.93499999999999 42.37814437605585
    vertex -113.50843180252383 48.93499999999999 38.08248664936364
    vertex -114.34878940150212 48.93499999999999 38.08248664936364
  endloop
endfacet
facet normal 0.0 1.0 0.0
  outer loop
    vertex -113.50843180252383 48.93499999999999 38.08248664936364
    vertex -114.34878940150212 48.93499999999999 42.37814437605585
    vertex -113.50843180252383 48.93499999999999 42.37814437605585
  endloop
endfacet
facet normal 0.0 1.0 0.0
  outer loop
    vertex -87.53249789447786 48.93499999999999 37.990572536975385
    vertex -86.72706207072306 48.93499999999999 37.969060723437714
    vertex -87.10421724313686 48.93499999999999 37.94391704527679
  endloop
endfacet
facet normal 0.0 1.0 0.0
  outer loop
    vertex -86.72706207072306 48.93499999999999 37.969060723437714
    vertex -87.53249789447786 48.93499999999999 37.990572536975385
    vertex -86.40913422908832 48.93499999999999 38.04449175792047
  endloop
endfacet
facet normal 0.0 1.0 0.0
  outer loop
    vertex -86.40913422908832 48.93499999999999 38.04449175792047
    vertex -87.53249789447786 48.93499999999999 37.990572536975385
    vertex -87.92334240277926 48.93499999999999 38.130539012071175
  endloop
endfacet
facet normal 0.0 1.0 0.0
  outer loop
    vertex -86.40913422908832 48.93499999999999 38.04449175792047
    vertex -87.92334240277926 48.93499999999999 38.130539012071175
    vertex -85.83921085744082 48.93499999999999 38.31492598525124
  endloop
endfacet
facet normal 0.0 1.0 0.0
  outer loop
    vertex -85.83921085744082 48.93499999999999 38.31492598525124
    vertex -87.92334240277926 48.93499999999999 38.130539012071175
    vertex -88.27675076804107 48.93499999999999 38.363816470564146
  endloop
endfacet
facet normal 0.0 1.0 0.0
  outer loop
    vertex -88.5927229902633 48.93499999999999 38.69040491245431
    vertex -87.24781558285589 48.93499999999999 38.727841055493904
    vertex -86.94329770290697 48.93499999999999 38.69934488691153
  endloop
endfacet
facet normal 0.0 1.0 0.0
  outer loop
    vertex -87.24781558285589 48.93499999999999 38.727841055493904
    vertex -88.5927229902633 48.93499999999999 38.69040491245431
    vertex -88.85282037212792 48.93499999999999 39.093541885634394
  endloop
endfacet
facet normal 0.0 1.0 0.0
  outer loop
    vertex -87.24781558285589 48.93499999999999 38.727841055493904
    vertex -88.85282037212792 48.93499999999999 39.093541885634394
    vertex -87.5176910617831 48.93499999999999 38.81332956124103
  endloop
endfacet
facet normal 0.0 1.0 0.0
  outer loop
    vertex -87.5176910617831 48.93499999999999 38.81332956124103
    vertex -88.85282037212792 48.93499999999999 39.093541885634394
    vertex -87.75292413968859 48.93499999999999 38.95581040415291
  endloop
endfacet
facet normal 0.0 1.0 0.0
  outer loop
    vertex -87.75292413968859 48.93499999999999 38.95581040415291
    vertex -88.85282037212792 48.93499999999999 39.093541885634394
    vertex -87.95351481657237 48.93499999999999 39.15528358422954
  endloop
endfacet
facet normal 0.0 1.0 0.0
  outer loop
    vertex -87.95351481657237 48.93499999999999 39.15528358422954
    vertex -88.85282037212792 48.93499999999999 39.093541885634394
    vertex -89.03860421631693 48.93499999999999 39.5564649379971
  endloop
endfacet
facet normal 0.0 1.0 0.0
  outer loop
    vertex -87.95351481657237 48.93499999999999 39.15528358422954
    vertex -89.03860421631693 48.93499999999999 39.5564649379971
    vertex -88.11387560839867 48.93499999999999 39.41621908869953
  endloop
endfacet
facet normal 0.0 1.0 0.0
  outer loop
    vertex -88.11387560839867 48.93499999999999 39.41621908869953
    vertex -89.03860421631693 48.93499999999999 39.5564649379971
    vertex -88.22841903113175 48.93499999999999 39.74308690479148
  endloop
endfacet
facet normal 0.0 1.0 0.0
  outer loop
    vertex -88.22841903113175 48.93499999999999 39.74308690479148
    vertex -89.03860421631693 48.93499999999999 39.5564649379971
    vertex -89.15007452283034 48.93499999999999 40.07917406954244
  endloop
endfacet
facet normal 0.0 1.0 0.0
  outer loop
    vertex -88.22841903113175 48.93499999999999 39.74308690479148
    vertex -89.15007452283034 48.93499999999999 40.07917406954244
    vertex -88.29714508477159 48.93499999999999 40.135887032505394
  endloop
endfacet
facet normal 0.0 1.0 0.0
  outer loop
    vertex -88.29714508477159 48.93499999999999 40.135887032505394
    vertex -89.15007452283034 48.93499999999999 40.07917406954244
    vertex -89.18723129166814 48.93499999999999 40.6616692802704
  endloop
endfacet
facet normal 0.0 1.0 0.0
  outer loop
    vertex -88.29714508477159 48.93499999999999 40.135887032505394
    vertex -89.18723129166814 48.93499999999999 40.6616692802704
    vertex -88.3200537693182 48.93499999999999 40.594619471841284
  endloop
endfacet
facet normal 0.0 1.0 0.0
  outer loop
    vertex -88.3200537693182 48.93499999999999 40.594619471841284
    vertex -89.18723129166814 48.93499999999999 40.6616692802704
    vertex -88.25188646408193 48.93499999999999 41.380778475672706
  endloop
endfacet
facet normal 0.0 1.0 0.0
  outer loop
    vertex -88.25188646408193 48.93499999999999 41.380778475672706
    vertex -89.18723129166814 48.93499999999999 40.6616692802704
    vertex -89.15677950367326 48.93499999999999 41.22810047439557
  endloop
endfacet
facet normal 0.0 1.0 0.0
  outer loop
    vertex -88.25188646408193 48.93499999999999 41.380778475672706
    vertex -89.15677950367326 48.93499999999999 41.22810047439557
    vertex -89.06542413968857 48.93499999999999 41.72943747950412
  endloop
endfacet
facet normal 0.0 1.0 0.0
  outer loop
    vertex -88.25188646408193 48.93499999999999 41.380778475672706
    vertex -89.06542413968857 48.93499999999999 41.72943747950412
    vertex -88.04738454837313 48.93499999999999 41.951260595723795
  endloop
endfacet
facet normal 0.0 1.0 0.0
  outer loop
    vertex -88.04738454837313 48.93499999999999 41.951260595723795
    vertex -89.06542413968857 48.93499999999999 41.72943747950412
    vertex -88.91316519971411 48.93499999999999 42.165680295596076
  endloop
endfacet
facet normal 0.0 1.0 0.0
  outer loop
    vertex -88.04738454837313 48.93499999999999 41.951260595723795
    vertex -88.91316519971411 48.93499999999999 42.165680295596076
    vertex -87.89037624696827 48.93499999999999 42.15366720491919
  endloop
endfacet
facet normal 0.0 1.0 0.0
  outer loop
    vertex -87.89037624696827 48.93499999999999 42.15366720491919
    vertex -88.91316519971411 48.93499999999999 42.165680295596076
    vertex -87.69202056369879 48.93499999999999 42.29824335434448
  endloop
endfacet
facet normal 0.0 1.0 0.0
  outer loop
    vertex -87.69202056369879 48.93499999999999 42.29824335434448
    vertex -88.91316519971411 48.93499999999999 42.165680295596076
    vertex -88.70000268374989 48.93499999999999 42.536828922671425
  endloop
endfacet
facet normal 0.0 1.0 0.0
  outer loop
    vertex -87.69202056369879 48.93499999999999 42.29824335434448
    vertex -88.70000268374989 48.93499999999999 42.536828922671425
    vertex -87.4523174985647 48.93499999999999 42.38498904399965
  endloop
endfacet
facet normal 0.0 1.0 0.0
  outer loop
    vertex -87.4523174985647 48.93499999999999 42.38498904399965
    vertex -88.70000268374989 48.93499999999999 42.536828922671425
    vertex -87.17126705156598 48.93499999999999 42.41390427388471
  endloop
endfacet
facet normal 0.0 1.0 0.0
  outer loop
    vertex -88.43403844364771 48.93499999999999 42.8331052636676
    vertex -85.83921085744082 48.93499999999999 42.55247387797155
    vertex -88.70000268374989 48.93499999999999 42.536828922671425
  endloop
endfacet
facet normal 0.0 1.0 0.0
  outer loop
    vertex -85.83921085744082 48.93499999999999 42.55247387797155
    vertex -88.43403844364771 48.93499999999999 42.8331052636676
    vertex -86.1699899123578 48.93499999999999 42.81396813084511
  endloop
endfacet
facet normal 0.0 1.0 0.0
  outer loop
    vertex -86.1699899123578 48.93499999999999 42.81396813084511
    vertex -88.43403844364771 48.93499999999999 42.8331052636676
    vertex -86.52758889064644 48.93499999999999 43.026292524203996
  endloop
endfacet
facet normal 0.0 1.0 0.0
  outer loop
    vertex -86.52758889064644 48.93499999999999 43.026292524203996
    vertex -88.43403844364771 48.93499999999999 42.8331052636676
    vertex -88.12337433125946 48.93499999999999 43.044731221522
  endloop
endfacet
facet normal 0.0 1.0 0.0
  outer loop
    vertex -86.52758889064644 48.93499999999999 43.026292524203996
    vertex -88.12337433125946 48.93499999999999 43.044731221522
    vertex -86.92318276037824 48.93499999999999 43.167097121905144
  endloop
endfacet
facet normal 0.0 1.0 0.0
  outer loop
    vertex -86.92318276037824 48.93499999999999 43.167097121905144
    vertex -88.12337433125946 48.93499999999999 43.044731221522
    vertex -87.76801034658513 48.93499999999999 43.171706796234645
  endloop
endfacet
facet normal 0.0 1.0 0.0
  outer loop
    vertex -86.92318276037824 48.93499999999999 43.167097121905144
    vertex -87.76801034658513 48.93499999999999 43.171706796234645
    vertex -87.36794648962471 48.93499999999999 43.21403198780553
  endloop
endfacet
facet normal 0.0 1.0 0.0
  outer loop
    vertex -85.83921085744082 48.93499999999999 38.31492598525124
    vertex -84.99885325846253 48.93499999999999 38.08248664936364
    vertex -85.78557101069752 48.93499999999999 38.08248664936364
  endloop
endfacet
facet normal 0.0 1.0 0.0
  outer loop
    vertex -84.99885325846253 48.93499999999999 38.08248664936364
    vertex -85.83921085744082 48.93499999999999 38.31492598525124
    vertex -84.99885325846253 48.93499999999999 45.03778677707756
  endloop
endfacet
facet normal 0.0 1.0 0.0
  outer loop
    vertex -84.99885325846253 48.93499999999999 45.03778677707756
    vertex -85.83921085744082 48.93499999999999 38.31492598525124
    vertex -85.83921085744082 48.93499999999999 38.98542406954244
  endloop
endfacet
facet normal 0.0 1.0 0.0
  outer loop
    vertex -85.83921085744082 48.93499999999999 38.98542406954244
    vertex -85.83921085744082 48.93499999999999 38.31492598525124
    vertex -86.40242924824541 48.93499999999999 38.76415970172634
  endloop
endfacet
facet normal 0.0 1.0 0.0
  outer loop
    vertex -86.40242924824541 48.93499999999999 38.76415970172634
    vertex -85.83921085744082 48.93499999999999 38.31492598525124
    vertex -88.27675076804107 48.93499999999999 38.363816470564146
  endloop
endfacet
facet normal 0.0 1.0 0.0
  outer loop
    vertex -86.40242924824541 48.93499999999999 38.76415970172634
    vertex -88.27675076804107 48.93499999999999 38.363816470564146
    vertex -86.94329770290697 48.93499999999999 38.69934488691153
  endloop
endfacet
facet normal 0.0 1.0 0.0
  outer loop
    vertex -86.94329770290697 48.93499999999999 38.69934488691153
    vertex -88.27675076804107 48.93499999999999 38.363816470564146
    vertex -88.5927229902633 48.93499999999999 38.69040491245431
  endloop
endfacet
facet normal 0.0 1.0 0.0
  outer loop
    vertex -84.99885325846253 48.93499999999999 45.03778677707756
    vertex -85.83921085744082 48.93499999999999 38.98542406954244
    vertex -85.83921085744082 48.93499999999999 41.84621589585151
  endloop
endfacet
facet normal 0.0 1.0 0.0
  outer loop
    vertex -84.99885325846253 48.93499999999999 45.03778677707756
    vertex -85.83921085744082 48.93499999999999 41.84621589585151
    vertex -85.83921085744082 48.93499999999999 42.55247387797155
  endloop
endfacet
facet normal 0.0 1.0 0.0
  outer loop
    vertex -85.83921085744082 48.93499999999999 42.55247387797155
    vertex -85.83921085744082 48.93499999999999 41.84621589585151
    vertex -86.14149374377543 48.93499999999999 42.070832754089054
  endloop
endfacet
facet normal 0.0 1.0 0.0
  outer loop
    vertex -85.83921085744082 48.93499999999999 42.55247387797155
    vertex -86.14149374377543 48.93499999999999 42.070832754089054
    vertex -86.47618403751744 48.93499999999999 42.25298473365482
  endloop
endfacet
facet normal 0.0 1.0 0.0
  outer loop
    vertex -85.83921085744082 48.93499999999999 42.55247387797155
    vertex -86.47618403751744 48.93499999999999 42.25298473365482
    vertex -86.82540178975245 48.93499999999999 42.37367438882723
  endloop
endfacet
facet normal 0.0 1.0 0.0
  outer loop
    vertex -85.83921085744082 48.93499999999999 42.55247387797155
    vertex -86.82540178975245 48.93499999999999 42.37367438882723
    vertex -87.17126705156598 48.93499999999999 42.41390427388471
  endloop
endfacet
facet normal 0.0 1.0 0.0
  outer loop
    vertex -85.83921085744082 48.93499999999999 42.55247387797155
    vertex -87.17126705156598 48.93499999999999 42.41390427388471
    vertex -88.70000268374989 48.93499999999999 42.536828922671425
  endloop
endfacet
facet normal 0.0 1.0 0.0
  outer loop
    vertex -84.99885325846253 48.93499999999999 45.03778677707756
    vertex -85.83921085744082 48.93499999999999 42.55247387797155
    vertex -85.83921085744082 48.93499999999999 45.03778677707756
  endloop
endfacet
facet normal 0.0 1.0 0.0
  outer loop
    vertex -112.56973448451618 48.93499999999999 40.94774846290131
    vertex -109.10996436957365 48.93499999999999 40.491809765583305
    vertex -112.56973448451618 48.93499999999999 40.491809765583305
  endloop
endfacet
facet normal 0.0 1.0 0.0
  outer loop
    vertex -109.10996436957365 48.93499999999999 40.491809765583305
    vertex -112.56973448451618 48.93499999999999 40.94774846290131
    vertex -108.25619680890952 48.93499999999999 40.54991959955521
  endloop
endfacet
facet normal 0.0 1.0 0.0
  outer loop
    vertex -108.25619680890952 48.93499999999999 40.54991959955521
    vertex -112.56973448451618 48.93499999999999 40.94774846290131
    vertex -108.2961473197652 48.93499999999999 41.128922632760826
  endloop
endfacet
facet normal 0.0 1.0 0.0
  outer loop
    vertex -108.2961473197652 48.93499999999999 41.128922632760826
    vertex -112.56973448451618 48.93499999999999 40.94774846290131
    vertex -111.75172682168092 48.93499999999999 41.13548792650285
  endloop
endfacet
facet normal 0.0 1.0 0.0
  outer loop
    vertex -111.75172682168092 48.93499999999999 41.13548792650285
    vertex -112.56973448451618 48.93499999999999 40.94774846290131
    vertex -112.53397458668731 48.93499999999999 41.500350634037964
  endloop
endfacet
facet normal 0.0 1.0 0.0
  outer loop
    vertex -111.75172682168092 48.93499999999999 41.13548792650285
    vertex -112.53397458668731 48.93499999999999 41.500350634037964
    vertex -111.67126705156596 48.93499999999999 41.72105625345048
  endloop
endfacet
facet normal 0.0 1.0 0.0
  outer loop
    vertex -111.67126705156596 48.93499999999999 41.72105625345048
    vertex -112.53397458668731 48.93499999999999 41.500350634037964
    vertex -112.4266948932007 48.93499999999999 41.960200570181
  endloop
endfacet
facet normal 0.0 1.0 0.0
  outer loop
    vertex -111.67126705156596 48.93499999999999 41.72105625345048
    vertex -112.4266948932007 48.93499999999999 41.960200570181
    vertex -111.46564763905 48.93499999999999 42.13676506571102
  endloop
endfacet
facet normal 0.0 1.0 0.0
  outer loop
    vertex -111.46564763905 48.93499999999999 42.13676506571102
    vertex -112.4266948932007 48.93499999999999 41.960200570181
    vertex -112.25236539128501 48.93499999999999 42.341825729823405
  endloop
endfacet
facet normal 0.0 1.0 0.0
  outer loop
    vertex -111.46564763905 48.93499999999999 42.13676506571102
    vertex -112.25236539128501 48.93499999999999 42.341825729823405
    vertex -111.29746436957362 48.93499999999999 42.30215459316951
  endloop
endfacet
facet normal 0.0 1.0 0.0
  outer loop
    vertex -111.29746436957362 48.93499999999999 42.30215459316951
    vertex -112.25236539128501 48.93499999999999 42.341825729823405
    vertex -111.08793371823265 48.93499999999999 42.422844248341924
  endloop
endfacet
facet normal 0.0 1.0 0.0
  outer loop
    vertex -111.08793371823265 48.93499999999999 42.422844248341924
    vertex -112.25236539128501 48.93499999999999 42.341825729823405
    vertex -112.01545606816879 48.93499999999999 42.65975357145814
  endloop
endfacet
facet normal 0.0 1.0 0.0
  outer loop
    vertex -111.08793371823265 48.93499999999999 42.422844248341924
    vertex -112.01545606816879 48.93499999999999 42.65975357145814
    vertex -110.83035070418411 48.93499999999999 42.49659903761396
  endloop
endfacet
facet normal 0.0 1.0 0.0
  outer loop
    vertex -110.83035070418411 48.93499999999999 42.49659903761396
    vertex -112.01545606816879 48.93499999999999 42.65975357145814
    vertex -110.51801034658513 48.93499999999999 42.5211839673713
  endloop
endfacet
facet normal 0.0 1.0 0.0
  outer loop
    vertex -108.2961473197652 48.93499999999999 41.128922632760826
    vertex -109.10996436957365 48.93499999999999 41.13548792650285
    vertex -108.41599885233227 48.93499999999999 41.64562521896772
  endloop
endfacet
facet normal 0.0 1.0 0.0
  outer loop
    vertex -109.10996436957365 48.93499999999999 41.13548792650285
    vertex -108.2961473197652 48.93499999999999 41.128922632760826
    vertex -111.75172682168092 48.93499999999999 41.13548792650285
  endloop
endfacet
facet normal 0.0 1.0 0.0
  outer loop
    vertex -108.41599885233227 48.93499999999999 41.64562521896772
    vertex -109.10996436957365 48.93499999999999 41.13548792650285
    vertex -109.23512401197466 48.93499999999999 41.69200133646453
  endloop
endfacet
facet normal 0.0 1.0 0.0
  outer loop
    vertex -108.41599885233227 48.93499999999999 41.64562521896772
    vertex -109.23512401197466 48.93499999999999 41.69200133646453
    vertex -108.61575140661067 48.93499999999999 42.1000273581759
  endloop
endfacet
facet normal 0.0 1.0 0.0
  outer loop
    vertex -108.61575140661067 48.93499999999999 42.1000273581759
    vertex -109.23512401197466 48.93499999999999 41.69200133646453
    vertex -109.52120319460556 48.93499999999999 42.127825091253804
  endloop
endfacet
facet normal 0.0 1.0 0.0
  outer loop
    vertex -108.61575140661067 48.93499999999999 42.1000273581759
    vertex -109.52120319460556 48.93499999999999 42.127825091253804
    vertex -108.89540498260045 48.93499999999999 42.492129050385344
  endloop
endfacet
facet normal 0.0 1.0 0.0
  outer loop
    vertex -108.89540498260045 48.93499999999999 42.492129050385344
    vertex -109.52120319460556 48.93499999999999 42.127825091253804
    vertex -109.94808697493762 48.93499999999999 42.42060925472762
  endloop
endfacet
facet normal 0.0 1.0 0.0
  outer loop
    vertex -108.89540498260045 48.93499999999999 42.492129050385344
    vertex -109.94808697493762 48.93499999999999 42.42060925472762
    vertex -110.20790498260045 48.93499999999999 42.49604028921038
  endloop
endfacet
facet normal 0.0 1.0 0.0
  outer loop
    vertex -108.89540498260045 48.93499999999999 42.492129050385344
    vertex -110.20790498260045 48.93499999999999 42.49604028921038
    vertex -109.23959399920327 48.93499999999999 42.807961585506675
  endloop
endfacet
facet normal 0.0 1.0 0.0
  outer loop
    vertex -109.23959399920327 48.93499999999999 42.807961585506675
    vertex -110.20790498260045 48.93499999999999 42.49604028921038
    vertex -110.51801034658513 48.93499999999999 42.5211839673713
  endloop
endfacet
facet normal 0.0 1.0 0.0
  outer loop
    vertex -109.23959399920327 48.93499999999999 42.807961585506675
    vertex -110.51801034658513 48.93499999999999 42.5211839673713
    vertex -112.01545606816879 48.93499999999999 42.65975357145814
  endloop
endfacet
facet normal 0.0 1.0 0.0
  outer loop
    vertex -109.23959399920327 48.93499999999999 42.807961585506675
    vertex -112.01545606816879 48.93499999999999 42.65975357145814
    vertex -111.72490689830927 48.93499999999999 42.907837862645884
  endloop
endfacet
facet normal 0.0 1.0 0.0
  outer loop
    vertex -109.23959399920327 48.93499999999999 42.807961585506675
    vertex -111.72490689830927 48.93499999999999 42.907837862645884
    vertex -109.63295287532077 48.93499999999999 43.03355625345048
  endloop
endfacet
facet normal 0.0 1.0 0.0
  outer loop
    vertex -109.63295287532077 48.93499999999999 43.03355625345048
    vertex -111.72490689830927 48.93499999999999 42.907837862645884
    vertex -111.38965785616367 48.93499999999999 43.07993237094729
  endloop
endfacet
facet normal 0.0 1.0 0.0
  outer loop
    vertex -109.63295287532077 48.93499999999999 43.03355625345048
    vertex -111.38965785616367 48.93499999999999 43.07993237094729
    vertex -110.07548161095293 48.93499999999999 43.168913054216766
  endloop
endfacet
facet normal 0.0 1.0 0.0
  outer loop
    vertex -110.07548161095293 48.93499999999999 43.168913054216766
    vertex -111.38965785616367 48.93499999999999 43.07993237094729
    vertex -111.0052389545034 48.93499999999999 43.18050708359097
  endloop
endfacet
facet normal 0.0 1.0 0.0
  outer loop
    vertex -110.07548161095293 48.93499999999999 43.168913054216766
    vertex -111.0052389545034 48.93499999999999 43.18050708359097
    vertex -110.56718020609983 48.93499999999999 43.21403198780553
  endloop
endfacet
facet normal 0.0 1.0 0.0
  outer loop
    vertex -111.27120319460556 48.93499999999999 38.002026879248696
    vertex -110.20497155348168 48.93499999999999 38.00831279878893
    vertex -110.76832963138719 48.93499999999999 37.96626698141983
  endloop
endfacet
facet normal 0.0 1.0 0.0
  outer loop
    vertex -110.20497155348168 48.93499999999999 38.00831279878893
    vertex -111.27120319460556 48.93499999999999 38.002026879248696
    vertex -111.71596692385205 48.93499999999999 38.10483658550668
  endloop
endfacet
facet normal 0.0 1.0 0.0
  outer loop
    vertex -110.20497155348168 48.93499999999999 38.00831279878893
    vertex -111.71596692385205 48.93499999999999 38.10483658550668
    vertex -109.70838390980353 48.93499999999999 38.13445025089621
  endloop
endfacet
facet normal 0.0 1.0 0.0
  outer loop
    vertex -109.70838390980353 48.93499999999999 38.13445025089621
    vertex -111.71596692385205 48.93499999999999 38.10483658550668
    vertex -112.10932579996955 48.93499999999999 38.24117119597922
  endloop
endfacet
facet normal 0.0 1.0 0.0
  outer loop
    vertex -109.70838390980353 48.93499999999999 38.13445025089621
    vertex -112.10932579996955 48.93499999999999 38.24117119597922
    vertex -109.2785667003527 48.93499999999999 38.344679337741674
  endloop
endfacet
facet normal 0.0 1.0 0.0
  outer loop
    vertex -109.2785667003527 48.93499999999999 38.344679337741674
    vertex -112.10932579996955 48.93499999999999 38.24117119597922
    vertex -112.47586475271541 48.93499999999999 38.38644578090897
  endloop
endfacet
facet normal 0.0 1.0 0.0
  outer loop
    vertex -109.2785667003527 48.93499999999999 38.344679337741674
    vertex -112.47586475271541 48.93499999999999 38.38644578090897
    vertex -108.9155199251292 48.93499999999999 38.639000059325326
  endloop
endfacet
facet normal 0.0 1.0 0.0
  outer loop
    vertex -108.9155199251292 48.93499999999999 38.639000059325326
    vertex -112.47586475271541 48.93499999999999 38.38644578090897
    vertex -110.75938965692995 48.93499999999999 38.69934488691153
  endloop
endfacet
facet normal 0.0 1.0 0.0
  outer loop
    vertex -110.75938965692995 48.93499999999999 38.69934488691153
    vertex -112.47586475271541 48.93499999999999 38.38644578090897
    vertex -111.30249310520583 48.93499999999999 38.76192470811204
  endloop
endfacet
facet normal 0.0 1.0 0.0
  outer loop
    vertex -111.30249310520583 48.93499999999999 38.76192470811204
    vertex -112.47586475271541 48.93499999999999 38.38644578090897
    vertex -111.78301673228118 48.93499999999999 38.922844248341924
  endloop
endfacet
facet normal 0.0 1.0 0.0
  outer loop
    vertex -111.78301673228118 48.93499999999999 38.922844248341924
    vertex -112.47586475271541 48.93499999999999 38.38644578090897
    vertex -112.16743563394145 48.93499999999999 39.12175868001498
  endloop
endfacet
facet normal 0.0 1.0 0.0
  outer loop
    vertex -112.16743563394145 48.93499999999999 39.12175868001498
    vertex -112.47586475271541 48.93499999999999 38.38644578090897
    vertex -112.47586475271541 48.93499999999999 39.3027931627736
  endloop
endfacet
facet normal 0.0 1.0 0.0
  outer loop
    vertex -112.16743563394145 48.93499999999999 39.12175868001498
    vertex -112.47586475271541 48.93499999999999 39.3027931627736
    vertex -112.4266948932007 48.93499999999999 39.3027931627736
  endloop
endfacet
facet normal 0.0 1.0 0.0
  outer loop
    vertex -108.9155199251292 48.93499999999999 38.639000059325326
    vertex -110.39368882678947 48.93499999999999 38.72812042969569
    vertex -108.6270660617831 48.93499999999999 39.010707434804246
  endloop
endfacet
facet normal 0.0 1.0 0.0
  outer loop
    vertex -110.39368882678947 48.93499999999999 38.72812042969569
    vertex -108.9155199251292 48.93499999999999 38.639000059325326
    vertex -110.75938965692995 48.93499999999999 38.69934488691153
  endloop
endfacet
facet normal 0.0 1.0 0.0
  outer loop
    vertex -108.6270660617831 48.93499999999999 39.010707434804246
    vertex -110.39368882678947 48.93499999999999 38.72812042969569
    vertex -110.06989412691718 48.93499999999999 38.81444705804818
  endloop
endfacet
facet normal 0.0 1.0 0.0
  outer loop
    vertex -108.6270660617831 48.93499999999999 39.010707434804246
    vertex -110.06989412691718 48.93499999999999 38.81444705804818
    vertex -109.7880055573131 48.93499999999999 38.958324771969
  endloop
endfacet
facet normal 0.0 1.0 0.0
  outer loop
    vertex -108.6270660617831 48.93499999999999 39.010707434804246
    vertex -109.7880055573131 48.93499999999999 38.958324771969
    vertex -109.54802311797722 48.93499999999999 39.15975357145815
  endloop
endfacet
facet normal 0.0 1.0 0.0
  outer loop
    vertex -108.6270660617831 48.93499999999999 39.010707434804246
    vertex -109.54802311797722 48.93499999999999 39.15975357145815
    vertex -108.42102758796443 48.93499999999999 39.45309648333554
  endloop
endfacet
facet normal 0.0 1.0 0.0
  outer loop
    vertex -108.42102758796443 48.93499999999999 39.45309648333554
    vertex -109.54802311797722 48.93499999999999 39.15975357145815
    vertex -109.35637241555065 48.93499999999999 39.41566034029595
  endloop
endfacet
facet normal 0.0 1.0 0.0
  outer loop
    vertex -108.42102758796443 48.93499999999999 39.45309648333554
    vertex -109.35637241555065 48.93499999999999 39.41566034029595
    vertex -109.21947905667454 48.93499999999999 39.72297196226275
  endloop
endfacet
facet normal 0.0 1.0 0.0
  outer loop
    vertex -108.42102758796443 48.93499999999999 39.45309648333554
    vertex -109.21947905667454 48.93499999999999 39.72297196226275
    vertex -108.29740450367326 48.93499999999999 39.966167204919195
  endloop
endfacet
facet normal 0.0 1.0 0.0
  outer loop
    vertex -108.29740450367326 48.93499999999999 39.966167204919195
    vertex -109.21947905667454 48.93499999999999 39.72297196226275
    vertex -109.13734304134887 48.93499999999999 40.08168843735853
  endloop
endfacet
facet normal 0.0 1.0 0.0
  outer loop
    vertex -108.29740450367326 48.93499999999999 39.966167204919195
    vertex -109.13734304134887 48.93499999999999 40.08168843735853
    vertex -108.25619680890952 48.93499999999999 40.54991959955521
  endloop
endfacet
facet normal 0.0 1.0 0.0
  outer loop
    vertex -108.25619680890952 48.93499999999999 40.54991959955521
    vertex -109.13734304134887 48.93499999999999 40.08168843735853
    vertex -109.10996436957365 48.93499999999999 40.491809765583305
  endloop
endfacet
endsolid lbox_mini_compartments
